<svg width="89" height="46" viewBox="0 0 89 46" fill="none" xmlns="http://www.w3.org/2000/svg">
<rect x="1" y="1" width="86.1052" height="43.61" rx="9" fill="#FFB12A"/>
<rect x="1" y="1" width="86.1052" height="43.61" rx="9" stroke="#5F333B" stroke-width="2"/>
<path d="M37.4252 22.8933V25.0273H25.6992V22.8933H29.9452V21.5293H29.8132C29.4612 21.5293 29.1092 21.4633 28.7572 21.3313C28.4199 21.1993 28.1119 21.0159 27.8332 20.7813C27.5692 20.5466 27.3492 20.2753 27.1732 19.9673C26.9972 19.6446 26.9092 19.3073 26.9092 18.9553V16.9533C26.9092 16.5573 26.9899 16.2053 27.1512 15.8973C27.3125 15.5746 27.5252 15.3033 27.7892 15.0833C28.0532 14.8633 28.3465 14.6946 28.6692 14.5773C29.0065 14.4599 29.3512 14.4013 29.7032 14.4013H32.7832C33.6045 14.4013 34.2792 14.6359 34.8072 15.1053C35.3352 15.5746 35.5992 16.2126 35.5992 17.0193V18.9333C35.5992 19.2853 35.5185 19.6226 35.3572 19.9453C35.2105 20.2533 35.0052 20.5246 34.7412 20.7593C34.4919 20.9939 34.1985 21.1846 33.8612 21.3313C33.5385 21.4633 33.2012 21.5293 32.8492 21.5293V22.8933H37.4252ZM41.4512 32.4413H27.9872V26.4573H30.8472V29.9553H41.4512V32.4413ZM43.9152 17.9653V20.5393H41.1872V26.6553H38.3492V14.1593H41.1872V17.9653H43.9152ZM32.8712 17.4153C32.8712 17.1073 32.7612 16.8506 32.5412 16.6453C32.3359 16.4399 32.0719 16.3373 31.7492 16.3373H30.8692C30.5319 16.3373 30.2459 16.4399 30.0112 16.6453C29.7765 16.8506 29.6592 17.1073 29.6592 17.4153V18.4933C29.6592 18.8013 29.7619 19.0653 29.9672 19.2853C30.1872 19.4906 30.4659 19.5933 30.8032 19.5933H31.7712C32.0939 19.5933 32.3579 19.4906 32.5632 19.2853C32.7685 19.0653 32.8712 18.8013 32.8712 18.4933V17.4153ZM46.3945 19.2853H57.1525V17.8773H46.3945V15.3913H60.1445V21.3093H49.3865V22.7173H60.1445V24.8513H46.3945V19.2853ZM61.5305 28.1733V30.6813H45.0085V28.1733H49.7605V25.8193H52.2245V28.1733H54.7545V25.8193H57.2185V28.1733H61.5305Z" fill="#311A1E"/>
</svg>
