<svg width="29" height="28" viewBox="0 0 29 28" fill="none" xmlns="http://www.w3.org/2000/svg">
<g clip-path="url(#clip0_4020_550)">
<path fill-rule="evenodd" clip-rule="evenodd" d="M10.8438 14.0779V1.98657H12.5711V12.5526L15.5818 10.7441C15.7159 10.6637 15.8694 10.6213 16.0257 10.6213C16.1821 10.6213 16.3355 10.6637 16.4697 10.7441L19.4804 12.5526V1.98657H21.2077V14.0779C21.2077 14.2307 21.1672 14.3808 21.0903 14.5128C21.0134 14.6448 20.9028 14.7541 20.7699 14.8294C20.6369 14.9048 20.4864 14.9435 20.3336 14.9416C20.1808 14.9398 20.0312 14.8974 19.9001 14.8189L16.0257 12.4939L12.1513 14.8206C12.0201 14.8992 11.8704 14.9416 11.7175 14.9434C11.5645 14.9452 11.4138 14.9063 11.2808 14.8307C11.1478 14.7552 11.0373 14.6457 10.9605 14.5134C10.8837 14.3811 10.8434 14.2308 10.8438 14.0779Z" fill="#FFE607"/>
<path d="M5.66169 0.259277H22.935C23.8512 0.259277 24.7299 0.623249 25.3778 1.27112C26.0256 1.919 26.3896 2.7977 26.3896 3.71393V24.4419C26.3896 25.3581 26.0256 26.2368 25.3778 26.8847C24.7299 27.5325 23.8512 27.8965 22.935 27.8965H5.66169C4.74545 27.8965 3.86675 27.5325 3.21888 26.8847C2.571 26.2368 2.20703 25.3581 2.20703 24.4419V22.7145H3.93436V24.4419C3.93436 24.9 4.11634 25.3393 4.44028 25.6633C4.76422 25.9872 5.20357 26.1692 5.66169 26.1692H22.935C23.3931 26.1692 23.8324 25.9872 24.1564 25.6633C24.4803 25.3393 24.6623 24.9 24.6623 24.4419V3.71393C24.6623 3.25582 24.4803 2.81646 24.1564 2.49253C23.8324 2.16859 23.3931 1.9866 22.935 1.9866H5.66169C5.20357 1.9866 4.76422 2.16859 4.44028 2.49253C4.11634 2.81646 3.93436 3.25582 3.93436 3.71393V5.44126H2.20703V3.71393C2.20703 2.7977 2.571 1.919 3.21888 1.27112C3.86675 0.623249 4.74545 0.259277 5.66169 0.259277Z" fill="#FFE607"/>
<path d="M2.20706 7.87235V7.00868C2.20706 6.77963 2.29806 6.55995 2.46002 6.39798C2.62199 6.23601 2.84167 6.14502 3.07073 6.14502C3.29978 6.14502 3.51946 6.23601 3.68143 6.39798C3.8434 6.55995 3.93439 6.77963 3.93439 7.00868V7.87235H4.79805C5.02711 7.87235 5.24679 7.96334 5.40876 8.12531C5.57072 8.28728 5.66172 8.50695 5.66172 8.73601C5.66172 8.96507 5.57072 9.18474 5.40876 9.34671C5.24679 9.50868 5.02711 9.59967 4.79805 9.59967H1.3434C1.11434 9.59967 0.894666 9.50868 0.732698 9.34671C0.570729 9.18474 0.479736 8.96507 0.479736 8.73601C0.479736 8.50695 0.570729 8.28728 0.732698 8.12531C0.894666 7.96334 1.11434 7.87235 1.3434 7.87235H2.20706ZM2.20706 13.0543V12.1907C2.20706 11.9616 2.29806 11.7419 2.46002 11.58C2.62199 11.418 2.84167 11.327 3.07073 11.327C3.29978 11.327 3.51946 11.418 3.68143 11.58C3.8434 11.7419 3.93439 11.9616 3.93439 12.1907V13.0543H4.79805C5.02711 13.0543 5.24679 13.1453 5.40876 13.3073C5.57072 13.4693 5.66172 13.6889 5.66172 13.918C5.66172 14.147 5.57072 14.3667 5.40876 14.5287C5.24679 14.6907 5.02711 14.7817 4.79805 14.7817H1.3434C1.11434 14.7817 0.894666 14.6907 0.732698 14.5287C0.570729 14.3667 0.479736 14.147 0.479736 13.918C0.479736 13.6889 0.570729 13.4693 0.732698 13.3073C0.894666 13.1453 1.11434 13.0543 1.3434 13.0543H2.20706ZM2.20706 18.2363V17.3726C2.20706 17.1436 2.29806 16.9239 2.46002 16.7619C2.62199 16.6 2.84167 16.509 3.07073 16.509C3.29978 16.509 3.51946 16.6 3.68143 16.7619C3.8434 16.9239 3.93439 17.1436 3.93439 17.3726V18.2363H4.79805C5.02711 18.2363 5.24679 18.3273 5.40876 18.4893C5.57072 18.6512 5.66172 18.8709 5.66172 19.1C5.66172 19.329 5.57072 19.5487 5.40876 19.7107C5.24679 19.8726 5.02711 19.9636 4.79805 19.9636H1.3434C1.11434 19.9636 0.894666 19.8726 0.732698 19.7107C0.570729 19.5487 0.479736 19.329 0.479736 19.1C0.479736 18.8709 0.570729 18.6512 0.732698 18.4893C0.894666 18.3273 1.11434 18.2363 1.3434 18.2363H2.20706Z" fill="#FFE607"/>
</g>
<defs>
<clipPath id="clip0_4020_550">
<rect width="27.6372" height="27.6372" fill="white" transform="translate(0.479736 0.259277)"/>
</clipPath>
</defs>
</svg>
