<svg width="28" height="24" viewBox="0 0 28 24" fill="none" xmlns="http://www.w3.org/2000/svg">
<path d="M1.98514 3.49764C3.51382 2.84734 5.7058 2.14607 7.83732 1.92814C10.1347 1.69262 12.0831 2.03886 13.2128 3.24982V20.379C11.5977 19.4475 9.55083 19.3192 7.66286 19.5125C5.62462 19.7234 3.5691 20.3227 1.98514 20.9379V3.49764ZM14.9401 3.24982C16.0698 2.03886 18.0182 1.69262 20.3155 1.92814C22.4471 2.14607 24.639 2.84734 26.1677 3.49764V20.9379C24.582 20.3227 22.5282 19.7217 20.49 19.5143C18.6003 19.3192 16.5551 19.4457 14.9401 20.379V3.24982ZM14.0764 1.66099C12.375 0.172335 9.90839 -0.0491169 7.66286 0.179366C5.04769 0.448272 2.40833 1.36044 0.763919 2.12147C0.613036 2.19129 0.485086 2.30382 0.395344 2.44562C0.305602 2.58742 0.257858 2.7525 0.257812 2.92116V22.2543C0.257853 22.4013 0.294151 22.546 0.363382 22.6751C0.432613 22.8041 0.532564 22.9135 0.65408 22.993C0.775596 23.0726 0.914792 23.1199 1.05892 23.1305C1.20304 23.1412 1.34749 23.1149 1.47903 23.054C3.00254 22.351 5.45707 21.5056 7.8356 21.2613C10.2694 21.0117 12.3094 21.4142 13.4028 22.8027C13.4837 22.9053 13.5862 22.9881 13.7028 23.045C13.8194 23.102 13.9471 23.1315 14.0764 23.1315C14.2057 23.1315 14.3334 23.102 14.45 23.045C14.5666 22.9881 14.6692 22.9053 14.7501 22.8027C15.8435 21.4142 17.8835 21.0117 20.3155 21.2613C22.6958 21.5056 25.1521 22.351 26.6738 23.054C26.8054 23.1149 26.9498 23.1412 27.0939 23.1305C27.2381 23.1199 27.3773 23.0726 27.4988 22.993C27.6203 22.9135 27.7202 22.8041 27.7895 22.6751C27.8587 22.546 27.895 22.4013 27.895 22.2543V2.92116C27.895 2.7525 27.8473 2.58742 27.7575 2.44562C27.6678 2.30382 27.5398 2.19129 27.3889 2.12147C25.7445 1.36044 23.1052 0.448272 20.49 0.179366C18.2445 -0.0508745 15.7778 0.172335 14.0764 1.66099Z" fill="#FFE607"/>
</svg>
