<svg width="29" height="32" viewBox="0 0 29 32" fill="none" xmlns="http://www.w3.org/2000/svg">
<path d="M15.0928 0.903087C14.9908 0.798918 14.8696 0.716271 14.7361 0.65988C14.6027 0.60349 14.4596 0.574463 14.3151 0.574463C14.1706 0.574463 14.0276 0.60349 13.8941 0.65988C13.7607 0.716271 13.6395 0.798918 13.5375 0.903087L0.356624 14.326C0.254688 14.4301 0.173894 14.5536 0.11886 14.6895C0.0638265 14.8254 0.0356326 14.971 0.0358904 15.118V30.7781C0.0358904 31.0747 0.151615 31.3593 0.357605 31.569C0.563596 31.7788 0.842978 31.8967 1.13429 31.8967H11.0199C11.3112 31.8967 11.5906 31.7788 11.7966 31.569C12.0026 31.3593 12.1183 31.0747 12.1183 30.7781V21.8295H16.5119V30.7781C16.5119 31.0747 16.6277 31.3593 16.8336 31.569C17.0396 31.7788 17.319 31.8967 17.6103 31.8967H27.496C27.7873 31.8967 28.0667 31.7788 28.2726 31.569C28.4786 31.3593 28.5944 31.0747 28.5944 30.7781V15.118C28.5946 14.971 28.5664 14.8254 28.5114 14.6895C28.4564 14.5536 28.3756 14.4301 28.2736 14.326L25.2992 11.2992V3.9322C25.2992 3.63553 25.1834 3.35102 24.9774 3.14124C24.7714 2.93147 24.4921 2.81362 24.2007 2.81362H22.0039C21.7126 2.81362 21.4332 2.93147 21.2273 3.14124C21.0213 3.35102 20.9055 3.63553 20.9055 3.9322V6.82484L15.0928 0.903087ZM2.2327 29.6595V15.5811L14.3151 3.27671L26.3976 15.5811V29.6595H18.7087V20.7109C18.7087 20.4142 18.593 20.1297 18.387 19.9199C18.181 19.7101 17.9016 19.5923 17.6103 19.5923H11.0199C10.7286 19.5923 10.4492 19.7101 10.2432 19.9199C10.0372 20.1297 9.92151 20.4142 9.92151 20.7109V29.6595H2.2327Z" fill="#FFE607"/>
</svg>
