<svg width="26" height="26" viewBox="0 0 26 26" fill="none" xmlns="http://www.w3.org/2000/svg">
<path d="M12.9499 12.6172C14.5992 12.6172 16.1808 11.962 17.347 10.7959C18.5132 9.62968 19.1683 8.04801 19.1683 6.3988C19.1683 4.74958 18.5132 3.16791 17.347 2.00174C16.1808 0.835569 14.5992 0.18042 12.9499 0.18042C11.3007 0.18042 9.71905 0.835569 8.55288 2.00174C7.38671 3.16791 6.73156 4.74958 6.73156 6.3988C6.73156 8.04801 7.38671 9.62968 8.55288 10.7959C9.71905 11.962 11.3007 12.6172 12.9499 12.6172ZM17.0955 6.3988C17.0955 7.49827 16.6588 8.55272 15.8813 9.33017C15.1039 10.1076 14.0494 10.5444 12.9499 10.5444C11.8505 10.5444 10.796 10.1076 10.0186 9.33017C9.24112 8.55272 8.80435 7.49827 8.80435 6.3988C8.80435 5.29932 9.24112 4.24487 10.0186 3.46743C10.796 2.68998 11.8505 2.25321 12.9499 2.25321C14.0494 2.25321 15.1039 2.68998 15.8813 3.46743C16.6588 4.24487 17.0955 5.29932 17.0955 6.3988ZM25.3867 22.9811C25.3867 25.0539 23.3139 25.0539 23.3139 25.0539H2.58598C2.58598 25.0539 0.513184 25.0539 0.513184 22.9811C0.513184 20.9083 2.58598 14.69 12.9499 14.69C23.3139 14.69 25.3867 20.9083 25.3867 22.9811ZM23.3139 22.9728C23.3118 22.4629 22.9947 20.9291 21.5893 19.5237C20.2379 18.1723 17.6946 16.7628 12.9499 16.7628C8.20532 16.7628 5.662 18.1723 4.31054 19.5237C2.90519 20.9291 2.59012 22.4629 2.58598 22.9728H23.3139Z" fill="#FFE607"/>
</svg>
