<svg width="29" height="26" viewBox="0 0 29 26" fill="none" xmlns="http://www.w3.org/2000/svg">
<path d="M5.86527 0.782297C6.02744 0.593539 6.22876 0.441997 6.45538 0.338097C6.682 0.234196 6.92854 0.180404 7.17804 0.18042H21.9294C22.1789 0.180404 22.4254 0.234196 22.6521 0.338097C22.8787 0.441997 23.08 0.593539 23.2422 0.782297L27.7488 6.01691C28.1511 6.48437 28.3723 7.07968 28.3723 7.69529V8.1338C28.3724 8.98499 28.1054 9.81493 27.6085 10.5076C27.1117 11.2004 26.4099 11.7212 25.6011 11.9974C24.7924 12.2736 23.9172 12.2914 23.0979 12.0482C22.2785 11.805 21.556 11.313 21.0312 10.6411C20.6481 11.1326 20.157 11.5302 19.5956 11.8036C19.0342 12.0769 18.4174 12.2187 17.7925 12.218C17.1675 12.2187 16.5507 12.0769 15.9893 11.8036C15.4279 11.5302 14.9369 11.1326 14.5537 10.6411C14.1706 11.1326 13.6795 11.5302 13.1181 11.8036C12.5567 12.0769 11.9399 12.2187 11.315 12.218C10.6901 12.2187 10.0732 12.0769 9.51186 11.8036C8.95046 11.5302 8.45938 11.1326 8.07625 10.6411C7.55147 11.313 6.82891 11.805 6.00956 12.0482C5.19022 12.2914 4.31502 12.2736 3.5063 11.9974C2.69758 11.7212 1.99575 11.2004 1.4989 10.5076C1.00205 9.81493 0.735013 8.98499 0.735107 8.1338V7.69529C0.735129 7.07968 0.956303 6.48437 1.35867 6.01691L5.86527 0.782297ZM8.93991 8.1338C8.93991 8.76091 9.19014 9.36234 9.63555 9.80577C10.081 10.2492 10.6851 10.4983 11.315 10.4983C11.9449 10.4983 12.549 10.2492 12.9944 9.80577C13.4398 9.36234 13.6901 8.76091 13.6901 8.1338C13.6901 7.90576 13.7811 7.68706 13.943 7.52581C14.105 7.36456 14.3247 7.27398 14.5537 7.27398C14.7828 7.27398 15.0025 7.36456 15.1644 7.52581C15.3264 7.68706 15.4174 7.90576 15.4174 8.1338C15.4174 8.76091 15.6676 9.36234 16.113 9.80577C16.5584 10.2492 17.1626 10.4983 17.7925 10.4983C18.4224 10.4983 19.0265 10.2492 19.4719 9.80577C19.9173 9.36234 20.1675 8.76091 20.1675 8.1338C20.1675 7.90576 20.2585 7.68706 20.4205 7.52581C20.5825 7.36456 20.8021 7.27398 21.0312 7.27398C21.2603 7.27398 21.4799 7.36456 21.6419 7.52581C21.8039 7.68706 21.8949 7.90576 21.8949 8.1338C21.8949 8.76091 22.1451 9.36234 22.5905 9.80577C23.0359 10.2492 23.64 10.4983 24.2699 10.4983C24.8998 10.4983 25.504 10.2492 25.9494 9.80577C26.3948 9.36234 26.645 8.76091 26.645 8.1338V7.69529C26.645 7.49036 26.5715 7.29215 26.4377 7.1364L21.9294 1.90007H7.17804L2.66971 7.1364C2.53593 7.29215 2.46242 7.49036 2.46243 7.69529V8.1338C2.46243 8.76091 2.71266 9.36234 3.15808 9.80577C3.60349 10.2492 4.2076 10.4983 4.83751 10.4983C5.46742 10.4983 6.07153 10.2492 6.51694 9.80577C6.96235 9.36234 7.21258 8.76091 7.21258 8.1338C7.21258 7.90576 7.30358 7.68706 7.46555 7.52581C7.62751 7.36456 7.84719 7.27398 8.07625 7.27398C8.30531 7.27398 8.52498 7.36456 8.68695 7.52581C8.84892 7.68706 8.93991 7.90576 8.93991 8.1338ZM3.3261 13.0778C3.55516 13.0778 3.77483 13.1684 3.9368 13.3296C4.09877 13.4909 4.18976 13.7096 4.18976 13.9376V24.2555H24.9177V13.9376C24.9177 13.7096 25.0087 13.4909 25.1706 13.3296C25.3326 13.1684 25.5523 13.0778 25.7813 13.0778C26.0104 13.0778 26.2301 13.1684 26.3921 13.3296C26.554 13.4909 26.645 13.7096 26.645 13.9376V24.2555H27.5087C27.7377 24.2555 27.9574 24.3461 28.1194 24.5074C28.2813 24.6686 28.3723 24.8873 28.3723 25.1153C28.3723 25.3434 28.2813 25.5621 28.1194 25.7233C27.9574 25.8846 27.7377 25.9752 27.5087 25.9752H1.59877C1.36971 25.9752 1.15004 25.8846 0.988069 25.7233C0.8261 25.5621 0.735107 25.3434 0.735107 25.1153C0.735107 24.8873 0.8261 24.6686 0.988069 24.5074C1.15004 24.3461 1.36971 24.2555 1.59877 24.2555H2.46243V13.9376C2.46243 13.7096 2.55343 13.4909 2.7154 13.3296C2.87736 13.1684 3.09704 13.0778 3.3261 13.0778ZM6.78075 13.9376C7.00981 13.9376 7.22949 14.0282 7.39145 14.1895C7.55342 14.3507 7.64442 14.5694 7.64442 14.7974V20.8162H21.463V14.7974C21.463 14.5694 21.554 14.3507 21.716 14.1895C21.878 14.0282 22.0976 13.9376 22.3267 13.9376C22.5558 13.9376 22.7754 14.0282 22.9374 14.1895C23.0994 14.3507 23.1904 14.5694 23.1904 14.7974V20.8162C23.1904 21.2723 23.0084 21.7097 22.6844 22.0322C22.3605 22.3547 21.9211 22.5359 21.463 22.5359H7.64442C7.1863 22.5359 6.74695 22.3547 6.42301 22.0322C6.09907 21.7097 5.91709 21.2723 5.91709 20.8162V14.7974C5.91709 14.5694 6.00808 14.3507 6.17005 14.1895C6.33202 14.0282 6.55169 13.9376 6.78075 13.9376Z" fill="#FFE607"/>
</svg>
