<svg width="375" height="50" viewBox="0 0 375 50" fill="none" xmlns="http://www.w3.org/2000/svg">
<mask id="path-1-inside-1_2_600" fill="white">
<path d="M0 0H375V50H0V0Z"/>
</mask>
<path d="M0 0H375V50H0V0Z" fill="#FCA600"/>
<path d="M375 49.5H0V50.5H375V49.5Z" fill="#E6E6E6" mask="url(#path-1-inside-1_2_600)"/>
<path d="M9.27402 25.0006L16.2841 17.9905C16.4793 17.7953 16.4793 17.4787 16.2841 17.2834L15.7184 16.7177C15.5231 16.5225 15.2065 16.5225 15.0113 16.7177L7.08199 24.647C6.88673 24.8423 6.88673 25.1589 7.08199 25.3541L15.0113 33.2834C15.2065 33.4787 15.5231 33.4787 15.7184 33.2834L16.2841 32.7177C16.4793 32.5225 16.4793 32.2059 16.2841 32.0106L9.27402 25.0006Z" fill="black"/>
<path d="M50.7306 15.05C51.3972 15.05 52.0472 15.1417 52.6806 15.325C53.3139 15.4917 53.8639 15.7417 54.3306 16.075C54.8139 16.3917 55.1972 16.7917 55.4806 17.275C55.7806 17.7583 55.9306 18.3083 55.9306 18.925V21.875C55.9306 22.5583 55.7972 23.1667 55.5306 23.7C55.2639 24.2167 54.9056 24.6583 54.4556 25.025C54.0056 25.375 53.4722 25.6417 52.8556 25.825C52.2556 26.0083 51.6222 26.1 50.9556 26.1H46.1806C45.4972 26.1 44.8472 26.0083 44.2306 25.825C43.6306 25.6417 43.0889 25.3833 42.6056 25.05C42.1389 24.7167 41.7639 24.3083 41.4806 23.825C41.2139 23.325 41.0806 22.7583 41.0806 22.125C41.0806 21.9083 41.0722 21.6583 41.0556 21.375C41.0556 21.075 41.0556 20.775 41.0556 20.475C41.0556 20.175 41.0556 19.8833 41.0556 19.6C41.0722 19.3 41.0972 19.0417 41.1306 18.825C41.1972 18.275 41.3806 17.775 41.6806 17.325C41.9972 16.8583 42.3806 16.4583 42.8306 16.125C43.2972 15.7917 43.8222 15.5333 44.4056 15.35C44.9889 15.15 45.5806 15.05 46.1806 15.05H50.7306ZM58.0556 29.675V32.525H38.9556V29.675H47.0056V27H50.2056V29.675H58.0556ZM49.9556 23.4C50.2389 23.4 50.5556 23.3833 50.9056 23.35C51.2556 23.3167 51.5806 23.2417 51.8806 23.125C52.1806 22.9917 52.4306 22.8083 52.6306 22.575C52.8306 22.325 52.9306 21.9917 52.9306 21.575V20.125C52.9306 19.725 52.8389 19.3917 52.6556 19.125C52.4889 18.8417 52.2639 18.6167 51.9806 18.45C51.6972 18.2667 51.3722 18.1417 51.0056 18.075C50.6556 17.9917 50.2889 17.95 49.9056 17.95H47.4056C47.0889 17.95 46.7639 17.975 46.4306 18.025C46.1139 18.0583 45.8139 18.1417 45.5306 18.275C45.2472 18.3917 44.9972 18.575 44.7806 18.825C44.5639 19.075 44.3972 19.4 44.2806 19.8C44.2472 19.9167 44.2139 20.0583 44.1806 20.225C44.1639 20.3917 44.1556 20.5667 44.1556 20.75C44.1556 20.9333 44.1639 21.1167 44.1806 21.3C44.2139 21.4667 44.2472 21.6083 44.2806 21.725C44.4306 22.2083 44.7056 22.6083 45.1056 22.925C45.5222 23.2417 46.1722 23.4 47.0556 23.4H49.9556ZM61.736 29.225H73.111V28.075H61.736V26.075H76.511V31.5H64.861V32.525H76.511V34.8H61.761L61.736 29.225ZM61.786 20.775V13.825H64.661V17.825H76.361V20.775H61.786ZM78.811 24.625H59.311V22.025H78.811V24.625ZM98.0821 13.775V34.825H94.3321V28.425C93.7155 28.975 93.0405 29.4417 92.3071 29.825C91.5738 30.2083 90.8155 30.5333 90.0321 30.8C89.2488 31.05 88.4571 31.25 87.6571 31.4C86.8571 31.55 86.0905 31.6583 85.3571 31.725C83.6238 31.9083 81.8571 31.925 80.0571 31.775V28.325C80.9738 28.5083 81.9238 28.6 82.9071 28.6C83.9071 28.5833 84.8905 28.5083 85.8571 28.375C86.8405 28.2417 87.7821 28.075 88.6821 27.875C89.5988 27.6583 90.4238 27.4417 91.1571 27.225C91.9071 27.0083 92.5488 26.8083 93.0821 26.625C93.6321 26.425 94.0321 26.275 94.2821 26.175V13.775H98.0821ZM87.6821 14.325C88.1988 14.325 88.6655 14.4167 89.0821 14.6C89.4988 14.7667 89.8571 15.0083 90.1571 15.325C90.4571 15.6417 90.6821 16.0083 90.8321 16.425C90.9988 16.8417 91.0821 17.2833 91.0821 17.75V21.15C91.0821 22.2 90.7571 23.0333 90.1071 23.65C89.4571 24.25 88.5571 24.55 87.4071 24.55H84.4071C83.9571 24.55 83.5238 24.475 83.1071 24.325C82.6905 24.175 82.3155 23.9667 81.9821 23.7C81.6655 23.4167 81.4071 23.0833 81.2071 22.7C81.0238 22.3 80.9321 21.8667 80.9321 21.4V17.75C80.9321 17.2833 81.0155 16.8417 81.1821 16.425C81.3655 16.0083 81.6071 15.6417 81.9071 15.325C82.2238 15.0083 82.5905 14.7667 83.0071 14.6C83.4405 14.4167 83.9071 14.325 84.4071 14.325H87.6821ZM88.0571 18.4C88.0571 18 87.9155 17.6667 87.6321 17.4C87.3655 17.1167 87.0238 16.975 86.6071 16.975H85.5321C85.1155 16.975 84.7488 17.1167 84.4321 17.4C84.1155 17.6667 83.9571 18 83.9571 18.4V20.475C83.9571 20.8917 84.1155 21.2417 84.4321 21.525C84.7488 21.7917 85.1155 21.925 85.5321 21.925H86.6071C87.0238 21.925 87.3655 21.7917 87.6321 21.525C87.9155 21.2417 88.0571 20.8917 88.0571 20.475V18.4ZM107.111 14.175H123.011V16.825H117.111C117.378 17.3417 117.728 17.8167 118.161 18.25C118.611 18.6833 119.094 19.075 119.611 19.425C120.128 19.775 120.653 20.0833 121.186 20.35C121.719 20.6 122.219 20.8083 122.686 20.975V23.275C121.786 23.1583 120.936 22.95 120.136 22.65C119.353 22.35 118.628 21.9917 117.961 21.575C117.311 21.1583 116.728 20.7 116.211 20.2C115.694 19.7 115.278 19.2 114.961 18.7C114.678 19.2833 114.228 19.8417 113.611 20.375C112.994 20.9083 112.311 21.3917 111.561 21.825C110.811 22.2583 110.044 22.6333 109.261 22.95C108.478 23.25 107.786 23.475 107.186 23.625V21.075C107.953 20.775 108.644 20.4417 109.261 20.075C109.878 19.6917 110.419 19.3083 110.886 18.925C111.353 18.525 111.736 18.1417 112.036 17.775C112.336 17.4083 112.544 17.0917 112.661 16.825H107.111V14.175ZM124.586 27.75H116.486V34.75H113.086V27.75H105.436V24.65H124.586V27.75ZM133.54 18.325C133.524 18.575 133.507 18.95 133.49 19.45C133.49 19.9333 133.515 20.4833 133.565 21.1C133.632 21.7167 133.732 22.3667 133.865 23.05C134.015 23.7167 134.232 24.3583 134.515 24.975C134.815 25.575 135.199 26.125 135.665 26.625C136.132 27.1083 136.715 27.4667 137.415 27.7V30.625C136.615 30.475 135.857 30.2 135.14 29.8C134.524 29.4667 133.899 29 133.265 28.4C132.632 27.8 132.132 27 131.765 26C131.615 26.4667 131.415 26.8917 131.165 27.275C130.932 27.6583 130.665 28 130.365 28.3C130.065 28.6 129.749 28.8667 129.415 29.1C129.099 29.3333 128.782 29.5333 128.465 29.7C127.715 30.1167 126.924 30.425 126.09 30.625V27.7C126.774 27.4667 127.349 27.1083 127.815 26.625C128.299 26.125 128.682 25.575 128.965 24.975C129.265 24.3583 129.49 23.7167 129.64 23.05C129.79 22.3667 129.899 21.7167 129.965 21.1C130.032 20.4833 130.057 19.9333 130.04 19.45C130.04 18.95 130.032 18.575 130.015 18.325H125.84V15.65H137.715V18.325H133.54ZM138.89 13.75H141.565V34.8H138.89V24.4H136.065V20.85H138.89V13.75ZM146.04 13.75V34.8H143.04V13.75H146.04Z" fill="#5F333B"/>
</svg>
