<svg width="30" height="33" viewBox="0 0 30 33" fill="none" xmlns="http://www.w3.org/2000/svg">
<path d="M11.5385 31.8215V23.5602C11.5385 22.9828 12.1154 22.3935 12.6923 22.3935H17.3077C17.8846 22.3935 18.4615 22.9828 18.4615 23.572V31.8215C18.4615 32.1341 18.5831 32.4338 18.7995 32.6548C19.0159 32.8758 19.3094 33 19.6154 33H28.8462C29.1522 33 29.4457 32.8758 29.662 32.6548C29.8784 32.4338 30 32.1341 30 31.8215V15.3226C30.0003 15.1677 29.9707 15.0143 29.9128 14.8711C29.855 14.728 29.7702 14.5978 29.6631 14.4882L26.5385 11.2992V3.5376C26.5385 3.22504 26.4169 2.92528 26.2005 2.70427C25.9841 2.48326 25.6906 2.3591 25.3846 2.3591H23.0769C22.7709 2.3591 22.4774 2.48326 22.261 2.70427C22.0446 2.92528 21.9231 3.22504 21.9231 3.5376V6.58519L15.8169 0.346228C15.7097 0.236478 15.5824 0.149404 15.4422 0.0899929C15.302 0.0305815 15.1518 0 15 0C14.8482 0 14.698 0.0305815 14.5578 0.0899929C14.4176 0.149404 14.2903 0.236478 14.1831 0.346228L0.336925 14.4882C0.229844 14.5978 0.144971 14.728 0.0871596 14.8711C0.029348 15.0143 -0.000268961 15.1677 1.84037e-06 15.3226V31.8215C1.84037e-06 32.1341 0.121567 32.4338 0.337955 32.6548C0.554344 32.8758 0.847829 33 1.15385 33H10.3846C10.6906 33 10.9841 32.8758 11.2005 32.6548C11.4169 32.4338 11.5385 32.1341 11.5385 31.8215Z" fill="#FFE607"/>
</svg>
