<svg width="150" height="49" viewBox="0 0 150 49" fill="none" xmlns="http://www.w3.org/2000/svg">
<rect x="0.5" y="0.5" width="149" height="48" rx="8.5" fill="#F9E746"/>
<rect x="0.5" y="0.5" width="149" height="48" rx="8.5" stroke="black"/>
<path d="M122.406 38.5831V15.4205L135.594 27.0018L122.406 38.5831ZM123.992 40.4015L137.177 28.8201C137.436 28.5935 137.643 28.314 137.785 28.0003C137.927 27.6867 138 27.3463 138 27.0018C138 26.6574 137.927 26.3169 137.785 26.0033C137.643 25.6896 137.436 25.4101 137.177 25.1835L123.994 13.6021C122.433 12.2354 120 13.3462 120 15.4205V38.5831C120 39.0474 120.133 39.5019 120.383 39.8922C120.633 40.2826 120.99 40.5922 121.412 40.7841C121.833 40.976 122.3 41.0419 122.758 40.9741C123.215 40.9062 123.644 40.7074 123.992 40.4015Z" fill="#5F333B"/>
<path d="M34.11 35.22V30.39C35.19 31.09 36.38 31.7 37.68 32.22C39 32.74 40.44 33 42 33C42.54 33 43.06 32.97 43.56 32.91C44.08 32.83 44.54 32.72 44.94 32.58C45.36 32.42 45.7 32.21 45.96 31.95C46.24 31.69 46.41 31.36 46.47 30.96C46.53 30.48 46.41 30.07 46.11 29.73C45.83 29.37 45.48 29.07 45.06 28.83C44.64 28.59 44.2 28.4 43.74 28.26C43.28 28.1 42.9 27.99 42.6 27.93C41.04 27.53 39.77 27.18 38.79 26.88C37.83 26.56 37.21 26.32 36.93 26.16C35.07 25.12 34.14 23.64 34.14 21.72C34.14 20.7 34.38 19.81 34.86 19.05C35.36 18.29 36 17.66 36.78 17.16C37.56 16.64 38.43 16.26 39.39 16.02C40.35 15.76 41.3 15.63 42.24 15.63C43.56 15.63 44.84 15.81 46.08 16.17C47.32 16.51 48.47 17.05 49.53 17.79V21.99C49.11 21.63 48.64 21.29 48.12 20.97C47.62 20.63 47.09 20.34 46.53 20.1C45.97 19.86 45.39 19.68 44.79 19.56C44.19 19.42 43.6 19.38 43.02 19.44C42.04 19.54 41.26 19.76 40.68 20.1C40.1 20.42 39.81 20.96 39.81 21.72C39.81 22.1 39.98 22.44 40.32 22.74C40.66 23.04 41.06 23.31 41.52 23.55C42 23.77 42.47 23.96 42.93 24.12C43.41 24.28 43.79 24.4 44.07 24.48C45.09 24.78 46.03 25.08 46.89 25.38C47.75 25.68 48.49 26.07 49.11 26.55C49.73 27.01 50.2 27.61 50.52 28.35C50.86 29.07 51.01 30 50.97 31.14C50.93 32.28 50.62 33.25 50.04 34.05C49.48 34.85 48.77 35.5 47.91 36C47.05 36.52 46.11 36.9 45.09 37.14C44.07 37.38 43.1 37.5 42.18 37.5C40.84 37.5 39.45 37.3 38.01 36.9C36.57 36.5 35.27 35.94 34.11 35.22ZM63.6223 22.95V25.92H60.4123V37.5H56.0023V25.92H52.8223V22.95H56.0023V16.53H60.4123V22.95H63.6223ZM77.4905 31.86C77.4905 32.72 77.6505 33.68 77.9705 34.74C78.3105 35.8 78.8005 36.84 79.4405 37.86H75.9005L75.0905 36.12C74.7305 36.56 74.3105 36.89 73.8305 37.11C73.3705 37.35 72.9005 37.47 72.4205 37.47H68.8505C68.4305 37.47 67.9905 37.39 67.5305 37.23C67.0905 37.07 66.6905 36.82 66.3305 36.48C65.9705 36.16 65.6705 35.74 65.4305 35.22C65.1905 34.7 65.0705 34.08 65.0705 33.36V27.93C65.0705 27.35 65.1705 26.81 65.3705 26.31C65.5705 25.79 65.8505 25.34 66.2105 24.96C66.5905 24.56 67.0405 24.25 67.5605 24.03C68.1005 23.81 68.7105 23.7 69.3905 23.7H71.0105C71.1505 23.7 71.3405 23.72 71.5805 23.76C71.8205 23.78 72.0705 23.84 72.3305 23.94C72.5905 24.02 72.8405 24.14 73.0805 24.3C73.3405 24.44 73.5705 24.63 73.7705 24.87V23.19H77.4905V31.86ZM73.1705 28.77C73.1705 28.31 73.1005 27.92 72.9605 27.6C72.8205 27.28 72.6405 27.03 72.4205 26.85C72.2005 26.65 71.9605 26.51 71.7005 26.43C71.4405 26.33 71.1905 26.28 70.9505 26.28H70.1405C69.6605 26.28 69.2505 26.48 68.9105 26.88C68.5705 27.26 68.4005 27.69 68.4005 28.17V32.97C68.4005 33.13 68.4105 33.33 68.4305 33.57C68.4705 33.79 68.5505 34 68.6705 34.2C68.7905 34.4 68.9605 34.57 69.1805 34.71C69.4205 34.85 69.7405 34.92 70.1405 34.92H71.1305C71.7305 34.92 72.2205 34.78 72.6005 34.5C72.9805 34.2 73.1705 33.69 73.1705 32.97V28.77ZM92.6466 23.16V26.97C92.2266 26.97 91.7366 26.99 91.1766 27.03C90.6166 27.07 90.0166 27.16 89.3766 27.3C88.7366 27.42 88.0866 27.61 87.4266 27.87C86.7666 28.13 86.1266 28.49 85.5066 28.95V37.5H81.3966V23.22H85.5066V25.23C85.8066 25.01 86.1766 24.78 86.6166 24.54C87.0566 24.3 87.5666 24.09 88.1466 23.91C88.7466 23.71 89.4166 23.54 90.1566 23.4C90.9166 23.26 91.7466 23.18 92.6466 23.16ZM105.077 22.95V25.92H101.867V37.5H97.4573V25.92H94.2773V22.95H97.4573V16.53H101.867V22.95H105.077Z" fill="#5F333B"/>
</svg>
