<svg width="117" height="41" viewBox="0 0 117 41" fill="none" xmlns="http://www.w3.org/2000/svg">
<rect width="117" height="41" rx="8" fill="#75414B"/>
<path d="M91.6041 28.3833V12.6658L100.396 20.5245L91.6041 28.3833ZM92.6611 29.6172L101.451 21.7584C101.624 21.6046 101.762 21.4149 101.856 21.2021C101.951 20.9893 102 20.7583 102 20.5245C102 20.2908 101.951 20.0598 101.856 19.847C101.762 19.6341 101.624 19.4445 101.451 19.2907L92.6628 11.4319C91.6217 10.5045 90 11.2582 90 12.6658V28.3833C89.9997 28.6983 90.0884 29.0067 90.2553 29.2716C90.4222 29.5365 90.6603 29.7466 90.9411 29.8768C91.2219 30.007 91.5335 30.0518 91.8385 30.0057C92.1436 29.9597 92.4292 29.8248 92.6611 29.6172Z" fill="#FFE607"/>
<path d="M42.4566 25.6633C42.89 26.1799 43.3066 26.6716 43.7066 27.1383C44.1233 27.6216 44.5316 28.0299 44.9316 28.3633H41.1566C41.0733 28.2966 40.9816 28.2133 40.8816 28.1133C40.7983 28.0299 40.6983 27.9299 40.5816 27.8133C40.465 27.6966 40.3316 27.5549 40.1816 27.3883C39.9983 27.5549 39.7816 27.6966 39.5316 27.8133C39.2816 27.9466 39.015 28.0466 38.7316 28.1133C38.465 28.1966 38.19 28.2549 37.9066 28.2883C37.6233 28.3383 37.365 28.3633 37.1316 28.3633H34.1816C33.615 28.3633 33.0066 28.2633 32.3566 28.0633C31.7066 27.8799 31.0983 27.5716 30.5316 27.1383C29.9816 26.7049 29.5233 26.1466 29.1566 25.4633C28.79 24.7799 28.6066 23.9466 28.6066 22.9633V15.4133C28.6066 14.6133 28.7316 13.8716 28.9816 13.1883C29.2483 12.4883 29.64 11.8883 30.1566 11.3883C30.69 10.8716 31.3483 10.4633 32.1316 10.1633C32.9316 9.86328 33.8566 9.71328 34.9066 9.71328H37.5316C38.2983 9.71328 39.04 9.83828 39.7566 10.0883C40.4733 10.3383 41.1066 10.7049 41.6566 11.1883C42.2233 11.6716 42.6733 12.2716 43.0066 12.9883C43.34 13.6883 43.5066 14.4966 43.5066 15.4133V22.9383C43.5066 23.3049 43.4733 23.6299 43.4066 23.9133C43.34 24.1799 43.2483 24.4216 43.1316 24.6383C43.0316 24.8549 42.915 25.0466 42.7816 25.2133C42.665 25.3799 42.5566 25.5299 42.4566 25.6633ZM36.4066 25.2133C36.74 25.2133 37.0566 25.1966 37.3566 25.1633C37.6566 25.1133 37.9566 25.0466 38.2566 24.9633C37.8066 24.5633 37.44 24.1549 37.1566 23.7383C36.8733 23.3049 36.6483 22.8883 36.4816 22.4883C36.3316 22.0716 36.2233 21.6799 36.1566 21.3133C36.1066 20.9466 36.0816 20.6216 36.0816 20.3383H39.2316C39.2316 20.8716 39.34 21.4133 39.5566 21.9633C39.7733 22.4966 40.0733 22.9383 40.4566 23.2883C40.49 23.1883 40.5316 23.0716 40.5816 22.9383C40.6316 22.7883 40.6566 22.6633 40.6566 22.5633V16.1633C40.6566 15.2633 40.365 14.5466 39.7816 14.0133C39.1983 13.4633 38.39 13.1883 37.3566 13.1883H35.1816C34.2816 13.1883 33.59 13.4383 33.1066 13.9383C32.6233 14.4383 32.3816 15.0133 32.3816 15.6633V22.3133C32.3816 22.6633 32.415 23.0133 32.4816 23.3633C32.5483 23.7133 32.6733 24.0299 32.8566 24.3133C33.04 24.5799 33.2983 24.7966 33.6316 24.9633C33.965 25.1299 34.3983 25.2133 34.9316 25.2133H36.4066ZM53.4168 16.4633H57.3418V28.3633H53.7668V27.3133C53.3501 27.7466 52.9168 28.0299 52.4668 28.1633C52.0168 28.2966 51.6085 28.3633 51.2418 28.3633H50.2168C49.6668 28.3633 49.1335 28.2883 48.6168 28.1383C48.1168 28.0049 47.6751 27.7633 47.2918 27.4133C46.9251 27.0799 46.6251 26.6299 46.3918 26.0633C46.1751 25.4799 46.0668 24.7466 46.0668 23.8633V16.4633H49.1168V23.1133C49.1168 23.9633 49.2251 24.5799 49.4418 24.9633C49.6751 25.3466 50.1001 25.5383 50.7168 25.5383H51.7168C52.2335 25.5383 52.6418 25.3549 52.9418 24.9883C53.2585 24.6049 53.4168 24.0466 53.4168 23.3133V16.4633ZM59.9248 14.2133V11.2633H62.9498V14.2133H59.9248ZM59.9248 28.3633V16.4883H62.9498V28.3633H59.9248ZM71.2719 25.0633H77.5969V28.3633H65.4469L71.6219 18.6383H65.6719V16.4633H77.5219L71.2719 25.0633Z" fill="#FFE607"/>
</svg>
