<svg width="122" height="89" viewBox="0 0 122 89" fill="none" xmlns="http://www.w3.org/2000/svg">
<path d="M14.9579 67.2807C16.7089 70.7828 18.5925 74.0424 22.624 74.7563C23.8478 78.4606 24.5536 80.0797 29.9281 81.9565C34.4931 83.5506 38.9169 84.7191 43.5732 85.8831C48.9268 87.2215 56.6592 86.4463 61.4884 83.8707C71.3025 78.6366 85.6847 80.5801 96.6808 80.0914C105.798 79.6862 109.451 70.2489 114.891 64.4339C118.133 60.9683 115.602 56.1397 118.179 52.7031C120.964 48.9898 121.054 44.1702 118.425 40.3833C116.141 37.0949 115.098 32.2565 112.829 29.3397C110.173 25.9249 107.682 22.7881 105.81 18.8359C104.25 15.5417 96.4756 12.2544 93.2941 11.2281C83.8918 8.1951 74.8947 4.30418 64.9242 2.49135C59.1765 1.44631 52.5961 2.39319 46.7636 2.39319C44.3883 2.39319 41.5867 1.94722 39.303 2.58952C28.7246 5.56468 17.3113 13.2051 11.0312 22.2227C7.9029 26.7146 2 32.7361 2 38.6163C2 40.2636 2.72923 41.4912 2.88349 43.0338C3.42783 48.4772 6.05543 55.7907 11.5712 57.1697C13.1368 57.5611 14.0556 65.4761 14.9579 67.2807Z" fill="#FAE392"/>
<path d="M23.2038 74.8395C18.769 74.3467 16.7908 70.9466 14.9579 67.2807C14.0556 65.4761 13.1368 57.5611 11.5712 57.1697C6.05543 55.7907 3.42783 48.4772 2.88349 43.0338C2.72923 41.4912 2 40.2636 2 38.6163C2 32.7361 7.9029 26.7146 11.0312 22.2227C17.3113 13.2051 28.7246 5.56468 39.303 2.58952C41.5867 1.94722 44.3883 2.39319 46.7636 2.39319C52.5961 2.39319 59.1765 1.44631 64.9242 2.49135C74.8947 4.30418 83.8918 8.1951 93.2941 11.2281C96.4756 12.2544 104.25 15.5417 105.81 18.8359C107.682 22.7881 110.173 25.9249 112.829 29.3397C115.098 32.2565 116.141 37.0949 118.425 40.3833C121.054 44.1702 120.964 48.9898 118.179 52.7031C115.602 56.1397 118.133 60.9683 114.891 64.4339C109.451 70.2489 105.798 79.6862 96.6808 80.0914C85.6847 80.5801 71.3025 78.6366 61.4884 83.8707C56.6592 86.4463 48.9268 87.2215 43.5732 85.8831C38.9169 84.7191 34.4931 83.5506 29.9281 81.9565C23.1211 79.5794 23.8032 77.6158 21.4368 71.3055" stroke="black" stroke-width="3" stroke-linecap="round"/>
<path d="M38.9946 37.6046C42.7227 35.7406 44.8399 35.7528 48.713 36.7211" stroke="black" stroke-width="3" stroke-linecap="round"/>
<path d="M72.5671 34.0706C72.9176 31.2668 82.017 31.7947 84.0525 32.3036" stroke="black" stroke-width="3" stroke-linecap="round"/>
<path d="M52.2468 48.2065C53.0748 50.2765 54.9189 52.5266 57.3514 52.6239C59.3723 52.7048 60.4535 49.5819 61.9652 50.1698C66.8463 52.068 65.4606 48.5138 69.0332 47.323" stroke="black" stroke-width="3" stroke-linecap="round"/>
<path d="M59.3148 52.624C59.3148 53.9699 58.7024 57.2271 59.4621 58.3667C60.2667 59.5735 64.3479 60.487 65.4502 59.2011C68.5841 55.5449 67.2922 55.3263 65.4993 51.7405" stroke="black" stroke-width="3" stroke-linecap="round"/>
</svg>
