<svg width="69" height="50" viewBox="0 0 69 50" fill="none" xmlns="http://www.w3.org/2000/svg">
<path d="M9.51075 37.6991C10.465 39.6077 11.4916 41.3841 13.6886 41.7731C14.3556 43.7919 14.7402 44.6743 17.6692 45.6971C20.1571 46.5659 22.5679 47.2026 25.1055 47.837C28.0231 48.5664 32.2371 48.144 34.8689 46.7403C40.2174 43.8878 48.0554 44.947 54.0481 44.6806C59.0165 44.4598 61.0074 39.3167 63.972 36.1477C65.7389 34.259 64.3596 31.6275 65.7642 29.7546C67.282 27.7309 67.3311 25.1043 65.898 23.0406C64.6534 21.2484 64.0849 18.6116 62.8486 17.022C61.4011 15.161 60.0437 13.4515 59.0234 11.2977C58.173 9.50241 53.9362 7.71086 52.2024 7.15156C47.0783 5.49864 42.1751 3.37817 36.7414 2.39021C33.609 1.82069 30.0228 2.33672 26.8442 2.33672C25.5497 2.33672 24.0229 2.09367 22.7783 2.44371C17.0134 4.06511 10.7933 8.22901 7.37082 13.1434C5.66593 15.5914 2.44897 18.873 2.44897 22.0776C2.44897 22.9753 2.84639 23.6444 2.93046 24.485C3.22711 27.4515 4.6591 31.4373 7.66506 32.1888C8.51829 32.4021 9.01901 36.7156 9.51075 37.6991Z" fill="#F3D054"/>
<path d="M14.0046 41.8185C11.5877 41.5499 10.5097 39.6969 9.51075 37.6991C9.01901 36.7156 8.51829 32.4021 7.66506 32.1888C4.6591 31.4373 3.22711 27.4515 2.93046 24.485C2.84639 23.6444 2.44897 22.9753 2.44897 22.0776C2.44897 18.873 5.66593 15.5914 7.37082 13.1434C10.7933 8.22901 17.0134 4.06511 22.7783 2.44371C24.0229 2.09367 25.5497 2.33672 26.8442 2.33672C30.0228 2.33672 33.609 1.82069 36.7414 2.39021C42.1751 3.37817 47.0783 5.49864 52.2024 7.15156C53.9362 7.71086 58.173 9.50241 59.0234 11.2977C60.0437 13.4515 61.4011 15.161 62.8486 17.022C64.0849 18.6116 64.6534 21.2484 65.898 23.0406C67.3311 25.1043 67.282 27.7309 65.7642 29.7546C64.3596 31.6275 65.7389 34.259 63.972 36.1477C61.0074 39.3167 59.0165 44.4598 54.0481 44.6806C48.0554 44.947 40.2174 43.8878 34.869 46.7403C32.2371 48.144 28.0231 48.5664 25.1055 47.837C22.5679 47.2026 20.1571 46.5659 17.6692 45.6971C13.9596 44.4017 14.3313 43.3315 13.0416 39.8925" stroke="black" stroke-width="3" stroke-linecap="round"/>
<path d="M20.9751 19.8914C23.0068 18.8755 24.1606 18.8822 26.2714 19.4099" stroke="black" stroke-width="3" stroke-linecap="round"/>
<path d="M39.2717 17.9654C39.4627 16.4374 44.4217 16.7251 45.531 17.0024" stroke="black" stroke-width="3" stroke-linecap="round"/>
<path d="M28.1975 25.6691C28.6487 26.7972 29.6538 28.0235 30.9794 28.0765C32.0808 28.1206 32.67 26.4187 33.4938 26.7391C36.1539 27.7735 35.3988 25.8366 37.3457 25.1876" stroke="black" stroke-width="3" stroke-linecap="round"/>
<path d="M32.0495 28.0765C32.0495 28.8099 31.7157 30.5851 32.1298 31.2061C32.5682 31.8638 34.7924 32.3617 35.3932 31.6608C37.101 29.6683 36.397 29.5492 35.4199 27.595" stroke="black" stroke-width="3" stroke-linecap="round"/>
</svg>
