<svg width="33" height="33" viewBox="0 0 33 33" fill="none" xmlns="http://www.w3.org/2000/svg">
<path fill-rule="evenodd" clip-rule="evenodd" d="M12.375 2.0625H24.75V16.5C24.75 16.6825 24.7017 16.8617 24.6098 17.0193C24.518 17.177 24.3859 17.3075 24.2272 17.3974C24.0685 17.4874 23.8887 17.5336 23.7062 17.5314C23.5238 17.5292 23.3452 17.4786 23.1887 17.3848L18.5625 14.6087L13.9363 17.3869C13.7797 17.4808 13.6009 17.5313 13.4182 17.5335C13.2356 17.5356 13.0557 17.4892 12.8969 17.399C12.7381 17.3088 12.6061 17.178 12.5144 17.0201C12.4227 16.8621 12.3746 16.6826 12.375 16.5V2.0625Z" fill="#FFE607"/>
<path d="M6.1875 0H26.8125C27.9065 0 28.9557 0.434597 29.7293 1.20818C30.5029 1.98177 30.9375 3.03098 30.9375 4.125V28.875C30.9375 29.969 30.5029 31.0182 29.7293 31.7918C28.9557 32.5654 27.9065 33 26.8125 33H6.1875C5.09348 33 4.04427 32.5654 3.27068 31.7918C2.4971 31.0182 2.0625 29.969 2.0625 28.875V26.8125H4.125V28.875C4.125 29.422 4.3423 29.9466 4.72909 30.3334C5.11589 30.7202 5.64049 30.9375 6.1875 30.9375H26.8125C27.3595 30.9375 27.8841 30.7202 28.2709 30.3334C28.6577 29.9466 28.875 29.422 28.875 28.875V4.125C28.875 3.57799 28.6577 3.05339 28.2709 2.66659C27.8841 2.2798 27.3595 2.0625 26.8125 2.0625H6.1875C5.64049 2.0625 5.11589 2.2798 4.72909 2.66659C4.3423 3.05339 4.125 3.57799 4.125 4.125V6.1875H2.0625V4.125C2.0625 3.03098 2.4971 1.98177 3.27068 1.20818C4.04427 0.434597 5.09348 0 6.1875 0Z" fill="#FFE607"/>
<path d="M2.0625 10.3125V9.28125C2.0625 9.00775 2.17115 8.74544 2.36455 8.55205C2.55794 8.35865 2.82025 8.25 3.09375 8.25C3.36725 8.25 3.62956 8.35865 3.82295 8.55205C4.01635 8.74544 4.125 9.00775 4.125 9.28125V10.3125H5.15625C5.42975 10.3125 5.69206 10.4211 5.88545 10.6145C6.07885 10.8079 6.1875 11.0702 6.1875 11.3438C6.1875 11.6173 6.07885 11.8796 5.88545 12.073C5.69206 12.2664 5.42975 12.375 5.15625 12.375H1.03125C0.757746 12.375 0.495443 12.2664 0.302046 12.073C0.108649 11.8796 0 11.6173 0 11.3438C0 11.0702 0.108649 10.8079 0.302046 10.6145C0.495443 10.4211 0.757746 10.3125 1.03125 10.3125H2.0625ZM2.0625 16.5V15.4688C2.0625 15.1952 2.17115 14.9329 2.36455 14.7395C2.55794 14.5461 2.82025 14.4375 3.09375 14.4375C3.36725 14.4375 3.62956 14.5461 3.82295 14.7395C4.01635 14.9329 4.125 15.1952 4.125 15.4688V16.5H5.15625C5.42975 16.5 5.69206 16.6086 5.88545 16.802C6.07885 16.9954 6.1875 17.2577 6.1875 17.5312C6.1875 17.8048 6.07885 18.0671 5.88545 18.2605C5.69206 18.4539 5.42975 18.5625 5.15625 18.5625H1.03125C0.757746 18.5625 0.495443 18.4539 0.302046 18.2605C0.108649 18.0671 0 17.8048 0 17.5312C0 17.2577 0.108649 16.9954 0.302046 16.802C0.495443 16.6086 0.757746 16.5 1.03125 16.5H2.0625ZM2.0625 22.6875V21.6562C2.0625 21.3827 2.17115 21.1204 2.36455 20.927C2.55794 20.7336 2.82025 20.625 3.09375 20.625C3.36725 20.625 3.62956 20.7336 3.82295 20.927C4.01635 21.1204 4.125 21.3827 4.125 21.6562V22.6875H5.15625C5.42975 22.6875 5.69206 22.7961 5.88545 22.9895C6.07885 23.1829 6.1875 23.4452 6.1875 23.7188C6.1875 23.9923 6.07885 24.2546 5.88545 24.448C5.69206 24.6414 5.42975 24.75 5.15625 24.75H1.03125C0.757746 24.75 0.495443 24.6414 0.302046 24.448C0.108649 24.2546 0 23.9923 0 23.7188C0 23.4452 0.108649 23.1829 0.302046 22.9895C0.495443 22.7961 0.757746 22.6875 1.03125 22.6875H2.0625Z" fill="#FFE607"/>
<path d="M10 3C10 1.89543 10.8954 1 12 1H13C14.1046 1 15 1.89543 15 3V8.92243C15 9.84756 15.6345 10.652 16.5342 10.8674L17.4806 11.0941C19.1878 11.503 19.5777 13.7557 18.1071 14.7145L13.0923 17.984C11.7619 18.8513 10 17.8967 10 16.3086V3Z" fill="#FFE607"/>
<path d="M25 2C25 0.895431 24.1046 0 23 0H22C20.8954 0 20 0.895431 20 2V8.44163C20 9.35789 19.3774 10.157 18.4889 10.3809L17.2941 10.6822C15.6247 11.103 15.2318 13.2963 16.6513 14.2705L21.8683 17.8508C23.1955 18.7616 25 17.8114 25 16.2018V2Z" fill="#FFE607"/>
</svg>
