<svg width="68" height="50" viewBox="0 0 68 50" fill="none" xmlns="http://www.w3.org/2000/svg">
<path d="M8.7046 37.5053C9.65888 39.4138 10.6854 41.1902 12.8825 41.5793C13.5494 43.5981 13.9341 44.4804 16.8631 45.5033C19.3509 46.372 21.7618 47.0088 24.2994 47.6432C27.217 48.3726 31.431 47.9501 34.0628 46.5465C39.4113 43.694 47.2493 44.7531 53.242 44.4868C58.2104 44.266 60.2013 39.1229 63.1659 35.9538C64.9327 34.0651 63.5534 31.4336 64.9581 29.5608C66.4759 27.5371 66.525 24.9105 65.0918 22.8467C63.8473 21.0546 63.2788 18.4178 62.0424 16.8282C60.595 14.9671 59.2375 13.2577 58.2173 11.1038C57.3669 9.30856 53.1301 7.51701 51.3963 6.95772C46.2722 5.30479 41.369 3.18432 35.9352 2.19637C32.8029 1.62684 29.2167 2.14287 26.0381 2.14287C24.7436 2.14287 23.2168 1.89983 21.9722 2.24986C16.2072 3.87127 9.98717 8.03516 6.56467 12.9495C4.85978 15.3976 1.64282 18.6791 1.64282 21.8837C1.64282 22.7815 2.04024 23.4505 2.12431 24.2912C2.42096 27.2577 3.85295 31.2434 6.85891 31.9949C7.71214 32.2082 8.21286 36.5218 8.7046 37.5053Z" fill="#F89119"/>
<path d="M13.1985 41.6246C10.7816 41.3561 9.7035 39.5031 8.7046 37.5053C8.21286 36.5218 7.71214 32.2082 6.85891 31.9949C3.85295 31.2434 2.42096 27.2577 2.12431 24.2912C2.04024 23.4505 1.64282 22.7815 1.64282 21.8837C1.64282 18.6791 4.85978 15.3976 6.56467 12.9495C9.98717 8.03516 16.2072 3.87127 21.9722 2.24986C23.2168 1.89983 24.7436 2.14287 26.0381 2.14287C29.2167 2.14287 32.8029 1.62684 35.9352 2.19637C41.369 3.18432 46.2722 5.30479 51.3963 6.95772C53.1301 7.51701 57.3669 9.30856 58.2173 11.1038C59.2375 13.2577 60.595 14.9671 62.0424 16.8282C63.2788 18.4178 63.8473 21.0546 65.0918 22.8467C66.525 24.9105 66.4759 27.5371 64.9581 29.5608C63.5534 31.4336 64.9327 34.0651 63.1659 35.9538C60.2013 39.1229 58.2104 44.266 53.242 44.4868C47.2493 44.7531 39.4113 43.694 34.0628 46.5465C31.431 47.9501 27.217 48.3726 24.2994 47.6432C21.7618 47.0088 19.3509 46.372 16.8631 45.5033C13.1534 44.2078 13.5251 43.1377 12.2355 39.6987" stroke="black" stroke-width="3" stroke-linecap="round"/>
<path d="M20.1692 19.6974C22.2009 18.6815 23.3547 18.6882 25.4655 19.2159" stroke="black" stroke-width="3" stroke-linecap="round"/>
<path d="M38.4656 17.7714C38.6566 16.2434 43.6155 16.5311 44.7249 16.8085" stroke="black" stroke-width="3" stroke-linecap="round"/>
<path d="M27.3914 25.4753C27.8426 26.6034 28.8476 27.8297 30.1733 27.8827C31.2746 27.9267 31.8638 26.2248 32.6877 26.5452C35.3478 27.5797 34.5926 25.6428 36.5396 24.9938" stroke="black" stroke-width="3" stroke-linecap="round"/>
<path d="M31.2434 27.8826C31.2434 28.6161 30.9096 30.3912 31.3236 31.0123C31.7621 31.67 33.9863 32.1678 34.587 31.467C36.2949 29.4744 35.5908 29.3553 34.6137 27.4011" stroke="black" stroke-width="3" stroke-linecap="round"/>
<path d="M4.88079 21.2274C4.78477 22.1876 4.55265 22.5536 4.88079 23.5381" stroke="#100F0F" stroke-linecap="round"/>
<path d="M7.76904 27.8704C10.7692 27.8704 9.19317 31.7595 11.235 32.7805" stroke="#100F0F" stroke-linecap="round"/>
<path d="M23.9434 42.0231C25.1365 42.0231 25.2225 42.4176 26.1898 43.05C26.7429 43.4116 27.9309 43.1784 28.5646 43.1784" stroke="#100F0F" stroke-linecap="round"/>
<path d="M52.2488 39.7125C52.355 37.9071 53.9886 38.5572 55.1371 38.5572" stroke="#100F0F" stroke-linecap="round"/>
<path d="M58.3142 20.9386C57.2224 21.0751 58.965 23.9607 59.1646 24.2601C59.497 24.7586 59.2464 25.8293 59.8867 25.8487C61.1652 25.8874 60.9137 26.4719 60.9137 27.5817" stroke="#100F0F" stroke-linecap="round"/>
<path d="M14.7009 11.4072C14.8214 10.4434 16.618 8.88703 17.3004 10.2519" stroke="#100F0F" stroke-linecap="round"/>
<path d="M40.1182 7.36365C40.8482 7.36365 41.4486 7.65248 42.14 7.65248" stroke="#100F0F" stroke-linecap="round"/>
<path d="M42.4287 7.65247C42.7864 8.01012 43.1705 8.24329 43.584 8.51895" stroke="#100F0F" stroke-linecap="round"/>
</svg>
