<svg width="43" height="49" viewBox="0 0 43 49" fill="none" xmlns="http://www.w3.org/2000/svg">
<path d="M28.9273 22.8778H30.4273V21.3778V9.16193C30.4273 7.03894 29.3997 5.07829 27.7047 3.6844C26.018 2.29732 23.7831 1.55398 21.5001 1.55398C19.217 1.55398 16.9821 2.29732 15.2954 3.6844C13.6005 5.07829 12.5728 7.03894 12.5728 9.16193V21.3778V22.8778H14.0728H28.9273ZM31.141 21.3778V22.8778H32.641C34.2976 22.8778 35.841 23.4215 36.9401 24.3254C38.0309 25.2224 38.5682 26.3689 38.5682 27.4858V42.7557C38.5682 43.8726 38.0309 45.0191 36.9401 45.9161C35.841 46.82 34.2976 47.3636 32.641 47.3636H10.3592C8.70255 47.3636 7.15912 46.82 6.06004 45.9161C4.96924 45.0191 4.43188 43.8726 4.43188 42.7557V27.4858C4.43188 26.3689 4.96924 25.2224 6.06004 24.3254C7.15912 23.4215 8.70255 22.8778 10.3592 22.8778H11.8592V21.3778V9.16193C11.8592 7.2351 12.7878 5.31179 14.575 3.84202C16.3705 2.36544 18.8585 1.5 21.5001 1.5C24.1416 1.5 26.6296 2.36544 28.4251 3.84202C30.2124 5.31179 31.141 7.2351 31.141 9.16193V21.3778Z" fill="#B8AFAF" stroke="black" stroke-width="3"/>
<rect x="1.5" y="17.1361" width="40" height="30.2273" rx="8.5" fill="#B8AFAF" stroke="black" stroke-width="3"/>
<circle cx="21.4997" cy="28.3405" r="3.90909" fill="black"/>
<rect x="20.5222" y="30.2949" width="1.95455" height="9.77273" fill="black"/>
</svg>
