<svg width="32" height="27" viewBox="0 0 32 27" fill="none" xmlns="http://www.w3.org/2000/svg">
<path d="M16 1.82788C14.03 0.082683 11.174 -0.176932 8.574 0.0909249C5.546 0.406172 2.49 1.47554 0.586 2.36771C0.411298 2.44957 0.263151 2.58149 0.159242 2.74773C0.0553334 2.91396 5.31428e-05 3.10749 0 3.30521L0 25.9701C4.6324e-05 26.1424 0.0420743 26.312 0.122234 26.4633C0.202394 26.6147 0.318123 26.7428 0.458822 26.8361C0.59952 26.9294 0.760689 26.9848 0.927567 26.9973C1.09444 27.0098 1.2617 26.9789 1.414 26.9076C3.178 26.0834 6.02 25.0923 8.774 24.8059C11.592 24.5133 13.954 24.9852 15.22 26.6129C15.3137 26.7332 15.4324 26.8304 15.5674 26.8971C15.7024 26.9638 15.8503 26.9985 16 26.9985C16.1497 26.9985 16.2976 26.9638 16.4326 26.8971C16.5676 26.8304 16.6863 26.7332 16.78 26.6129C18.046 24.9852 20.408 24.5133 23.224 24.8059C25.98 25.0923 28.824 26.0834 30.586 26.9076C30.7383 26.9789 30.9056 27.0098 31.0724 26.9973C31.2393 26.9848 31.4005 26.9294 31.5412 26.8361C31.6819 26.7428 31.7976 26.6147 31.8778 26.4633C31.9579 26.312 32 26.1424 32 25.9701V3.30521C31.9999 3.10749 31.9447 2.91396 31.8408 2.74773C31.7368 2.58149 31.5887 2.44957 31.414 2.36771C29.51 1.47554 26.454 0.406172 23.426 0.0909249C20.826 -0.178993 17.97 0.082683 16 1.82788Z" fill="#FFE607"/>
</svg>
