<svg width="123" height="79" viewBox="0 0 123 79" fill="none" xmlns="http://www.w3.org/2000/svg">
<path d="M123 59.5C123 70.2696 95.4655 79 61.5 79C27.5345 79 0 70.2696 0 59.5C0 48.7304 27.5345 40 61.5 40C95.4655 40 123 48.7304 123 59.5Z" fill="#CCFCB5"/>
<path d="M123 59.5C123 70.2696 95.4655 79 61.5 79C27.5345 79 0 70.2696 0 59.5C0 48.7304 27.5345 40 61.5 40C95.4655 40 123 48.7304 123 59.5Z" stroke="black"/>
<path d="M10 60.9619C10.1973 62.9348 14.6381 66.6281 16.4762 66.825C17.8006 66.9669 18.7242 68.1562 20.0784 68.2046C21.5404 68.2568 22.978 68.9535 24.2937 69.5075C26.4884 70.4316 29.3597 70.2765 31.6513 71.0403C32.9277 71.4658 33.6669 71.9432 35.1001 71.9983C35.8308 72.0264 37.2236 72.2613 37.9359 72.5157C39.3504 73.0208 40.8857 73.7228 42.4003 73.7228C43.7889 73.7228 44.9075 73.6581 46.194 74.221C47.2061 74.6637 48.9073 74.6368 50.0261 74.7766C51.7454 74.9915 53.3598 75.1023 55.1036 75.1023C58.5272 75.1023 61.9274 75.4472 65.4502 75.4472C68.5555 75.4472 71.5883 75.1023 74.6472 75.1023C80.2114 75.1023 85.3499 72.1971 90.8569 71.6726C93.5407 71.417 96.2918 70.5036 98.981 69.7566C101.301 69.1121 103.721 68.4801 105.802 67.1699C106.642 66.6412 107.734 66.59 108.638 66.0586C109.4 65.6104 110.092 64.9141 110.86 64.4875C113.042 63.2756 113.163 61.9354 113.792 59.7357C115.064 55.2853 108.765 53.438 105.879 51.9949" stroke="#737272" stroke-linecap="round"/>
<path d="M10.796 55.9928C10.796 54.5499 14.9283 52.5396 16.3318 52.0556C18.3162 51.3713 20.1676 50.5947 22.2524 50.1314C23.1634 49.929 24.3605 50.0834 25.1979 49.717C25.8131 49.4478 26.8181 48.9259 27.433 48.8141C28.7709 48.5708 30.2318 48 31.5774 48" stroke="#737272" stroke-linecap="round"/>
<rect x="13" y="8" width="99" height="20" rx="10" fill="#F5E19A"/>
<path d="M35.7155 20.32C35.6555 20.35 35.5755 20.365 35.4755 20.365C35.3855 20.365 35.3005 20.315 35.2205 20.215L34.9055 19.87C34.8655 19.83 34.8855 19.785 34.9655 19.735C34.9855 19.725 35.0005 19.715 35.0105 19.705C35.7105 19.435 36.3655 19.1 36.9755 18.7C37.5955 18.29 38.1205 17.835 38.5505 17.335C38.9805 16.835 39.2755 16.305 39.4355 15.745C39.1055 15.755 38.8105 15.765 38.5505 15.775C38.3005 15.785 38.1355 15.795 38.0555 15.805C37.8955 15.815 37.6605 15.83 37.3505 15.85C37.0505 15.87 36.7455 15.89 36.4355 15.91C36.1355 15.92 35.9005 15.935 35.7305 15.955C35.6205 15.975 35.5505 15.965 35.5205 15.925C35.4905 15.885 35.4605 15.835 35.4305 15.775C35.4305 15.765 35.4305 15.76 35.4305 15.76C35.3905 15.65 35.3605 15.555 35.3405 15.475C35.3205 15.395 35.2905 15.27 35.2505 15.1C35.2405 15.08 35.2455 15.055 35.2655 15.025C35.2855 14.995 35.3205 14.985 35.3705 14.995C35.6505 15.015 36.0405 15.03 36.5405 15.04C37.0505 15.05 37.6255 15.055 38.2655 15.055C38.9055 15.045 39.5555 15.025 40.2155 14.995C40.8855 14.955 41.5255 14.91 42.1355 14.86C42.7455 14.8 43.2705 14.73 43.7105 14.65C43.7405 14.64 43.7755 14.645 43.8155 14.665C43.8555 14.675 43.8805 14.705 43.8905 14.755C43.9005 14.815 43.9105 14.89 43.9205 14.98C43.9405 15.06 43.9555 15.14 43.9655 15.22L43.9955 15.505C44.0155 15.615 43.9555 15.67 43.8155 15.67L41.9105 15.685C41.7505 15.685 41.5505 15.685 41.3105 15.685C41.0705 15.685 40.8105 15.69 40.5305 15.7C40.4605 15.93 40.3755 16.155 40.2755 16.375C40.1755 16.595 40.0655 16.805 39.9455 17.005C40.7755 17.315 41.5505 17.615 42.2705 17.905C42.9905 18.185 43.6055 18.47 44.1155 18.76C44.2855 18.84 44.3455 18.955 44.2955 19.105C44.1855 19.365 44.0355 19.615 43.8455 19.855C43.7855 19.925 43.7255 19.93 43.6655 19.87C43.3755 19.62 42.9905 19.35 42.5105 19.06C42.0405 18.76 41.5405 18.475 41.0105 18.205C40.4905 17.935 40.0055 17.715 39.5555 17.545C39.0455 18.205 38.4505 18.76 37.7705 19.21C37.0905 19.66 36.4055 20.03 35.7155 20.32ZM34.0655 23.635C33.9555 23.645 33.8805 23.635 33.8405 23.605C33.8005 23.575 33.7705 23.53 33.7505 23.47C33.7105 23.36 33.6755 23.25 33.6455 23.14C33.6155 23.02 33.5805 22.875 33.5405 22.705C33.5305 22.685 33.5355 22.66 33.5555 22.63C33.5755 22.59 33.6105 22.575 33.6605 22.585C34.0405 22.635 34.5555 22.67 35.2055 22.69C35.8655 22.7 36.5905 22.705 37.3805 22.705C37.6905 22.705 38.0055 22.705 38.3255 22.705C38.6555 22.705 38.9805 22.7 39.3005 22.69V21.775C39.3005 21.385 39.2855 21.045 39.2555 20.755C39.2255 20.465 39.1905 20.27 39.1505 20.17C39.1105 20.07 39.1455 20.02 39.2555 20.02H40.1555C40.2155 20.02 40.2455 20.06 40.2455 20.14C40.2455 20.15 40.2455 20.16 40.2455 20.17C40.2255 20.43 40.2105 20.68 40.2005 20.92C40.2005 21.16 40.1955 21.41 40.1855 21.67L40.1555 22.675C40.9355 22.655 41.6805 22.63 42.3905 22.6C43.1105 22.56 43.7505 22.515 44.3105 22.465C44.8805 22.415 45.3255 22.365 45.6455 22.315C45.7455 22.295 45.8105 22.3 45.8405 22.33C45.8705 22.36 45.8905 22.4 45.9005 22.45L45.9905 23.17C45.9905 23.22 45.9755 23.265 45.9455 23.305C45.9155 23.345 45.8355 23.365 45.7055 23.365C45.3655 23.355 44.9705 23.35 44.5205 23.35C44.0705 23.35 43.5905 23.35 43.0805 23.35C41.8305 23.35 40.6205 23.365 39.4505 23.395C38.2805 23.415 37.2305 23.445 36.3005 23.485C35.3705 23.525 34.6255 23.575 34.0655 23.635ZM39.1805 13.705C39.0305 13.685 38.8205 13.665 38.5505 13.645C38.2905 13.615 38.0255 13.575 37.7555 13.525C37.4955 13.465 37.2855 13.39 37.1255 13.3C37.0855 13.27 37.0755 13.2 37.0955 13.09C37.1155 12.98 37.1505 12.875 37.2005 12.775C37.2505 12.665 37.3005 12.62 37.3505 12.64C37.8305 12.73 38.3555 12.79 38.9255 12.82C39.5055 12.84 40.0605 12.84 40.5905 12.82C41.1205 12.8 41.5455 12.77 41.8655 12.73C41.9455 12.72 41.9955 12.725 42.0155 12.745C42.0355 12.755 42.0505 12.785 42.0605 12.835C42.0605 12.845 42.0605 12.87 42.0605 12.91C42.0605 13.01 42.0555 13.135 42.0455 13.285C42.0455 13.425 42.0155 13.505 41.9555 13.525C41.9055 13.545 41.7805 13.57 41.5805 13.6C41.3805 13.62 41.1405 13.645 40.8605 13.675C40.5805 13.695 40.2905 13.71 39.9905 13.72C39.7005 13.73 39.4305 13.725 39.1805 13.705ZM47.6463 20.635C47.5363 20.645 47.4613 20.635 47.4213 20.605C47.3813 20.575 47.3513 20.53 47.3313 20.47C47.2913 20.36 47.2563 20.25 47.2263 20.14C47.1963 20.03 47.1613 19.89 47.1213 19.72C47.1113 19.7 47.1163 19.675 47.1363 19.645C47.1563 19.605 47.1913 19.59 47.2413 19.6C47.6213 19.65 48.1413 19.69 48.8013 19.72C49.4613 19.74 50.1863 19.745 50.9763 19.735C51.3263 19.735 51.6913 19.735 52.0713 19.735C52.4513 19.725 52.8363 19.715 53.2263 19.705L53.1813 17.89C52.7213 17.9 52.2713 17.91 51.8313 17.92C51.4013 17.93 50.9863 17.94 50.5863 17.95C50.2963 17.94 50.1113 17.835 50.0313 17.635C49.9613 17.435 49.9263 17.19 49.9263 16.9V16.15C49.9263 15.99 49.9113 15.81 49.8813 15.61C49.8613 15.4 49.8213 15.215 49.7613 15.055C49.7413 15.025 49.7463 14.985 49.7763 14.935C49.8063 14.875 49.8563 14.855 49.9263 14.875C50.0363 14.895 50.2763 14.915 50.6463 14.935C51.0163 14.945 51.4563 14.95 51.9663 14.95C52.4763 14.94 52.9963 14.93 53.5263 14.92C54.0663 14.91 54.5613 14.895 55.0113 14.875C55.4613 14.845 55.8063 14.81 56.0463 14.77L56.1063 13.465C56.1063 13.355 56.0563 13.3 55.9563 13.3C55.7263 13.3 55.4313 13.305 55.0713 13.315C54.7213 13.315 54.3463 13.32 53.9463 13.33C53.5463 13.34 53.1613 13.35 52.7913 13.36C52.4313 13.37 52.1213 13.38 51.8613 13.39C51.6313 13.4 51.3563 13.415 51.0363 13.435C50.7163 13.445 50.4463 13.46 50.2263 13.48C50.0763 13.49 49.9863 13.435 49.9563 13.315L49.7913 12.745C49.7813 12.725 49.7863 12.7 49.8063 12.67C49.8263 12.64 49.8613 12.63 49.9113 12.64C50.0813 12.65 50.3413 12.66 50.6913 12.67C51.0513 12.68 51.4613 12.685 51.9213 12.685C52.3913 12.685 52.8763 12.68 53.3763 12.67C53.8863 12.66 54.3713 12.64 54.8313 12.61C55.3013 12.58 55.7063 12.54 56.0463 12.49C56.0663 12.49 56.0863 12.485 56.1063 12.475C56.1763 12.465 56.2313 12.465 56.2713 12.475L57.1113 12.64C57.1913 12.65 57.2213 12.695 57.2013 12.775L57.0813 13.555C57.0413 13.915 57.0063 14.21 56.9763 14.44C56.9563 14.66 56.9363 14.925 56.9163 15.235C56.9063 15.345 56.8763 15.42 56.8263 15.46C56.7763 15.49 56.7263 15.505 56.6763 15.505C56.3363 15.505 55.9213 15.51 55.4313 15.52C54.9413 15.53 54.4213 15.54 53.8713 15.55C53.3213 15.56 52.7813 15.575 52.2513 15.595C51.7313 15.605 51.2713 15.615 50.8713 15.625V16.795C50.8713 16.965 50.8863 17.075 50.9163 17.125C50.9563 17.175 51.0263 17.2 51.1263 17.2C52.4163 17.25 53.7063 17.235 54.9963 17.155C55.4163 17.135 55.8113 17.11 56.1813 17.08C56.5513 17.05 56.9013 17.005 57.2313 16.945C57.3313 16.925 57.3963 16.93 57.4263 16.96C57.4563 16.99 57.4763 17.03 57.4863 17.08C57.5063 17.16 57.5163 17.25 57.5163 17.35C57.5263 17.44 57.5363 17.54 57.5463 17.65C57.5463 17.73 57.5263 17.785 57.4863 17.815C57.4563 17.835 57.3863 17.845 57.2763 17.845C56.7863 17.845 56.2763 17.85 55.7463 17.86C55.2263 17.86 54.7013 17.865 54.1713 17.875L54.1263 19.675C54.9063 19.655 55.6613 19.63 56.3913 19.6C57.1313 19.56 57.7863 19.52 58.3563 19.48C58.9363 19.43 59.3763 19.38 59.6763 19.33C59.7763 19.31 59.8413 19.315 59.8713 19.345C59.9013 19.375 59.9213 19.415 59.9313 19.465L60.0213 20.125C60.0313 20.265 59.9363 20.33 59.7363 20.32C59.4263 20.3 59.0063 20.29 58.4763 20.29C57.9563 20.29 57.3913 20.295 56.7813 20.305C56.2413 20.305 55.6863 20.315 55.1163 20.335C54.5563 20.345 54.0263 20.355 53.5263 20.365C53.0363 20.375 52.6113 20.385 52.2513 20.395C51.2413 20.425 50.3313 20.46 49.5213 20.5C48.7113 20.54 48.0863 20.585 47.6463 20.635ZM56.4963 26.2C56.4563 26.2 56.4363 26.175 56.4363 26.125V22.735C56.4363 22.625 56.3763 22.57 56.2563 22.57C56.0363 22.57 55.7113 22.575 55.2813 22.585C54.8613 22.595 54.4113 22.61 53.9313 22.63C53.4613 22.65 53.0163 22.67 52.5963 22.69C52.1863 22.7 51.8763 22.71 51.6663 22.72C51.4163 22.74 51.1413 22.76 50.8413 22.78C50.5513 22.79 50.2813 22.805 50.0313 22.825C49.9213 22.835 49.8513 22.82 49.8213 22.78C49.7913 22.74 49.7663 22.69 49.7463 22.63L49.5963 22C49.5863 21.98 49.5913 21.955 49.6113 21.925C49.6313 21.895 49.6663 21.885 49.7163 21.895C49.8563 21.915 50.0913 21.93 50.4213 21.94C50.7513 21.95 51.1363 21.955 51.5763 21.955C52.0163 21.955 52.4763 21.95 52.9563 21.94C53.4363 21.93 53.9013 21.915 54.3513 21.895C54.8113 21.875 55.2163 21.85 55.5663 21.82C55.9163 21.79 56.1763 21.755 56.3463 21.715C56.3563 21.715 56.3713 21.71 56.3913 21.7C56.4113 21.7 56.4313 21.7 56.4513 21.7C56.4713 21.69 56.5063 21.69 56.5563 21.7C56.6863 21.72 56.8213 21.74 56.9613 21.76C57.1013 21.78 57.2413 21.805 57.3813 21.835C57.4413 21.845 57.4713 21.89 57.4713 21.97C57.4513 22.26 57.4313 22.555 57.4113 22.855C57.4013 23.145 57.3963 23.41 57.3963 23.65L57.3813 25.9C57.3813 25.99 57.3663 26.05 57.3363 26.08C57.3063 26.11 57.2513 26.135 57.1713 26.155C57.1213 26.155 57.0063 26.16 56.8263 26.17C56.6563 26.19 56.5463 26.2 56.4963 26.2ZM69.4643 25.9C69.4443 25.9 69.4193 25.895 69.3893 25.885C69.3593 25.875 69.3443 25.845 69.3443 25.795C69.3443 25.755 69.3443 25.695 69.3443 25.615C69.3443 25.545 69.3443 25.465 69.3443 25.375C69.3443 25.105 69.3443 24.765 69.3443 24.355C69.3443 23.945 69.3443 23.54 69.3443 23.14C69.3443 22.74 69.3393 22.405 69.3293 22.135C69.3193 21.875 69.2993 21.62 69.2693 21.37C69.2393 21.12 69.2093 20.945 69.1793 20.845C69.1493 20.745 69.1843 20.695 69.2843 20.695L70.2443 20.71C70.2943 20.71 70.3193 20.745 70.3193 20.815C70.3093 21.045 70.2993 21.29 70.2893 21.55C70.2893 21.8 70.2893 22.065 70.2893 22.345C70.4693 22.355 70.7293 22.36 71.0693 22.36C71.4093 22.36 71.7843 22.36 72.1943 22.36C72.6043 22.36 73.0193 22.355 73.4393 22.345C73.8593 22.335 74.2443 22.325 74.5943 22.315C74.9543 22.295 75.2393 22.28 75.4493 22.27V21.85C75.4493 21.51 75.4393 21.25 75.4193 21.07C75.4093 20.88 75.3843 20.74 75.3443 20.65C75.3243 20.6 75.3243 20.565 75.3443 20.545C75.3743 20.515 75.4093 20.5 75.4493 20.5H76.3643C76.4143 20.5 76.4393 20.53 76.4393 20.59C76.4293 20.82 76.4193 21.065 76.4093 21.325C76.4093 21.575 76.4093 21.915 76.4093 22.345V25.645C76.4093 25.775 76.3343 25.84 76.1843 25.84L70.2593 25.855C70.1593 25.855 70.0093 25.86 69.8093 25.87C69.6093 25.89 69.4943 25.9 69.4643 25.9ZM66.1193 20.11L65.7443 19.78C65.7043 19.74 65.7243 19.69 65.8043 19.63C66.5443 19.15 67.1793 18.61 67.7093 18.01C68.2393 17.4 68.6493 16.775 68.9393 16.135C69.2393 15.495 69.3993 14.89 69.4193 14.32C69.2793 14.33 69.1293 14.34 68.9693 14.35C68.8093 14.36 68.6293 14.375 68.4293 14.395C68.1293 14.415 67.8693 14.435 67.6493 14.455C67.4393 14.475 67.1993 14.505 66.9293 14.545C66.8293 14.555 66.7643 14.545 66.7343 14.515C66.7043 14.475 66.6793 14.43 66.6593 14.38C66.6493 14.37 66.6443 14.36 66.6443 14.35C66.6143 14.27 66.5843 14.18 66.5543 14.08C66.5343 13.98 66.5093 13.865 66.4793 13.735C66.4693 13.715 66.4743 13.69 66.4943 13.66C66.5143 13.63 66.5493 13.615 66.5993 13.615C66.8393 13.625 67.1043 13.64 67.3943 13.66C67.6843 13.67 67.9743 13.67 68.2643 13.66C68.7043 13.64 69.1493 13.625 69.5993 13.615C70.0593 13.595 70.5193 13.565 70.9793 13.525C71.3493 13.505 71.6993 13.475 72.0293 13.435C72.3593 13.395 72.6543 13.35 72.9143 13.3C72.9443 13.29 72.9793 13.295 73.0193 13.315C73.0593 13.325 73.0843 13.355 73.0943 13.405C73.1143 13.475 73.1343 13.58 73.1543 13.72C73.1743 13.85 73.1893 13.975 73.1993 14.095C73.1993 14.205 73.1393 14.26 73.0193 14.26C72.9193 14.26 72.8193 14.26 72.7193 14.26C72.6193 14.26 72.5143 14.26 72.4043 14.26C72.1943 14.26 71.9793 14.26 71.7593 14.26C71.5393 14.25 71.3093 14.25 71.0693 14.26C70.9693 14.26 70.8693 14.265 70.7693 14.275C70.6793 14.275 70.5893 14.275 70.4993 14.275C70.4593 14.535 70.3893 14.835 70.2893 15.175C70.1993 15.515 70.0593 15.875 69.8693 16.255C70.2693 16.545 70.6793 16.865 71.0993 17.215C71.5293 17.565 71.9193 17.89 72.2693 18.19C72.6193 18.48 72.8643 18.7 73.0043 18.85C73.0543 18.89 73.0893 18.94 73.1093 19C73.1293 19.06 73.1143 19.125 73.0643 19.195C73.0443 19.225 72.9943 19.28 72.9143 19.36C72.8343 19.44 72.7543 19.52 72.6743 19.6C72.5943 19.67 72.5343 19.72 72.4943 19.75C72.4143 19.8 72.3493 19.795 72.2993 19.735C72.1093 19.465 71.8543 19.15 71.5343 18.79C71.2143 18.43 70.8793 18.075 70.5293 17.725C70.1793 17.375 69.8493 17.085 69.5393 16.855C69.2293 17.385 68.8443 17.925 68.3843 18.475C67.9243 19.025 67.3243 19.565 66.5843 20.095C66.5843 20.095 66.5793 20.1 66.5693 20.11C66.5093 20.14 66.4393 20.17 66.3593 20.2C66.2893 20.22 66.2093 20.19 66.1193 20.11ZM70.2893 25C70.3893 25.01 70.6093 25.015 70.9493 25.015C71.2993 25.025 71.7043 25.03 72.1643 25.03C72.6343 25.03 73.0993 25.025 73.5593 25.015C74.0193 25.015 74.4243 25.01 74.7743 25C75.1243 24.99 75.3493 24.98 75.4493 24.97V23.095C75.1793 23.095 74.8243 23.095 74.3843 23.095C73.9443 23.095 73.4693 23.1 72.9593 23.11C72.4593 23.11 71.9693 23.115 71.4893 23.125C71.0193 23.125 70.6193 23.13 70.2893 23.14V25ZM75.4943 19.675C75.4543 19.675 75.4343 19.65 75.4343 19.6V16.75C75.2543 16.76 75.0793 16.77 74.9093 16.78C74.7393 16.79 74.5793 16.8 74.4293 16.81C74.1893 16.82 73.9143 16.845 73.6043 16.885C73.2943 16.915 73.0193 16.945 72.7793 16.975C72.6693 16.995 72.5943 16.99 72.5543 16.96C72.5143 16.93 72.4843 16.885 72.4643 16.825C72.4243 16.695 72.3893 16.575 72.3593 16.465C72.3393 16.345 72.3193 16.235 72.2993 16.135C72.2993 16.055 72.3393 16.025 72.4193 16.045C72.5793 16.065 72.8293 16.08 73.1693 16.09C73.5193 16.09 73.8993 16.085 74.3093 16.075C74.7193 16.055 75.0943 16.035 75.4343 16.015V14.23C75.4343 13.85 75.4193 13.5 75.3893 13.18C75.3693 12.86 75.3343 12.65 75.2843 12.55C75.2643 12.5 75.2643 12.465 75.2843 12.445C75.3143 12.415 75.3493 12.4 75.3893 12.4C75.4793 12.4 75.6193 12.4 75.8093 12.4C76.0093 12.4 76.1943 12.405 76.3643 12.415C76.4143 12.415 76.4393 12.455 76.4393 12.535C76.4093 12.905 76.3893 13.23 76.3793 13.51C76.3793 13.78 76.3793 14.095 76.3793 14.455V19.3C76.3793 19.45 76.3693 19.54 76.3493 19.57C76.3393 19.6 76.3093 19.62 76.2593 19.63L75.4943 19.675ZM78.7475 21.52L78.3425 21.175C78.3025 21.135 78.3175 21.09 78.3875 21.04C78.3975 21.03 78.4025 21.025 78.4025 21.025C79.0925 20.515 79.7225 19.945 80.2925 19.315C80.8625 18.675 81.3475 18.015 81.7475 17.335C82.1575 16.655 82.4525 15.995 82.6325 15.355C82.7125 15.065 82.7875 14.74 82.8575 14.38C82.9275 14.02 82.9625 13.745 82.9625 13.555C82.9625 13.495 82.9775 13.455 83.0075 13.435C83.0375 13.405 83.0675 13.4 83.0975 13.42L84.1325 13.675C84.1825 13.685 84.2025 13.74 84.1925 13.84C84.1525 13.98 84.0925 14.165 84.0125 14.395C83.9325 14.625 83.8525 14.86 83.7725 15.1C83.6925 15.33 83.6225 15.53 83.5625 15.7C83.4825 15.9 83.3925 16.115 83.2925 16.345C83.1925 16.565 83.0825 16.795 82.9625 17.035C83.4425 17.395 83.9375 17.78 84.4475 18.19C84.9575 18.6 85.4225 18.985 85.8425 19.345C86.2625 19.705 86.5775 20 86.7875 20.23C86.8275 20.28 86.8575 20.34 86.8775 20.41C86.9075 20.47 86.8975 20.535 86.8475 20.605C86.7575 20.715 86.6575 20.815 86.5475 20.905C86.4475 20.995 86.3425 21.085 86.2325 21.175C86.1725 21.225 86.1225 21.215 86.0825 21.145C85.9225 20.905 85.7075 20.63 85.4375 20.32C85.1675 20.01 84.8675 19.69 84.5375 19.36C84.2175 19.03 83.8875 18.715 83.5475 18.415C83.2175 18.115 82.9075 17.855 82.6175 17.635C82.2475 18.255 81.7825 18.9 81.2225 19.57C80.6725 20.23 80.0025 20.875 79.2125 21.505C79.1625 21.545 79.0925 21.58 79.0025 21.61C78.9225 21.64 78.8375 21.61 78.7475 21.52ZM88.3175 25.15C88.2775 25.15 88.2575 25.125 88.2575 25.075V14.245C88.2575 13.865 88.2425 13.515 88.2125 13.195C88.1925 12.865 88.1575 12.65 88.1075 12.55C88.0875 12.5 88.0875 12.465 88.1075 12.445C88.1375 12.415 88.1725 12.4 88.2125 12.4C88.2725 12.4 88.3725 12.405 88.5125 12.415C88.6625 12.415 88.8075 12.42 88.9475 12.43C89.0875 12.43 89.1675 12.43 89.1875 12.43C89.2375 12.43 89.2625 12.47 89.2625 12.55C89.2325 12.92 89.2125 13.245 89.2025 13.525C89.2025 13.795 89.2025 14.11 89.2025 14.47V24.775C89.2025 24.925 89.1925 25.015 89.1725 25.045C89.1625 25.075 89.1325 25.095 89.0825 25.105L88.3175 25.15Z" fill="black"/>
</svg>
