<svg width="123" height="79" viewBox="0 0 123 79" fill="none" xmlns="http://www.w3.org/2000/svg">
<path d="M123 59.5C123 70.2696 95.4655 79 61.5 79C27.5345 79 0 70.2696 0 59.5C0 48.7304 27.5345 40 61.5 40C95.4655 40 123 48.7304 123 59.5Z" fill="#F5F5F5"/>
<path d="M123 59.5C123 70.2696 95.4655 79 61.5 79C27.5345 79 0 70.2696 0 59.5C0 48.7304 27.5345 40 61.5 40C95.4655 40 123 48.7304 123 59.5Z" stroke="black"/>
<path d="M10.0585 59.9919C10.2558 61.9647 14.6965 65.658 16.5347 65.8549C17.8591 65.9968 18.7827 67.1861 20.1368 67.2345C21.5989 67.2867 23.0365 67.9834 24.3521 68.5374C26.5469 69.4615 29.4182 69.3064 31.7097 70.0702C32.9861 70.4957 33.7254 70.9731 35.1586 71.0283C35.8893 71.0564 37.2821 71.2912 37.9944 71.5456C39.4088 72.0508 40.9442 72.7527 42.4587 72.7527C43.8473 72.7527 44.966 72.688 46.2525 73.2509C47.2646 73.6936 48.9658 73.6667 50.0846 73.8065C51.8038 74.0214 53.4183 74.1322 55.1621 74.1322C58.5856 74.1322 61.9858 74.4771 65.5087 74.4771C68.6139 74.4771 71.6468 74.1322 74.7057 74.1322C80.2699 74.1322 85.4083 71.227 90.9154 70.7025C93.5991 70.4469 96.3503 69.5335 99.0394 68.7865C101.36 68.142 103.78 67.51 105.861 66.1998C106.7 65.6711 107.793 65.6199 108.696 65.0885C109.458 64.6403 110.151 63.944 110.919 63.5174C113.1 62.3055 113.222 60.9654 113.85 58.7656C115.122 54.3152 108.823 52.4679 105.937 51.0248" stroke="#B6B0B1" stroke-linecap="round"/>
<path d="M10.8545 55.0227C10.8545 53.5798 14.9868 51.5695 16.3903 51.0855C18.3747 50.4013 20.2261 49.6246 22.3109 49.1613C23.2219 48.9589 24.4189 49.1133 25.2564 48.7469C25.8716 48.4777 26.8765 47.9558 27.4914 47.844C28.8294 47.6007 30.2903 47.0299 31.6359 47.0299" stroke="#B6B0B1" stroke-linecap="round"/>
<rect x="13" y="8" width="99" height="20" rx="10" fill="#F5E19A"/>
<path d="M37.9822 22C37.3422 22.02 36.7972 21.91 36.3472 21.67C35.9072 21.43 35.5722 21.11 35.3422 20.71C35.1122 20.31 34.9972 19.9 34.9972 19.48C34.9972 19.09 35.1072 18.71 35.3272 18.34C35.5572 17.97 35.8922 17.66 36.3322 17.41C36.7822 17.15 37.3372 17.01 37.9972 16.99C38.5672 16.97 39.0722 17.06 39.5122 17.26C39.9622 17.46 40.3172 17.745 40.5772 18.115C40.8372 18.485 40.9572 18.925 40.9372 19.435C40.9272 19.855 40.8072 20.26 40.5772 20.65C40.3572 21.03 40.0272 21.345 39.5872 21.595C39.1572 21.845 38.6222 21.98 37.9822 22ZM43.0972 25.15C43.0572 25.15 43.0372 25.125 43.0372 25.075V14.245C43.0372 13.865 43.0222 13.515 42.9922 13.195C42.9722 12.865 42.9372 12.65 42.8872 12.55C42.8672 12.5 42.8672 12.465 42.8872 12.445C42.9172 12.415 42.9522 12.4 42.9922 12.4C43.0522 12.4 43.1522 12.405 43.2922 12.415C43.4422 12.415 43.5872 12.42 43.7272 12.43C43.8672 12.43 43.9472 12.43 43.9672 12.43C44.0172 12.43 44.0422 12.47 44.0422 12.55C44.0122 12.92 43.9922 13.245 43.9822 13.525C43.9822 13.795 43.9822 14.11 43.9822 14.47V18.205C44.2522 18.205 44.5422 18.195 44.8522 18.175C45.1722 18.145 45.4672 18.115 45.7372 18.085C46.0172 18.045 46.2272 18.005 46.3672 17.965C46.4572 17.955 46.5072 17.985 46.5172 18.055C46.5372 18.185 46.5522 18.315 46.5622 18.445C46.5722 18.575 46.5822 18.705 46.5922 18.835C46.5922 18.945 46.5472 19 46.4572 19C46.3072 18.98 46.0872 18.97 45.7972 18.97C45.5172 18.97 45.2172 18.97 44.8972 18.97C44.5772 18.97 44.2722 18.975 43.9822 18.985V24.775C43.9822 24.925 43.9722 25.015 43.9522 25.045C43.9422 25.075 43.9122 25.095 43.8622 25.105L43.0972 25.15ZM37.9822 21.19C38.4222 21.17 38.7872 21.075 39.0772 20.905C39.3672 20.735 39.5872 20.52 39.7372 20.26C39.8872 19.99 39.9672 19.715 39.9772 19.435C39.9972 19.175 39.9472 18.915 39.8272 18.655C39.7072 18.395 39.5022 18.175 39.2122 17.995C38.9222 17.805 38.5322 17.705 38.0422 17.695C37.5722 17.695 37.1772 17.785 36.8572 17.965C36.5472 18.135 36.3172 18.355 36.1672 18.625C36.0172 18.885 35.9422 19.16 35.9422 19.45C35.9422 19.94 36.1222 20.36 36.4822 20.71C36.8422 21.05 37.3422 21.21 37.9822 21.19ZM34.1572 16.33C34.0572 16.34 33.9922 16.33 33.9622 16.3C33.9322 16.26 33.9072 16.215 33.8872 16.165C33.8772 16.155 33.8722 16.145 33.8722 16.135C33.8322 16.025 33.8022 15.925 33.7822 15.835C33.7622 15.745 33.7322 15.615 33.6922 15.445C33.6822 15.425 33.6872 15.4 33.7072 15.37C33.7272 15.34 33.7622 15.33 33.8122 15.34C34.0922 15.37 34.4122 15.395 34.7722 15.415C35.1422 15.435 35.5672 15.44 36.0472 15.43C36.5572 15.42 37.1072 15.41 37.6972 15.4C38.2972 15.38 38.8722 15.35 39.4222 15.31C39.8622 15.28 40.2772 15.24 40.6672 15.19C41.0572 15.14 41.4122 15.09 41.7322 15.04C41.7622 15.03 41.7972 15.035 41.8372 15.055C41.8772 15.065 41.9022 15.095 41.9122 15.145C41.9422 15.345 41.9622 15.5 41.9722 15.61C41.9822 15.72 41.9872 15.81 41.9872 15.88C42.0072 15.99 41.9472 16.045 41.8072 16.045C41.6172 16.035 41.3872 16.03 41.1172 16.03C40.8472 16.03 40.6122 16.03 40.4122 16.03C40.1922 16.03 39.8722 16.035 39.4522 16.045C39.0322 16.055 38.5772 16.07 38.0872 16.09C37.6072 16.1 37.1572 16.115 36.7372 16.135C36.3172 16.155 36.0022 16.175 35.7922 16.195L34.1572 16.33ZM37.5022 14.05C37.3522 14.03 37.1422 14.005 36.8722 13.975C36.6122 13.945 36.3522 13.9 36.0922 13.84C35.8422 13.78 35.6472 13.695 35.5072 13.585C35.4672 13.555 35.4572 13.495 35.4772 13.405C35.4972 13.305 35.5322 13.21 35.5822 13.12C35.6322 13.03 35.6822 12.995 35.7322 13.015C36.2122 13.105 36.7222 13.16 37.2622 13.18C37.8022 13.2 38.3172 13.2 38.8072 13.18C39.3072 13.16 39.7172 13.14 40.0372 13.12C40.1172 13.11 40.1672 13.115 40.1872 13.135C40.2072 13.145 40.2222 13.175 40.2322 13.225C40.2322 13.235 40.2322 13.26 40.2322 13.3C40.2322 13.4 40.2272 13.52 40.2172 13.66C40.2172 13.8 40.1872 13.88 40.1272 13.9C40.0672 13.92 39.8872 13.95 39.5872 13.99C39.2972 14.02 38.9572 14.045 38.5672 14.065C38.1872 14.075 37.8322 14.07 37.5022 14.05ZM51.1287 19.585C50.5587 19.595 50.0287 19.48 49.5387 19.24C49.0587 19 48.6737 18.66 48.3837 18.22C48.0937 17.78 47.9487 17.27 47.9487 16.69C47.9487 16.13 48.0937 15.63 48.3837 15.19C48.6737 14.74 49.0587 14.38 49.5387 14.11C50.0287 13.83 50.5637 13.685 51.1437 13.675C51.7237 13.655 52.2537 13.76 52.7337 13.99C53.2137 14.22 53.5987 14.555 53.8887 14.995C54.1787 15.425 54.3237 15.95 54.3237 16.57C54.3237 17.13 54.1737 17.635 53.8737 18.085C53.5837 18.535 53.1987 18.895 52.7187 19.165C52.2387 19.425 51.7087 19.565 51.1287 19.585ZM51.1437 18.805C51.7637 18.785 52.2787 18.575 52.6887 18.175C53.1087 17.775 53.3187 17.24 53.3187 16.57C53.3187 15.84 53.1087 15.3 52.6887 14.95C52.2787 14.6 51.7587 14.435 51.1287 14.455C50.4987 14.495 49.9737 14.71 49.5537 15.1C49.1337 15.49 48.9237 16.015 48.9237 16.675C48.9237 17.375 49.1337 17.91 49.5537 18.28C49.9837 18.65 50.5137 18.825 51.1437 18.805ZM56.8287 22.225C56.7887 22.225 56.7687 22.2 56.7687 22.15V14.23C56.7687 13.85 56.7537 13.5 56.7237 13.18C56.7037 12.86 56.6687 12.65 56.6187 12.55C56.5987 12.5 56.5987 12.465 56.6187 12.445C56.6487 12.415 56.6837 12.4 56.7237 12.4C56.8637 12.4 57.0287 12.4 57.2187 12.4C57.4087 12.4 57.5687 12.405 57.6987 12.415C57.7487 12.415 57.7737 12.455 57.7737 12.535C57.7437 12.905 57.7237 13.23 57.7137 13.51C57.7137 13.78 57.7137 14.095 57.7137 14.455V14.95C57.9837 14.93 58.2637 14.91 58.5537 14.89C58.8537 14.86 59.1287 14.83 59.3787 14.8C59.6287 14.77 59.8137 14.74 59.9337 14.71C60.0237 14.7 60.0737 14.73 60.0837 14.8C60.1037 14.91 60.1187 15.03 60.1287 15.16C60.1387 15.28 60.1437 15.405 60.1437 15.535C60.1437 15.645 60.0987 15.7 60.0087 15.7C59.9687 15.7 59.9137 15.7 59.8437 15.7C59.7837 15.7 59.7187 15.7 59.6487 15.7C59.3987 15.69 59.0937 15.685 58.7337 15.685C58.3837 15.685 58.0437 15.695 57.7137 15.715V18.16C57.9837 18.16 58.2687 18.15 58.5687 18.13C58.8687 18.11 59.1437 18.085 59.3937 18.055C59.6437 18.025 59.8287 18 59.9487 17.98C60.0387 17.97 60.0887 18 60.0987 18.07C60.1187 18.2 60.1337 18.325 60.1437 18.445C60.1537 18.565 60.1637 18.69 60.1737 18.82C60.1737 18.93 60.1287 18.985 60.0387 18.985C59.9087 18.985 59.7137 18.98 59.4537 18.97C59.1937 18.96 58.9087 18.955 58.5987 18.955C58.2887 18.945 57.9937 18.94 57.7137 18.94V21.85C57.7137 22 57.7037 22.09 57.6837 22.12C57.6737 22.15 57.6437 22.17 57.5937 22.18L56.8287 22.225ZM51.9987 25.75C51.6787 25.75 51.4337 25.63 51.2637 25.39C51.1037 25.16 51.0237 24.83 51.0237 24.4V23.065C51.0237 22.715 51.0087 22.425 50.9787 22.195C50.9487 21.965 50.9187 21.8 50.8887 21.7C50.8587 21.6 50.8937 21.55 50.9937 21.55C51.0537 21.55 51.1537 21.555 51.2937 21.565C51.4437 21.565 51.5837 21.57 51.7137 21.58C51.8537 21.59 51.9287 21.595 51.9387 21.595C51.9887 21.595 52.0137 21.645 52.0137 21.745C51.9937 21.975 51.9787 22.18 51.9687 22.36C51.9687 22.53 51.9687 22.745 51.9687 23.005V24.31C51.9687 24.56 51.9987 24.735 52.0587 24.835C52.1287 24.925 52.2387 24.975 52.3887 24.985C52.6687 24.995 53.0087 25 53.4087 25C53.8187 25.01 54.2437 25.01 54.6837 25C55.1337 24.98 55.5587 24.96 55.9587 24.94C56.3787 24.92 56.8137 24.885 57.2637 24.835C57.7137 24.775 58.0587 24.715 58.2987 24.655C58.3987 24.635 58.4637 24.64 58.4937 24.67C58.5237 24.7 58.5437 24.74 58.5537 24.79L58.6737 25.495C58.6737 25.545 58.6587 25.585 58.6287 25.615C58.6087 25.645 58.5287 25.66 58.3887 25.66C57.3987 25.66 56.3787 25.675 55.3287 25.705C54.2787 25.735 53.1687 25.75 51.9987 25.75ZM69.5375 25.9C69.5175 25.9 69.4925 25.895 69.4625 25.885C69.4325 25.875 69.4175 25.845 69.4175 25.795C69.4175 25.755 69.4175 25.695 69.4175 25.615C69.4175 25.545 69.4175 25.465 69.4175 25.375C69.4175 25.105 69.4175 24.765 69.4175 24.355C69.4175 23.945 69.4175 23.54 69.4175 23.14C69.4175 22.74 69.4125 22.405 69.4025 22.135C69.3925 21.875 69.3725 21.62 69.3425 21.37C69.3125 21.12 69.2825 20.945 69.2525 20.845C69.2225 20.745 69.2575 20.695 69.3575 20.695L70.3175 20.71C70.3675 20.71 70.3925 20.745 70.3925 20.815C70.3825 21.045 70.3725 21.29 70.3625 21.55C70.3625 21.8 70.3625 22.065 70.3625 22.345C70.5425 22.355 70.8025 22.36 71.1425 22.36C71.4825 22.36 71.8575 22.36 72.2675 22.36C72.6775 22.36 73.0925 22.355 73.5125 22.345C73.9325 22.335 74.3175 22.325 74.6675 22.315C75.0275 22.295 75.3125 22.28 75.5225 22.27V21.85C75.5225 21.51 75.5125 21.25 75.4925 21.07C75.4825 20.88 75.4575 20.74 75.4175 20.65C75.3975 20.6 75.3975 20.565 75.4175 20.545C75.4475 20.515 75.4825 20.5 75.5225 20.5H76.4375C76.4875 20.5 76.5125 20.53 76.5125 20.59C76.5025 20.82 76.4925 21.065 76.4825 21.325C76.4825 21.575 76.4825 21.915 76.4825 22.345V25.645C76.4825 25.775 76.4075 25.84 76.2575 25.84L70.3325 25.855C70.2325 25.855 70.0825 25.86 69.8825 25.87C69.6825 25.89 69.5675 25.9 69.5375 25.9ZM66.1925 20.11L65.8175 19.78C65.7775 19.74 65.7975 19.69 65.8775 19.63C66.6175 19.15 67.2525 18.61 67.7825 18.01C68.3125 17.4 68.7225 16.775 69.0125 16.135C69.3125 15.495 69.4725 14.89 69.4925 14.32C69.3525 14.33 69.2025 14.34 69.0425 14.35C68.8825 14.36 68.7025 14.375 68.5025 14.395C68.2025 14.415 67.9425 14.435 67.7225 14.455C67.5125 14.475 67.2725 14.505 67.0025 14.545C66.9025 14.555 66.8375 14.545 66.8075 14.515C66.7775 14.475 66.7525 14.43 66.7325 14.38C66.7225 14.37 66.7175 14.36 66.7175 14.35C66.6875 14.27 66.6575 14.18 66.6275 14.08C66.6075 13.98 66.5825 13.865 66.5525 13.735C66.5425 13.715 66.5475 13.69 66.5675 13.66C66.5875 13.63 66.6225 13.615 66.6725 13.615C66.9125 13.625 67.1775 13.64 67.4675 13.66C67.7575 13.67 68.0475 13.67 68.3375 13.66C68.7775 13.64 69.2225 13.625 69.6725 13.615C70.1325 13.595 70.5925 13.565 71.0525 13.525C71.4225 13.505 71.7725 13.475 72.1025 13.435C72.4325 13.395 72.7275 13.35 72.9875 13.3C73.0175 13.29 73.0525 13.295 73.0925 13.315C73.1325 13.325 73.1575 13.355 73.1675 13.405C73.1875 13.475 73.2075 13.58 73.2275 13.72C73.2475 13.85 73.2625 13.975 73.2725 14.095C73.2725 14.205 73.2125 14.26 73.0925 14.26C72.9925 14.26 72.8925 14.26 72.7925 14.26C72.6925 14.26 72.5875 14.26 72.4775 14.26C72.2675 14.26 72.0525 14.26 71.8325 14.26C71.6125 14.25 71.3825 14.25 71.1425 14.26C71.0425 14.26 70.9425 14.265 70.8425 14.275C70.7525 14.275 70.6625 14.275 70.5725 14.275C70.5325 14.535 70.4625 14.835 70.3625 15.175C70.2725 15.515 70.1325 15.875 69.9425 16.255C70.3425 16.545 70.7525 16.865 71.1725 17.215C71.6025 17.565 71.9925 17.89 72.3425 18.19C72.6925 18.48 72.9375 18.7 73.0775 18.85C73.1275 18.89 73.1625 18.94 73.1825 19C73.2025 19.06 73.1875 19.125 73.1375 19.195C73.1175 19.225 73.0675 19.28 72.9875 19.36C72.9075 19.44 72.8275 19.52 72.7475 19.6C72.6675 19.67 72.6075 19.72 72.5675 19.75C72.4875 19.8 72.4225 19.795 72.3725 19.735C72.1825 19.465 71.9275 19.15 71.6075 18.79C71.2875 18.43 70.9525 18.075 70.6025 17.725C70.2525 17.375 69.9225 17.085 69.6125 16.855C69.3025 17.385 68.9175 17.925 68.4575 18.475C67.9975 19.025 67.3975 19.565 66.6575 20.095C66.6575 20.095 66.6525 20.1 66.6425 20.11C66.5825 20.14 66.5125 20.17 66.4325 20.2C66.3625 20.22 66.2825 20.19 66.1925 20.11ZM70.3625 25C70.4625 25.01 70.6825 25.015 71.0225 25.015C71.3725 25.025 71.7775 25.03 72.2375 25.03C72.7075 25.03 73.1725 25.025 73.6325 25.015C74.0925 25.015 74.4975 25.01 74.8475 25C75.1975 24.99 75.4225 24.98 75.5225 24.97V23.095C75.2525 23.095 74.8975 23.095 74.4575 23.095C74.0175 23.095 73.5425 23.1 73.0325 23.11C72.5325 23.11 72.0425 23.115 71.5625 23.125C71.0925 23.125 70.6925 23.13 70.3625 23.14V25ZM75.5675 19.675C75.5275 19.675 75.5075 19.65 75.5075 19.6V16.75C75.3275 16.76 75.1525 16.77 74.9825 16.78C74.8125 16.79 74.6525 16.8 74.5025 16.81C74.2625 16.82 73.9875 16.845 73.6775 16.885C73.3675 16.915 73.0925 16.945 72.8525 16.975C72.7425 16.995 72.6675 16.99 72.6275 16.96C72.5875 16.93 72.5575 16.885 72.5375 16.825C72.4975 16.695 72.4625 16.575 72.4325 16.465C72.4125 16.345 72.3925 16.235 72.3725 16.135C72.3725 16.055 72.4125 16.025 72.4925 16.045C72.6525 16.065 72.9025 16.08 73.2425 16.09C73.5925 16.09 73.9725 16.085 74.3825 16.075C74.7925 16.055 75.1675 16.035 75.5075 16.015V14.23C75.5075 13.85 75.4925 13.5 75.4625 13.18C75.4425 12.86 75.4075 12.65 75.3575 12.55C75.3375 12.5 75.3375 12.465 75.3575 12.445C75.3875 12.415 75.4225 12.4 75.4625 12.4C75.5525 12.4 75.6925 12.4 75.8825 12.4C76.0825 12.4 76.2675 12.405 76.4375 12.415C76.4875 12.415 76.5125 12.455 76.5125 12.535C76.4825 12.905 76.4625 13.23 76.4525 13.51C76.4525 13.78 76.4525 14.095 76.4525 14.455V19.3C76.4525 19.45 76.4425 19.54 76.4225 19.57C76.4125 19.6 76.3825 19.62 76.3325 19.63L75.5675 19.675ZM78.8208 21.52L78.4158 21.175C78.3758 21.135 78.3908 21.09 78.4608 21.04C78.4708 21.03 78.4758 21.025 78.4758 21.025C79.1658 20.515 79.7958 19.945 80.3658 19.315C80.9358 18.675 81.4208 18.015 81.8208 17.335C82.2308 16.655 82.5258 15.995 82.7058 15.355C82.7858 15.065 82.8608 14.74 82.9308 14.38C83.0008 14.02 83.0358 13.745 83.0358 13.555C83.0358 13.495 83.0508 13.455 83.0808 13.435C83.1108 13.405 83.1408 13.4 83.1708 13.42L84.2058 13.675C84.2558 13.685 84.2758 13.74 84.2658 13.84C84.2258 13.98 84.1658 14.165 84.0858 14.395C84.0058 14.625 83.9258 14.86 83.8458 15.1C83.7658 15.33 83.6958 15.53 83.6358 15.7C83.5558 15.9 83.4658 16.115 83.3658 16.345C83.2658 16.565 83.1558 16.795 83.0358 17.035C83.5158 17.395 84.0108 17.78 84.5208 18.19C85.0308 18.6 85.4958 18.985 85.9158 19.345C86.3358 19.705 86.6508 20 86.8608 20.23C86.9008 20.28 86.9308 20.34 86.9508 20.41C86.9808 20.47 86.9708 20.535 86.9208 20.605C86.8308 20.715 86.7308 20.815 86.6208 20.905C86.5208 20.995 86.4158 21.085 86.3058 21.175C86.2458 21.225 86.1958 21.215 86.1558 21.145C85.9958 20.905 85.7808 20.63 85.5108 20.32C85.2408 20.01 84.9408 19.69 84.6108 19.36C84.2908 19.03 83.9608 18.715 83.6208 18.415C83.2908 18.115 82.9808 17.855 82.6908 17.635C82.3208 18.255 81.8558 18.9 81.2958 19.57C80.7458 20.23 80.0758 20.875 79.2858 21.505C79.2358 21.545 79.1658 21.58 79.0758 21.61C78.9958 21.64 78.9108 21.61 78.8208 21.52ZM88.3908 25.15C88.3508 25.15 88.3308 25.125 88.3308 25.075V14.245C88.3308 13.865 88.3158 13.515 88.2858 13.195C88.2658 12.865 88.2308 12.65 88.1808 12.55C88.1608 12.5 88.1608 12.465 88.1808 12.445C88.2108 12.415 88.2458 12.4 88.2858 12.4C88.3458 12.4 88.4458 12.405 88.5858 12.415C88.7358 12.415 88.8808 12.42 89.0208 12.43C89.1608 12.43 89.2408 12.43 89.2608 12.43C89.3108 12.43 89.3358 12.47 89.3358 12.55C89.3058 12.92 89.2858 13.245 89.2758 13.525C89.2758 13.795 89.2758 14.11 89.2758 14.47V24.775C89.2758 24.925 89.2658 25.015 89.2458 25.045C89.2358 25.075 89.2058 25.095 89.1558 25.105L88.3908 25.15Z" fill="black"/>
</svg>
