<svg width="34" height="32" viewBox="0 0 34 32" fill="none" xmlns="http://www.w3.org/2000/svg">
<path d="M6.31119 0.746789C6.5107 0.512623 6.75837 0.324625 7.03716 0.19573C7.31596 0.0668348 7.61925 0.000101802 7.92619 0.000122075H26.0737C26.3806 0.000101802 26.6839 0.0668348 26.9627 0.19573C27.2415 0.324625 27.4892 0.512623 27.6887 0.746789L33.2328 7.24066C33.7278 7.82056 33.9999 8.55908 33.9999 9.32279V9.86679C34.0001 10.9227 33.6715 11.9523 33.0603 12.8117C32.4491 13.671 31.5857 14.3172 30.5907 14.6598C29.5958 15.0025 28.5192 15.0245 27.5112 14.7228C26.5032 14.4211 25.6143 13.8108 24.9687 12.9772C24.4973 13.5869 23.8932 14.0803 23.2026 14.4194C22.5119 14.7585 21.7531 14.9343 20.9843 14.9335C20.2155 14.9343 19.4567 14.7585 18.7661 14.4194C18.0754 14.0803 17.4713 13.5869 16.9999 12.9772C16.5286 13.5869 15.9245 14.0803 15.2338 14.4194C14.5432 14.7585 13.7844 14.9343 13.0156 14.9335C12.2468 14.9343 11.488 14.7585 10.7973 14.4194C10.1067 14.0803 9.50253 13.5869 9.03119 12.9772C8.3856 13.8108 7.49669 14.4211 6.48871 14.7228C5.48072 15.0245 4.40404 15.0025 3.40913 14.6598C2.41422 14.3172 1.55081 13.671 0.939576 12.8117C0.32834 11.9523 -0.000177057 10.9227 -6.10044e-05 9.86679V9.32279C-3.42441e-05 8.55908 0.272059 7.82056 0.767064 7.24066L6.31119 0.746789ZM10.0937 9.86679C10.0937 10.6448 10.4015 11.3909 10.9495 11.941C11.4974 12.4911 12.2406 12.8001 13.0156 12.8001C13.7905 12.8001 14.5337 12.4911 15.0816 11.941C15.6296 11.3909 15.9374 10.6448 15.9374 9.86679C15.9374 9.58389 16.0494 9.31258 16.2486 9.11254C16.4479 8.9125 16.7181 8.80012 16.9999 8.80012C17.2817 8.80012 17.552 8.9125 17.7512 9.11254C17.9505 9.31258 18.0624 9.58389 18.0624 9.86679C18.0624 10.6448 18.3703 11.3909 18.9182 11.941C19.4662 12.4911 20.2094 12.8001 20.9843 12.8001C21.7592 12.8001 22.5024 12.4911 23.0504 11.941C23.5984 11.3909 23.9062 10.6448 23.9062 9.86679C23.9062 9.58389 24.0181 9.31258 24.2174 9.11254C24.4166 8.9125 24.6869 8.80012 24.9687 8.80012C25.2505 8.80012 25.5207 8.9125 25.72 9.11254C25.9192 9.31258 26.0312 9.58389 26.0312 9.86679C26.0312 10.6448 26.339 11.3909 26.887 11.941C27.4349 12.4911 28.1781 12.8001 28.9531 12.8001C29.728 12.8001 30.4712 12.4911 31.0191 11.941C31.5671 11.3909 31.8749 10.6448 31.8749 9.86679V9.32279C31.875 9.06855 31.7845 8.82267 31.6199 8.62946L26.0737 2.13346H7.92619L2.37994 8.62946C2.21535 8.82267 2.12492 9.06855 2.12494 9.32279V9.86679C2.12494 10.6448 2.43278 11.3909 2.98074 11.941C3.52869 12.4911 4.27188 12.8001 5.04681 12.8001C5.82174 12.8001 6.56493 12.4911 7.11289 11.941C7.66085 11.3909 7.96869 10.6448 7.96869 9.86679C7.96869 9.58389 8.08063 9.31258 8.27989 9.11254C8.47915 8.9125 8.7494 8.80012 9.03119 8.80012C9.31298 8.80012 9.58323 8.9125 9.78249 9.11254C9.98175 9.31258 10.0937 9.58389 10.0937 9.86679ZM3.18744 16.0001C3.46923 16.0001 3.73948 16.1125 3.93874 16.3125C4.138 16.5126 4.24994 16.7839 4.24994 17.0668V29.8668H29.7499V17.0668C29.7499 16.7839 29.8619 16.5126 30.0611 16.3125C30.2604 16.1125 30.5306 16.0001 30.8124 16.0001C31.0942 16.0001 31.3645 16.1125 31.5637 16.3125C31.763 16.5126 31.8749 16.7839 31.8749 17.0668V29.8668H32.9374C33.2192 29.8668 33.4895 29.9792 33.6887 30.1792C33.888 30.3792 33.9999 30.6506 33.9999 30.9335C33.9999 31.2164 33.888 31.4877 33.6887 31.6877C33.4895 31.8877 33.2192 32.0001 32.9374 32.0001H1.06244C0.780646 32.0001 0.510395 31.8877 0.311138 31.6877C0.111881 31.4877 -6.10044e-05 31.2164 -6.10044e-05 30.9335C-6.10044e-05 30.6506 0.111881 30.3792 0.311138 30.1792C0.510395 29.9792 0.780646 29.8668 1.06244 29.8668H2.12494V17.0668C2.12494 16.7839 2.23688 16.5126 2.43614 16.3125C2.6354 16.1125 2.90565 16.0001 3.18744 16.0001ZM7.43744 17.0668C7.71923 17.0668 7.98948 17.1792 8.18874 17.3792C8.388 17.5792 8.49994 17.8506 8.49994 18.1335V25.6001H25.4999V18.1335C25.4999 17.8506 25.6119 17.5792 25.8111 17.3792C26.0104 17.1792 26.2806 17.0668 26.5624 17.0668C26.8442 17.0668 27.1145 17.1792 27.3137 17.3792C27.513 17.5792 27.6249 17.8506 27.6249 18.1335V25.6001C27.6249 26.1659 27.4011 26.7085 27.0025 27.1086C26.604 27.5087 26.0635 27.7335 25.4999 27.7335H8.49994C7.93635 27.7335 7.39585 27.5087 6.99734 27.1086C6.59882 26.7085 6.37494 26.1659 6.37494 25.6001V18.1335C6.37494 17.8506 6.48688 17.5792 6.68614 17.3792C6.8854 17.1792 7.15565 17.0668 7.43744 17.0668Z" fill="#FFE607"/>
<path d="M14.3836 5.3945C14.3836 6.10499 14.3836 6.81549 14.3836 7.52598C14.3836 7.60886 14.4393 8.31484 14.302 8.3423C14.0153 8.39964 15.1367 5.77166 15.2544 5.63032C15.5859 5.23203 16.8492 4.17519 16.9958 5.34008C17.1953 6.92379 16.2293 8.51619 14.7827 9.1314C13.7297 9.57922 10.8902 9.81445 11.064 7.95228C11.0825 7.75418 11.2692 7.2181 11.5719 7.26295C12.0333 7.33131 11.8009 8.71517 11.7352 8.95C11.5132 9.74284 10.7469 9.81989 11.1003 10.637C11.3269 11.1612 11.4869 12.2715 11.6263 11.4352C11.8029 10.3757 12.4733 11.4342 12.6603 11.8252C13.2393 13.0358 14.3415 11.822 14.9823 11.1813C15.5394 10.6241 15.6319 10.6189 14.7283 10.6189C14.3314 10.6189 12.9215 10.3451 12.7692 10.9545C12.6692 11.3545 12.821 12.9343 11.8621 12.3241C11.4042 12.0327 11.6082 11.0906 11.6082 10.6189" stroke="#FFE607" stroke-width="2" stroke-linecap="round"/>
<path d="M20.4244 8.65962C18.1133 8.58507 15.3932 8.32657 13.3678 7.15398C12.6431 6.73443 11.8602 6.25632 11.3814 5.54856C11.2437 5.34496 11.0754 4.3369 10.9914 4.26967C10.4984 3.87531 8.11714 5.00779 7.68987 5.39437C7.15216 5.88087 6.41626 7.01782 6.81007 7.76168C7.08621 8.28328 8.50522 8.39233 8.30664 8.91359C7.94549 9.86161 6.16175 9.72318 6.05725 10.8727C5.92348 12.3442 4.1569 12.6823 3.11852 11.9612C1.53637 10.8624 3.53822 9.56397 4.36113 8.67776C4.67721 8.33737 6.39849 8.07609 5.07767 8.94987C4.28641 9.47332 4.10059 9.96566 3.8532 10.8727C3.53165 12.0518 3.91702 12.0112 4.9779 11.7616C5.55524 11.6258 7.4094 10.7743 7.54475 10.1653C7.7275 9.34292 6.43165 11.4576 5.73072 11.9249" stroke="#FFE607" stroke-width="2" stroke-linecap="round"/>
<path d="M25.812 7.68018C26.9038 7.68018 27.5838 7.9356 28.2247 8.82301C28.6052 9.34986 28.8264 10.4189 28.4242 10.9999C27.8721 11.7973 26.4117 10.0196 26.1749 9.67561C25.8012 9.13288 25.812 8.62555 25.812 8.0067" stroke="#FFE607" stroke-width="2" stroke-linecap="round"/>
<path d="M27.7712 8.82312C27.7417 9.08844 26.2371 12.0479 27.4537 11.7437C28.1696 11.5647 28.4364 10.586 28.4242 9.96596C28.407 9.08698 26.5717 7.05748 26.4742 8.56915C26.4066 9.61557 26.3909 11.9251 27.8619 11.9251C28.5642 11.9251 29.5856 11.9113 30.2201 11.5623C30.5587 11.3761 31.2873 10.6642 31.1906 10.229C31.1576 10.0802 30.8686 9.89187 30.7915 9.71199C30.6347 9.34592 30.6084 9.03025 30.5104 8.65986C30.3665 8.11631 30.1911 7.84354 29.6487 7.84354C28.8534 7.84354 30.0818 10.7983 30.5829 10.492C30.917 10.2879 32.2828 9.06379 31.4537 8.65986C30.5537 8.2214 29.0541 7.84354 28.0342 7.84354C27.1254 7.84354 26.2216 7.49396 25.3222 7.51702C24.573 7.53623 23.8226 8.12304 23.1454 8.38775C22.8319 8.51031 21.8225 8.62073 21.7395 9.07708C21.6555 9.53913 22.4888 11.1088 21.9663 11.1088C20.8687 11.1088 20.8037 11.0513 20.0978 10.1655C19.6263 9.5738 19.3696 8.90876 19.0276 8.24263C18.7826 7.76551 18.5895 9.26675 18.5559 9.44896C18.2811 10.941 18.9777 12.694 20.8507 12.4058C21.61 12.289 22.3649 11.6896 22.964 11.2539C23.5236 10.8469 24.6334 10.2915 24.9594 9.63943C25.2437 9.07093 25.2129 8.53874 24.3971 8.68707C23.6521 8.82252 22.8768 9.28907 22.2565 9.71199C22.1783 9.76536 21.5829 10.4557 21.8937 10.4557C22.1402 10.4557 22.2881 10.0229 22.3472 9.83897C22.5065 9.34354 22.1996 9.18102 21.7668 9.05894C20.1637 8.60681 18.5154 8.32839 16.8779 8.03402C16.4766 7.96186 15.2723 8.04897 14.9097 7.80726C14.4048 7.47067 13.9187 7.40745 13.5129 7.99774C13.0678 8.64523 14.0001 8.76814 14.4199 8.8594C15.0914 9.00536 17.1478 9.14964 16.4607 9.14964C14.4581 9.14964 12.1222 9.50943 10.1751 9.02266C9.12634 8.76047 7.9208 8.55417 6.83729 8.678C6.23791 8.7465 5.96507 10.613 5.65817 10.4376C5.30898 10.2381 5.33012 9.03848 5.36792 8.74149C5.48219 7.84368 5.99318 7.29577 6.67402 6.77326C7.04664 6.4873 7.26202 6.54792 7.16381 7.06351C6.97242 8.06834 6.12724 8.91639 5.43141 9.61222C5.0649 9.97873 4.50134 10.2078 3.97112 10.1292C3.24314 10.0214 3.11853 8.46831 3.11853 7.90703C3.11853 6.52955 3.87018 5.81099 5.07768 5.26762C6.09109 4.81158 4.70941 6.68644 4.55161 6.86397C4.12222 7.34703 3.51188 8.0476 2.95526 8.38775C2.51207 8.65859 2.49881 8.73389 3.04596 8.46031C4.62594 7.67032 5.76622 6.17951 7.1366 5.13157C7.27908 5.02261 7.91296 4.39554 8.02548 4.71434C8.30491 5.50606 8.29364 6.34337 8.46991 7.15421C8.68342 8.13632 10.0969 7.05102 10.4381 6.70977C10.7628 6.38509 10.5888 5.51338 10.3021 6.02951C10.2401 6.14099 9.85756 7.34231 9.64903 7.08165C9.32805 6.68043 9.03822 5.81807 9.00505 5.3039C8.95612 4.54539 9.25374 4.10781 8.54247 3.88896C8.25611 3.80084 7.92844 3.1706 8.25223 2.95473C8.71984 2.64299 7.24831 3.50641 6.87357 3.92524C6.52631 4.31335 6.98567 3.99061 7.14567 3.85268C7.51544 3.53391 8.11467 2.54187 8.67853 2.73705C10.0484 3.21124 11.0254 4.25176 12.5515 4.25176C12.9303 4.25176 13.8612 4.09151 14.1297 4.43317C14.7313 5.19885 14.1159 5.44442 13.3678 5.19506C12.5377 4.91838 12.1657 4.28128 12.2703 3.44452C12.3295 2.97068 10.6606 2.65175 10.1388 2.61914C8.84291 2.53814 12.7535 2.56228 14.0299 2.80054C15.0264 2.98655 16.0568 3.27219 17.0775 3.27219C17.5643 3.27219 18.1021 3.22598 18.5559 3.43545C19.3761 3.81398 19.8944 4.5151 20.4153 5.23134C20.718 5.64761 20.6661 6.08622 20.8507 6.53744C20.956 6.7949 21.3136 7.14665 21.3677 7.39004C21.4371 7.70231 19.2612 7.15962 19.1545 7.11793C17.5598 6.49443 16.1 5.3959 14.7918 4.31525C13.1533 2.96174 11.1905 2.7216 9.21367 2.16563C7.14624 1.58417 13.401 3.12277 15.4993 3.58057C16.7109 3.84492 18.016 4.10855 19.1545 4.61457C19.569 4.79875 20.0978 5.47853 20.0978 5.96602C20.0978 6.68625 19.3456 6.53744 18.7917 6.53744" stroke="#FFE607" stroke-width="2" stroke-linecap="round"/>
<path d="M22.2202 7.19041C22.6257 7.2715 23.0523 7.67699 23.4447 7.84346C23.7642 7.979 24.7804 8.16999 24.4333 8.16999C22.384 8.16999 19.8441 8.03711 18.0842 6.86388C16.5639 5.85033 19.2378 5.47994 19.8438 5.4308C21.9535 5.25975 24.2593 6.40734 25.948 7.5895C26.5907 8.03938 24.6078 8.37858 24.2429 8.31511C22.9673 8.09327 21.6277 6.91842 20.5332 6.31968C18.8529 5.40055 16.9806 4.82847 15.3269 3.88888C14.2873 3.29817 15.5274 3.51505 16.0253 3.68933C18.1917 4.44758 20.314 5.32611 22.5467 5.88431" stroke="#FFE607" stroke-width="2" stroke-linecap="round"/>
<path d="M22.71 4.90482C21.6963 4.80344 20.786 4.30848 19.8348 4.00687C18.7785 3.67193 17.7746 3.2087 16.7237 2.85496C16.594 2.8113 15.6335 2.69352 15.9528 2.37425C16.423 1.904 17.4238 2.13888 17.9573 2.32889C19.17 2.7608 20.4142 3.05765 21.667 3.34475C22.4042 3.51369 22.4469 3.62356 21.6579 3.59872C19.6531 3.53557 17.6461 3.20174 15.7079 2.6917C15.0809 2.5267 16.4162 2.61914 16.5423 2.61914C18.901 2.61914 20.8157 2.9871 22.8733 4.26084C23.9181 4.9076 24.9949 5.78132 25.7213 6.7642C26.3319 7.59031 25.0014 5.65603 24.8143 5.46717C23.9545 4.59899 22.9187 4.01814 22.0116 3.21777C21.1085 2.42086 23.186 2.69116 23.4719 2.80054C25.2679 3.48771 27.2319 4.28709 28.5149 5.72113C28.8221 6.06445 28.9027 6.799 28.2338 6.17464C27.1026 5.11893 26.4168 3.82869 25.7395 2.47402C25.3834 1.76192 25.4855 3.01681 25.4855 3.25405C25.4855 3.88849 25.4733 4.52444 25.4855 5.15878C25.4977 5.79517 25.7255 6.67957 26.4651 6.70071C27.1516 6.72032 27.6478 6.35463 28.3517 6.37418C28.6791 6.38328 29.855 6.70071 28.914 6.70071" stroke="#FFE607" stroke-width="2" stroke-linecap="round"/>
</svg>
