<svg width="123" height="79" viewBox="0 0 123 79" fill="none" xmlns="http://www.w3.org/2000/svg">
<path d="M123 59.5C123 70.2696 95.4655 79 61.5 79C27.5345 79 0 70.2696 0 59.5C0 48.7304 27.5345 40 61.5 40C95.4655 40 123 48.7304 123 59.5Z" fill="#AEE8FF"/>
<path d="M123 59.5C123 70.2696 95.4655 79 61.5 79C27.5345 79 0 70.2696 0 59.5C0 48.7304 27.5345 40 61.5 40C95.4655 40 123 48.7304 123 59.5Z" stroke="black"/>
<path d="M10.0585 59.9919C10.2558 61.9647 14.6965 65.658 16.5347 65.8549C17.8591 65.9968 18.7827 67.1861 20.1368 67.2345C21.5989 67.2867 23.0365 67.9834 24.3521 68.5374C26.5469 69.4615 29.4182 69.3064 31.7097 70.0702C32.9861 70.4957 33.7254 70.9731 35.1586 71.0283C35.8893 71.0564 37.2821 71.2912 37.9944 71.5456C39.4088 72.0508 40.9442 72.7527 42.4587 72.7527C43.8473 72.7527 44.966 72.688 46.2525 73.2509C47.2646 73.6936 48.9658 73.6667 50.0846 73.8065C51.8038 74.0214 53.4183 74.1322 55.1621 74.1322C58.5856 74.1322 61.9858 74.4771 65.5087 74.4771C68.6139 74.4771 71.6468 74.1322 74.7057 74.1322C80.2699 74.1322 85.4083 71.227 90.9154 70.7025C93.5991 70.4469 96.3503 69.5335 99.0394 68.7865C101.36 68.142 103.78 67.51 105.861 66.1998C106.7 65.6711 107.793 65.6199 108.696 65.0885C109.458 64.6403 110.151 63.944 110.919 63.5174C113.1 62.3055 113.222 60.9654 113.85 58.7656C115.122 54.3152 108.823 52.4679 105.937 51.0248" stroke="white" stroke-linecap="round"/>
<path d="M10.8545 55.0227C10.8545 53.5798 14.9868 51.5695 16.3903 51.0855C18.3747 50.4013 20.2261 49.6246 22.3109 49.1613C23.2219 48.9589 24.4189 49.1133 25.2564 48.7469C25.8716 48.4777 26.8765 47.9558 27.4914 47.844C28.8294 47.6007 30.2903 47.0299 31.6359 47.0299" stroke="white" stroke-linecap="round"/>
<rect x="13" y="8" width="99" height="20" rx="10" fill="#F5E19A"/>
<path d="M34.1893 21.46C34.0793 21.47 34.0093 21.465 33.9793 21.445C33.9493 21.425 33.9193 21.37 33.8893 21.28C33.8493 21.17 33.8143 21.07 33.7843 20.98C33.7643 20.88 33.7343 20.745 33.6943 20.575C33.6843 20.555 33.6893 20.53 33.7093 20.5C33.7293 20.47 33.7643 20.46 33.8143 20.47C33.9743 20.49 34.2343 20.505 34.5943 20.515C34.9643 20.525 35.3793 20.525 35.8393 20.515C35.8293 19.915 35.8193 19.32 35.8093 18.73C35.7993 18.14 35.7843 17.575 35.7643 17.035C35.7443 16.655 35.7093 16.345 35.6593 16.105C35.6193 15.855 35.5743 15.68 35.5243 15.58C35.5043 15.53 35.5043 15.495 35.5243 15.475C35.5543 15.445 35.5893 15.43 35.6293 15.43H36.6193C36.6693 15.43 36.6993 15.445 36.7093 15.475C36.7193 15.495 36.7243 15.53 36.7243 15.58C36.7143 15.8 36.7093 16.05 36.7093 16.33C36.7093 16.6 36.7093 16.915 36.7093 17.275L36.6943 20.5C36.8343 20.5 37.0143 20.495 37.2343 20.485C37.4543 20.475 37.6793 20.465 37.9093 20.455C38.1493 20.435 38.3643 20.42 38.5543 20.41C38.7543 20.4 38.8993 20.39 38.9893 20.38C39.0093 19.87 39.0343 19.33 39.0643 18.76C39.0943 18.18 39.1143 17.62 39.1243 17.08C39.1443 16.7 39.1393 16.35 39.1093 16.03C39.0893 15.71 39.0543 15.5 39.0043 15.4C38.9843 15.35 38.9843 15.315 39.0043 15.295C39.0343 15.265 39.0693 15.25 39.1093 15.25C39.1893 15.25 39.3343 15.255 39.5443 15.265C39.7643 15.265 39.9643 15.275 40.1443 15.295C40.2143 15.295 40.2393 15.345 40.2193 15.445C40.1793 15.845 40.1493 16.18 40.1293 16.45C40.1093 16.71 40.0893 17.02 40.0693 17.38C40.0593 17.49 40.0443 17.665 40.0243 17.905C40.0043 18.135 39.9843 18.395 39.9643 18.685C39.9543 18.975 39.9393 19.265 39.9193 19.555C39.8993 19.845 39.8843 20.095 39.8743 20.305C40.3143 20.255 40.7393 20.195 41.1493 20.125C41.5693 20.045 41.9643 19.95 42.3343 19.84C42.4043 19.81 42.4493 19.835 42.4693 19.915L42.5443 20.335C42.5543 20.415 42.5443 20.47 42.5143 20.5C42.4943 20.53 42.4543 20.555 42.3943 20.575C42.3943 20.585 42.3893 20.59 42.3793 20.59C42.1693 20.66 41.8493 20.73 41.4193 20.8C40.9893 20.87 40.5043 20.935 39.9643 20.995C39.4343 21.055 38.9043 21.11 38.3743 21.16C37.8543 21.2 37.3943 21.235 36.9943 21.265C36.4543 21.305 35.9343 21.34 35.4343 21.37C34.9343 21.4 34.5193 21.43 34.1893 21.46ZM43.1743 25.15C43.1343 25.15 43.1143 25.125 43.1143 25.075V14.245C43.1143 13.865 43.0993 13.515 43.0693 13.195C43.0493 12.865 43.0143 12.65 42.9643 12.55C42.9443 12.5 42.9443 12.465 42.9643 12.445C42.9943 12.415 43.0293 12.4 43.0693 12.4C43.1293 12.4 43.2293 12.405 43.3693 12.415C43.5193 12.415 43.6643 12.42 43.8043 12.43C43.9443 12.43 44.0243 12.43 44.0443 12.43C44.0943 12.43 44.1193 12.47 44.1193 12.55C44.0893 12.92 44.0693 13.245 44.0593 13.525C44.0593 13.795 44.0593 14.11 44.0593 14.47V17.98C44.3293 17.98 44.6193 17.97 44.9293 17.95C45.2493 17.92 45.5443 17.89 45.8143 17.86C46.0943 17.82 46.3043 17.78 46.4443 17.74C46.5343 17.73 46.5843 17.76 46.5943 17.83C46.6143 17.96 46.6293 18.09 46.6393 18.22C46.6493 18.35 46.6593 18.48 46.6693 18.61C46.6693 18.72 46.6243 18.775 46.5343 18.775C46.3843 18.755 46.1643 18.745 45.8743 18.745C45.5943 18.745 45.2943 18.745 44.9743 18.745C44.6543 18.745 44.3493 18.75 44.0593 18.76V24.775C44.0593 24.925 44.0493 25.015 44.0293 25.045C44.0193 25.075 43.9893 25.095 43.9393 25.105L43.1743 25.15ZM34.5793 14.935C34.4793 14.955 34.4143 14.95 34.3843 14.92C34.3543 14.88 34.3293 14.83 34.3093 14.77C34.2993 14.76 34.2943 14.75 34.2943 14.74C34.2543 14.63 34.2193 14.53 34.1893 14.44C34.1693 14.34 34.1493 14.225 34.1293 14.095C34.1193 14.025 34.1593 13.99 34.2493 13.99C34.5293 14.01 34.8293 14.025 35.1493 14.035C35.4693 14.045 35.8693 14.045 36.3493 14.035C36.8193 14.035 37.3093 14.025 37.8193 14.005C38.3393 13.975 38.7693 13.95 39.1093 13.93C39.4393 13.91 39.7893 13.885 40.1593 13.855C40.5293 13.815 40.9043 13.77 41.2843 13.72C41.3143 13.71 41.3493 13.715 41.3893 13.735C41.4293 13.745 41.4543 13.775 41.4643 13.825C41.4843 13.925 41.5043 14.045 41.5243 14.185C41.5443 14.315 41.5593 14.425 41.5693 14.515C41.5893 14.625 41.5293 14.68 41.3893 14.68C41.1993 14.67 40.9743 14.665 40.7143 14.665C40.4643 14.665 40.2393 14.665 40.0393 14.665C39.8193 14.665 39.5143 14.67 39.1243 14.68C38.7443 14.69 38.3493 14.705 37.9393 14.725C37.5293 14.735 37.1643 14.745 36.8443 14.755C36.5243 14.765 36.3143 14.775 36.2143 14.785C35.9643 14.795 35.6893 14.815 35.3893 14.845C35.0993 14.875 34.8293 14.905 34.5793 14.935ZM49.1546 20.5C48.9346 20.49 48.7646 20.38 48.6446 20.17C48.5246 19.96 48.4646 19.695 48.4646 19.375V17.86C48.4646 17.66 48.4596 17.46 48.4496 17.26C48.4396 17.05 48.3996 16.845 48.3296 16.645C48.2796 16.525 48.3246 16.475 48.4646 16.495C48.5846 16.505 48.7996 16.51 49.1096 16.51C49.4196 16.51 49.7696 16.505 50.1596 16.495C50.5596 16.485 50.9496 16.475 51.3296 16.465C51.7096 16.445 52.0346 16.425 52.3046 16.405C52.5746 16.375 52.7296 16.35 52.7696 16.33C52.7996 16.04 52.8296 15.735 52.8596 15.415C52.8896 15.085 52.9096 14.76 52.9196 14.44C52.9196 14.38 52.8946 14.35 52.8446 14.35C52.4146 14.35 51.9946 14.365 51.5846 14.395C51.1846 14.415 50.7746 14.435 50.3546 14.455C50.1146 14.475 49.8546 14.495 49.5746 14.515C49.2946 14.535 49.0346 14.555 48.7946 14.575C48.6846 14.585 48.6146 14.58 48.5846 14.56C48.5646 14.53 48.5446 14.485 48.5246 14.425L48.3596 13.84C48.3496 13.82 48.3546 13.8 48.3746 13.78C48.3946 13.75 48.4196 13.74 48.4496 13.75C48.5196 13.76 48.6896 13.765 48.9596 13.765C49.2296 13.765 49.5546 13.76 49.9346 13.75C50.3146 13.74 50.7046 13.725 51.1046 13.705C51.5046 13.685 51.8696 13.665 52.1996 13.645C52.5396 13.615 52.7996 13.58 52.9796 13.54C53.0396 13.53 53.0796 13.525 53.0996 13.525C53.1296 13.525 53.1596 13.53 53.1896 13.54C53.1996 13.54 53.2096 13.54 53.2196 13.54L53.9096 13.72C53.9696 13.73 53.9896 13.77 53.9696 13.84C53.9496 13.96 53.9146 14.145 53.8646 14.395C53.8146 14.635 53.7796 14.84 53.7596 15.01L53.5196 16.975C53.5096 17.065 53.4596 17.11 53.3696 17.11C53.2596 17.11 53.0746 17.115 52.8146 17.125C52.5546 17.125 52.2546 17.135 51.9146 17.155C51.5846 17.165 51.2496 17.18 50.9096 17.2C50.5696 17.21 50.2646 17.225 49.9946 17.245C49.7246 17.255 49.5296 17.265 49.4096 17.275V19.33C49.4096 19.43 49.4246 19.5 49.4546 19.54C49.4946 19.57 49.5396 19.59 49.5896 19.6C49.8996 19.62 50.3146 19.615 50.8346 19.585C51.3546 19.555 51.9196 19.5 52.5296 19.42C53.1396 19.33 53.7396 19.215 54.3296 19.075C54.9196 18.935 55.4346 18.765 55.8746 18.565C55.9746 18.525 56.0296 18.535 56.0396 18.595L56.1146 19.135C56.1246 19.235 56.0746 19.31 55.9646 19.36C55.6246 19.51 55.1846 19.655 54.6446 19.795C54.1046 19.925 53.5096 20.045 52.8596 20.155C52.2196 20.255 51.5746 20.34 50.9246 20.41C50.2846 20.47 49.6946 20.5 49.1546 20.5ZM56.7446 22.375C56.7046 22.375 56.6846 22.35 56.6846 22.3V14.23C56.6846 13.85 56.6696 13.5 56.6396 13.18C56.6196 12.86 56.5846 12.65 56.5346 12.55C56.5146 12.5 56.5146 12.465 56.5346 12.445C56.5646 12.415 56.5996 12.4 56.6396 12.4C56.7796 12.4 56.9446 12.4 57.1346 12.4C57.3246 12.4 57.4846 12.405 57.6146 12.415C57.6646 12.415 57.6896 12.455 57.6896 12.535C57.6596 12.905 57.6396 13.23 57.6296 13.51C57.6296 13.78 57.6296 14.095 57.6296 14.455V16.9C57.8996 16.9 58.1946 16.89 58.5146 16.87C58.8346 16.85 59.1296 16.825 59.3996 16.795C59.6796 16.765 59.8896 16.73 60.0296 16.69C60.1196 16.68 60.1696 16.71 60.1796 16.78C60.1996 16.91 60.2096 17.04 60.2096 17.17C60.2196 17.3 60.2296 17.43 60.2396 17.56C60.2396 17.67 60.1946 17.725 60.1046 17.725C59.9646 17.705 59.7496 17.695 59.4596 17.695C59.1696 17.685 58.8596 17.68 58.5296 17.68C58.2096 17.68 57.9096 17.69 57.6296 17.71V22C57.6296 22.15 57.6196 22.24 57.5996 22.27C57.5896 22.3 57.5596 22.32 57.5096 22.33L56.7446 22.375ZM51.9146 25.75C51.5946 25.75 51.3496 25.63 51.1796 25.39C51.0196 25.16 50.9396 24.83 50.9396 24.4V23.365C50.9396 23.015 50.9246 22.725 50.8946 22.495C50.8646 22.265 50.8346 22.1 50.8046 22C50.7746 21.9 50.8096 21.85 50.9096 21.85C50.9696 21.85 51.0696 21.855 51.2096 21.865C51.3596 21.865 51.4996 21.87 51.6296 21.88C51.7696 21.89 51.8446 21.895 51.8546 21.895C51.9046 21.895 51.9296 21.945 51.9296 22.045C51.9096 22.275 51.8946 22.48 51.8846 22.66C51.8846 22.83 51.8846 23.045 51.8846 23.305V24.31C51.8846 24.56 51.9146 24.735 51.9746 24.835C52.0446 24.925 52.1546 24.975 52.3046 24.985C52.5846 24.995 52.9246 25 53.3246 25C53.7346 25.01 54.1596 25.01 54.5996 25C55.0496 24.98 55.4746 24.96 55.8746 24.94C56.2946 24.92 56.7296 24.885 57.1796 24.835C57.6296 24.775 57.9746 24.715 58.2146 24.655C58.3146 24.635 58.3796 24.64 58.4096 24.67C58.4396 24.7 58.4596 24.74 58.4696 24.79L58.5896 25.495C58.5896 25.545 58.5746 25.585 58.5446 25.615C58.5246 25.645 58.4446 25.66 58.3046 25.66C57.3146 25.66 56.2946 25.675 55.2446 25.705C54.1946 25.735 53.0846 25.75 51.9146 25.75ZM69.3105 25.9C69.2905 25.9 69.2655 25.895 69.2355 25.885C69.2055 25.875 69.1905 25.845 69.1905 25.795C69.1905 25.755 69.1905 25.695 69.1905 25.615C69.1905 25.545 69.1905 25.465 69.1905 25.375C69.1905 25.105 69.1905 24.765 69.1905 24.355C69.1905 23.945 69.1905 23.54 69.1905 23.14C69.1905 22.74 69.1855 22.405 69.1755 22.135C69.1655 21.875 69.1455 21.62 69.1155 21.37C69.0855 21.12 69.0555 20.945 69.0255 20.845C68.9955 20.745 69.0305 20.695 69.1305 20.695L70.0905 20.71C70.1405 20.71 70.1655 20.745 70.1655 20.815C70.1555 21.045 70.1455 21.29 70.1355 21.55C70.1355 21.8 70.1355 22.065 70.1355 22.345C70.3155 22.355 70.5755 22.36 70.9155 22.36C71.2555 22.36 71.6305 22.36 72.0405 22.36C72.4505 22.36 72.8655 22.355 73.2855 22.345C73.7055 22.335 74.0905 22.325 74.4405 22.315C74.8005 22.295 75.0855 22.28 75.2955 22.27V21.85C75.2955 21.51 75.2855 21.25 75.2655 21.07C75.2555 20.88 75.2305 20.74 75.1905 20.65C75.1705 20.6 75.1705 20.565 75.1905 20.545C75.2205 20.515 75.2555 20.5 75.2955 20.5H76.2105C76.2605 20.5 76.2855 20.53 76.2855 20.59C76.2755 20.82 76.2655 21.065 76.2555 21.325C76.2555 21.575 76.2555 21.915 76.2555 22.345V25.645C76.2555 25.775 76.1805 25.84 76.0305 25.84L70.1055 25.855C70.0055 25.855 69.8555 25.86 69.6555 25.87C69.4555 25.89 69.3405 25.9 69.3105 25.9ZM65.9655 20.11L65.5905 19.78C65.5505 19.74 65.5705 19.69 65.6505 19.63C66.3905 19.15 67.0255 18.61 67.5555 18.01C68.0855 17.4 68.4955 16.775 68.7855 16.135C69.0855 15.495 69.2455 14.89 69.2655 14.32C69.1255 14.33 68.9755 14.34 68.8155 14.35C68.6555 14.36 68.4755 14.375 68.2755 14.395C67.9755 14.415 67.7155 14.435 67.4955 14.455C67.2855 14.475 67.0455 14.505 66.7755 14.545C66.6755 14.555 66.6105 14.545 66.5805 14.515C66.5505 14.475 66.5255 14.43 66.5055 14.38C66.4955 14.37 66.4905 14.36 66.4905 14.35C66.4605 14.27 66.4305 14.18 66.4005 14.08C66.3805 13.98 66.3555 13.865 66.3255 13.735C66.3155 13.715 66.3205 13.69 66.3405 13.66C66.3605 13.63 66.3955 13.615 66.4455 13.615C66.6855 13.625 66.9505 13.64 67.2405 13.66C67.5305 13.67 67.8205 13.67 68.1105 13.66C68.5505 13.64 68.9955 13.625 69.4455 13.615C69.9055 13.595 70.3655 13.565 70.8255 13.525C71.1955 13.505 71.5455 13.475 71.8755 13.435C72.2055 13.395 72.5005 13.35 72.7605 13.3C72.7905 13.29 72.8255 13.295 72.8655 13.315C72.9055 13.325 72.9305 13.355 72.9405 13.405C72.9605 13.475 72.9805 13.58 73.0005 13.72C73.0205 13.85 73.0355 13.975 73.0455 14.095C73.0455 14.205 72.9855 14.26 72.8655 14.26C72.7655 14.26 72.6655 14.26 72.5655 14.26C72.4655 14.26 72.3605 14.26 72.2505 14.26C72.0405 14.26 71.8255 14.26 71.6055 14.26C71.3855 14.25 71.1555 14.25 70.9155 14.26C70.8155 14.26 70.7155 14.265 70.6155 14.275C70.5255 14.275 70.4355 14.275 70.3455 14.275C70.3055 14.535 70.2355 14.835 70.1355 15.175C70.0455 15.515 69.9055 15.875 69.7155 16.255C70.1155 16.545 70.5255 16.865 70.9455 17.215C71.3755 17.565 71.7655 17.89 72.1155 18.19C72.4655 18.48 72.7105 18.7 72.8505 18.85C72.9005 18.89 72.9355 18.94 72.9555 19C72.9755 19.06 72.9605 19.125 72.9105 19.195C72.8905 19.225 72.8405 19.28 72.7605 19.36C72.6805 19.44 72.6005 19.52 72.5205 19.6C72.4405 19.67 72.3805 19.72 72.3405 19.75C72.2605 19.8 72.1955 19.795 72.1455 19.735C71.9555 19.465 71.7005 19.15 71.3805 18.79C71.0605 18.43 70.7255 18.075 70.3755 17.725C70.0255 17.375 69.6955 17.085 69.3855 16.855C69.0755 17.385 68.6905 17.925 68.2305 18.475C67.7705 19.025 67.1705 19.565 66.4305 20.095C66.4305 20.095 66.4255 20.1 66.4155 20.11C66.3555 20.14 66.2855 20.17 66.2055 20.2C66.1355 20.22 66.0555 20.19 65.9655 20.11ZM70.1355 25C70.2355 25.01 70.4555 25.015 70.7955 25.015C71.1455 25.025 71.5505 25.03 72.0105 25.03C72.4805 25.03 72.9455 25.025 73.4055 25.015C73.8655 25.015 74.2705 25.01 74.6205 25C74.9705 24.99 75.1955 24.98 75.2955 24.97V23.095C75.0255 23.095 74.6705 23.095 74.2305 23.095C73.7905 23.095 73.3155 23.1 72.8055 23.11C72.3055 23.11 71.8155 23.115 71.3355 23.125C70.8655 23.125 70.4655 23.13 70.1355 23.14V25ZM75.3405 19.675C75.3005 19.675 75.2805 19.65 75.2805 19.6V16.75C75.1005 16.76 74.9255 16.77 74.7555 16.78C74.5855 16.79 74.4255 16.8 74.2755 16.81C74.0355 16.82 73.7605 16.845 73.4505 16.885C73.1405 16.915 72.8655 16.945 72.6255 16.975C72.5155 16.995 72.4405 16.99 72.4005 16.96C72.3605 16.93 72.3305 16.885 72.3105 16.825C72.2705 16.695 72.2355 16.575 72.2055 16.465C72.1855 16.345 72.1655 16.235 72.1455 16.135C72.1455 16.055 72.1855 16.025 72.2655 16.045C72.4255 16.065 72.6755 16.08 73.0155 16.09C73.3655 16.09 73.7455 16.085 74.1555 16.075C74.5655 16.055 74.9405 16.035 75.2805 16.015V14.23C75.2805 13.85 75.2655 13.5 75.2355 13.18C75.2155 12.86 75.1805 12.65 75.1305 12.55C75.1105 12.5 75.1105 12.465 75.1305 12.445C75.1605 12.415 75.1955 12.4 75.2355 12.4C75.3255 12.4 75.4655 12.4 75.6555 12.4C75.8555 12.4 76.0405 12.405 76.2105 12.415C76.2605 12.415 76.2855 12.455 76.2855 12.535C76.2555 12.905 76.2355 13.23 76.2255 13.51C76.2255 13.78 76.2255 14.095 76.2255 14.455V19.3C76.2255 19.45 76.2155 19.54 76.1955 19.57C76.1855 19.6 76.1555 19.62 76.1055 19.63L75.3405 19.675ZM78.5937 21.52L78.1887 21.175C78.1487 21.135 78.1637 21.09 78.2337 21.04C78.2437 21.03 78.2487 21.025 78.2487 21.025C78.9387 20.515 79.5687 19.945 80.1387 19.315C80.7087 18.675 81.1937 18.015 81.5937 17.335C82.0037 16.655 82.2987 15.995 82.4787 15.355C82.5587 15.065 82.6337 14.74 82.7037 14.38C82.7737 14.02 82.8087 13.745 82.8087 13.555C82.8087 13.495 82.8237 13.455 82.8537 13.435C82.8837 13.405 82.9137 13.4 82.9437 13.42L83.9787 13.675C84.0287 13.685 84.0487 13.74 84.0387 13.84C83.9987 13.98 83.9387 14.165 83.8587 14.395C83.7787 14.625 83.6987 14.86 83.6187 15.1C83.5387 15.33 83.4687 15.53 83.4087 15.7C83.3287 15.9 83.2387 16.115 83.1387 16.345C83.0387 16.565 82.9287 16.795 82.8087 17.035C83.2887 17.395 83.7837 17.78 84.2937 18.19C84.8037 18.6 85.2687 18.985 85.6887 19.345C86.1087 19.705 86.4237 20 86.6337 20.23C86.6737 20.28 86.7037 20.34 86.7237 20.41C86.7537 20.47 86.7437 20.535 86.6937 20.605C86.6037 20.715 86.5037 20.815 86.3937 20.905C86.2937 20.995 86.1887 21.085 86.0787 21.175C86.0187 21.225 85.9687 21.215 85.9287 21.145C85.7687 20.905 85.5537 20.63 85.2837 20.32C85.0137 20.01 84.7137 19.69 84.3837 19.36C84.0637 19.03 83.7337 18.715 83.3937 18.415C83.0637 18.115 82.7537 17.855 82.4637 17.635C82.0937 18.255 81.6287 18.9 81.0687 19.57C80.5187 20.23 79.8487 20.875 79.0587 21.505C79.0087 21.545 78.9387 21.58 78.8487 21.61C78.7687 21.64 78.6837 21.61 78.5937 21.52ZM88.1637 25.15C88.1237 25.15 88.1037 25.125 88.1037 25.075V14.245C88.1037 13.865 88.0887 13.515 88.0587 13.195C88.0387 12.865 88.0037 12.65 87.9537 12.55C87.9337 12.5 87.9337 12.465 87.9537 12.445C87.9837 12.415 88.0187 12.4 88.0587 12.4C88.1187 12.4 88.2187 12.405 88.3587 12.415C88.5087 12.415 88.6537 12.42 88.7937 12.43C88.9337 12.43 89.0137 12.43 89.0337 12.43C89.0837 12.43 89.1087 12.47 89.1087 12.55C89.0787 12.92 89.0587 13.245 89.0487 13.525C89.0487 13.795 89.0487 14.11 89.0487 14.47V24.775C89.0487 24.925 89.0387 25.015 89.0187 25.045C89.0087 25.075 88.9787 25.095 88.9287 25.105L88.1637 25.15Z" fill="black"/>
</svg>
