<svg width="141" height="88" viewBox="0 0 141 88" fill="none" xmlns="http://www.w3.org/2000/svg">
<path d="M131 59.5C131 70.2696 103.466 79 69.5 79C35.5345 79 8 70.2696 8 59.5C8 48.7304 35.5345 40 69.5 40C103.466 40 131 48.7304 131 59.5Z" fill="url(#paint0_radial_15_139)"/>
<path d="M131 59.5C131 70.2696 103.466 79 69.5 79C35.5345 79 8 70.2696 8 59.5C8 48.7304 35.5345 40 69.5 40C103.466 40 131 48.7304 131 59.5Z" stroke="black"/>
<path d="M18.0585 59.9919C18.2558 61.9647 22.6965 65.658 24.5347 65.8549C25.8591 65.9968 26.7827 67.1861 28.1368 67.2345C29.5989 67.2867 31.0365 67.9834 32.3521 68.5374C34.5469 69.4615 37.4182 69.3064 39.7097 70.0702C40.9861 70.4957 41.7254 70.9731 43.1586 71.0283C43.8893 71.0564 45.2821 71.2912 45.9944 71.5456C47.4088 72.0508 48.9442 72.7527 50.4587 72.7527C51.8473 72.7527 52.966 72.688 54.2525 73.2509C55.2646 73.6936 56.9658 73.6667 58.0846 73.8065C59.8038 74.0214 61.4183 74.1322 63.1621 74.1322C66.5856 74.1322 69.9858 74.4771 73.5087 74.4771C76.6139 74.4771 79.6468 74.1322 82.7057 74.1322C88.2699 74.1322 93.4083 71.227 98.9154 70.7025C101.599 70.4469 104.35 69.5335 107.039 68.7865C109.36 68.142 111.78 67.51 113.861 66.1998C114.7 65.6711 115.793 65.6199 116.696 65.0885C117.458 64.6403 118.151 63.944 118.919 63.5174C121.1 62.3055 121.222 60.9654 121.85 58.7656C123.122 54.3152 116.823 52.4679 113.937 51.0248" stroke="#F3EEEF" stroke-linecap="round"/>
<path d="M18.8545 55.0227C18.8545 53.5798 22.9868 51.5695 24.3903 51.0855C26.3747 50.4013 28.2261 49.6246 30.3109 49.1613C31.2219 48.9589 32.4189 49.1133 33.2564 48.7469C33.8716 48.4777 34.8765 47.9558 35.4914 47.844C36.8294 47.6007 38.2903 47.0299 39.6359 47.0299" stroke="#F3EEEF" stroke-linecap="round"/>
<rect x="21" y="8" width="99" height="20" rx="10" fill="#F5E19A"/>
<path d="M51.1734 26.41C51.1734 26.41 51.1684 26.41 51.1584 26.41C51.0984 26.43 51.0384 26.44 50.9784 26.44C50.9184 26.44 50.8584 26.415 50.7984 26.365L50.4534 25.93C50.4434 25.91 50.4434 25.88 50.4534 25.84C50.4634 25.81 50.4834 25.79 50.5134 25.78C50.8034 25.72 51.1584 25.61 51.5784 25.45C52.0084 25.3 52.4384 25.1 52.8684 24.85C53.2984 24.6 53.6784 24.315 54.0084 23.995C54.3484 23.675 54.5684 23.32 54.6684 22.93C54.4184 22.94 54.1734 22.95 53.9334 22.96C53.6934 22.97 53.4584 22.98 53.2284 22.99C52.9084 23 52.5884 23.02 52.2684 23.05C51.9484 23.07 51.6284 23.1 51.3084 23.14C51.2084 23.15 51.1434 23.14 51.1134 23.11C51.0834 23.08 51.0534 23.04 51.0234 22.99C51.0134 22.97 51.0084 22.955 51.0084 22.945C50.9384 22.745 50.8784 22.535 50.8284 22.315C50.8184 22.295 50.8234 22.27 50.8434 22.24C50.8634 22.21 50.8984 22.2 50.9484 22.21C51.2284 22.24 51.5784 22.265 51.9984 22.285C52.4284 22.305 52.8834 22.31 53.3634 22.3C53.9634 22.3 54.5934 22.285 55.2534 22.255C55.9134 22.225 56.5534 22.185 57.1734 22.135C57.7934 22.075 58.3334 22.005 58.7934 21.925C58.8234 21.915 58.8584 21.92 58.8984 21.94C58.9384 21.95 58.9634 21.98 58.9734 22.03C58.9934 22.13 59.0134 22.235 59.0334 22.345C59.0534 22.445 59.0684 22.57 59.0784 22.72C59.0984 22.83 59.0384 22.885 58.8984 22.885L57.2034 22.87C56.9634 22.87 56.7184 22.875 56.4684 22.885C56.2284 22.885 55.9834 22.89 55.7334 22.9C55.6634 23.18 55.5334 23.46 55.3434 23.74C55.6534 23.83 55.9934 23.945 56.3634 24.085C56.7434 24.215 57.1184 24.355 57.4884 24.505C57.8684 24.655 58.2134 24.8 58.5234 24.94C58.8334 25.07 59.0684 25.185 59.2284 25.285C59.2784 25.305 59.3284 25.345 59.3784 25.405C59.4284 25.465 59.4284 25.535 59.3784 25.615L58.9434 26.275C58.9134 26.345 58.8634 26.345 58.7934 26.275C58.4834 26.025 58.0934 25.77 57.6234 25.51C57.1634 25.25 56.6934 25.01 56.2134 24.79C55.7334 24.57 55.3034 24.395 54.9234 24.265C54.4634 24.755 53.8884 25.19 53.1984 25.57C52.5184 25.95 51.8434 26.23 51.1734 26.41ZM48.9684 19.435C48.8584 19.445 48.7834 19.435 48.7434 19.405C48.7034 19.375 48.6734 19.33 48.6534 19.27C48.6134 19.16 48.5784 19.05 48.5484 18.94C48.5184 18.83 48.4834 18.69 48.4434 18.52C48.4334 18.5 48.4384 18.475 48.4584 18.445C48.4784 18.405 48.5134 18.39 48.5634 18.4C48.9434 18.45 49.4634 18.49 50.1234 18.52C50.7834 18.54 51.5084 18.545 52.2984 18.535C52.6884 18.535 53.0934 18.535 53.5134 18.535C53.9434 18.525 54.3734 18.515 54.8034 18.505V17.59C54.8034 17.2 54.7884 16.88 54.7584 16.63C54.7284 16.38 54.6934 16.205 54.6534 16.105C54.6134 16.005 54.6484 15.955 54.7584 15.955H55.6584C55.7184 15.955 55.7484 15.995 55.7484 16.075C55.7484 16.085 55.7484 16.095 55.7484 16.105C55.7384 16.325 55.7284 16.54 55.7184 16.75C55.7084 16.95 55.6984 17.195 55.6884 17.485L55.6734 18.475C56.4334 18.455 57.1634 18.43 57.8634 18.4C58.5634 18.36 59.1884 18.32 59.7384 18.28C60.2884 18.23 60.7084 18.18 60.9984 18.13C61.0984 18.11 61.1634 18.115 61.1934 18.145C61.2234 18.175 61.2434 18.215 61.2534 18.265L61.3434 18.925C61.3534 19.065 61.2584 19.13 61.0584 19.12C60.7484 19.1 60.3284 19.09 59.7984 19.09C59.2784 19.09 58.7134 19.095 58.1034 19.105C57.5634 19.105 57.0084 19.115 56.4384 19.135C55.8784 19.145 55.3484 19.155 54.8484 19.165C54.3584 19.175 53.9334 19.185 53.5734 19.195C52.5634 19.225 51.6534 19.26 50.8434 19.3C50.0334 19.34 49.4084 19.385 48.9684 19.435ZM57.6984 17.29C57.6684 17.29 57.6384 17.285 57.6084 17.275C57.5884 17.255 57.5884 17.21 57.6084 17.14C57.6684 16.93 57.7334 16.67 57.8034 16.36C57.8734 16.05 57.9384 15.725 57.9984 15.385C58.0584 15.045 58.1034 14.725 58.1334 14.425C58.1734 14.125 58.1884 13.885 58.1784 13.705C58.1784 13.595 58.1284 13.54 58.0284 13.54C57.9384 13.54 57.7834 13.545 57.5634 13.555C57.3434 13.565 57.0984 13.58 56.8284 13.6C56.5584 13.61 56.2884 13.625 56.0184 13.645C55.7584 13.655 55.5334 13.67 55.3434 13.69C55.2334 13.7 55.1584 13.69 55.1184 13.66C55.0784 13.63 55.0484 13.575 55.0284 13.495L54.8784 12.94C54.8684 12.92 54.8734 12.895 54.8934 12.865C54.9134 12.835 54.9484 12.825 54.9984 12.835C55.3284 12.855 55.6934 12.865 56.0934 12.865C56.5034 12.865 56.8984 12.85 57.2784 12.82C57.6684 12.78 57.9834 12.735 58.2234 12.685C58.3034 12.665 58.3834 12.665 58.4634 12.685L59.2884 12.865C59.3784 12.895 59.4134 12.95 59.3934 13.03C59.3634 13.19 59.3284 13.385 59.2884 13.615C59.2484 13.835 59.2034 14.08 59.1534 14.35C59.0534 14.9 58.9634 15.36 58.8834 15.73C58.8134 16.1 58.7284 16.47 58.6284 16.84C58.5884 17.02 58.5434 17.135 58.4934 17.185C58.4534 17.225 58.4034 17.25 58.3434 17.26L57.6984 17.29ZM52.8384 17.395L52.3584 17.29C52.3284 17.28 52.2984 17.265 52.2684 17.245C52.2384 17.225 52.2384 17.19 52.2684 17.14C52.4184 16.9 52.5734 16.58 52.7334 16.18C52.9034 15.77 53.0484 15.35 53.1684 14.92C53.2984 14.48 53.3734 14.105 53.3934 13.795C53.4034 13.725 53.3984 13.68 53.3784 13.66C53.3684 13.64 53.3234 13.63 53.2434 13.63C52.8434 13.62 52.4134 13.635 51.9534 13.675C51.5034 13.715 51.0434 13.765 50.5734 13.825C50.4734 13.835 50.4084 13.825 50.3784 13.795C50.3484 13.765 50.3184 13.71 50.2884 13.63L50.0934 13.03C50.0834 13.01 50.0884 12.985 50.1084 12.955C50.1284 12.925 50.1634 12.915 50.2134 12.925C50.5334 12.945 50.8984 12.955 51.3084 12.955C51.7184 12.955 52.1134 12.94 52.4934 12.91C52.8734 12.88 53.1734 12.84 53.3934 12.79C53.4734 12.77 53.5534 12.77 53.6334 12.79L54.4584 13.015C54.5584 13.045 54.5984 13.1 54.5784 13.18L54.3084 14.17C54.1484 14.75 53.9934 15.245 53.8434 15.655C53.6934 16.065 53.5134 16.505 53.3034 16.975C53.2034 17.195 53.1134 17.325 53.0334 17.365C52.9634 17.395 52.8984 17.405 52.8384 17.395ZM54.6234 21.31C54.2734 21.29 53.9234 21.255 53.5734 21.205C53.2334 21.145 52.9484 21.05 52.7184 20.92C52.6784 20.9 52.6634 20.845 52.6734 20.755C52.6934 20.655 52.7234 20.565 52.7634 20.485C52.8134 20.395 52.8634 20.36 52.9134 20.38C53.6634 20.49 54.3884 20.535 55.0884 20.515C55.7984 20.495 56.4234 20.46 56.9634 20.41C57.0434 20.4 57.0934 20.4 57.1134 20.41C57.1334 20.42 57.1484 20.445 57.1584 20.485C57.1684 20.525 57.1684 20.6 57.1584 20.71C57.1584 20.81 57.1484 20.905 57.1284 20.995C57.1184 21.085 57.0884 21.14 57.0384 21.16C56.9884 21.18 56.8234 21.205 56.5434 21.235C56.2734 21.265 55.9584 21.29 55.5984 21.31C55.2484 21.32 54.9234 21.32 54.6234 21.31ZM70.7864 25.9C70.7664 25.9 70.7414 25.895 70.7114 25.885C70.6814 25.875 70.6664 25.845 70.6664 25.795C70.6664 25.755 70.6664 25.695 70.6664 25.615C70.6664 25.545 70.6664 25.465 70.6664 25.375C70.6664 25.105 70.6664 24.765 70.6664 24.355C70.6664 23.945 70.6664 23.54 70.6664 23.14C70.6664 22.74 70.6614 22.405 70.6514 22.135C70.6414 21.875 70.6214 21.62 70.5914 21.37C70.5614 21.12 70.5314 20.945 70.5014 20.845C70.4714 20.745 70.5064 20.695 70.6064 20.695L71.5664 20.71C71.6164 20.71 71.6414 20.745 71.6414 20.815C71.6314 21.045 71.6214 21.29 71.6114 21.55C71.6114 21.8 71.6114 22.065 71.6114 22.345C71.7914 22.355 72.0514 22.36 72.3914 22.36C72.7314 22.36 73.1064 22.36 73.5164 22.36C73.9264 22.36 74.3414 22.355 74.7614 22.345C75.1814 22.335 75.5664 22.325 75.9164 22.315C76.2764 22.295 76.5614 22.28 76.7714 22.27V21.85C76.7714 21.51 76.7614 21.25 76.7414 21.07C76.7314 20.88 76.7064 20.74 76.6664 20.65C76.6464 20.6 76.6464 20.565 76.6664 20.545C76.6964 20.515 76.7314 20.5 76.7714 20.5H77.6864C77.7364 20.5 77.7614 20.53 77.7614 20.59C77.7514 20.82 77.7414 21.065 77.7314 21.325C77.7314 21.575 77.7314 21.915 77.7314 22.345V25.645C77.7314 25.775 77.6564 25.84 77.5064 25.84L71.5814 25.855C71.4814 25.855 71.3314 25.86 71.1314 25.87C70.9314 25.89 70.8164 25.9 70.7864 25.9ZM67.4414 20.11L67.0664 19.78C67.0264 19.74 67.0464 19.69 67.1264 19.63C67.8664 19.15 68.5014 18.61 69.0314 18.01C69.5614 17.4 69.9714 16.775 70.2614 16.135C70.5614 15.495 70.7214 14.89 70.7414 14.32C70.6014 14.33 70.4514 14.34 70.2914 14.35C70.1314 14.36 69.9514 14.375 69.7514 14.395C69.4514 14.415 69.1914 14.435 68.9714 14.455C68.7614 14.475 68.5214 14.505 68.2514 14.545C68.1514 14.555 68.0864 14.545 68.0564 14.515C68.0264 14.475 68.0014 14.43 67.9814 14.38C67.9714 14.37 67.9664 14.36 67.9664 14.35C67.9364 14.27 67.9064 14.18 67.8764 14.08C67.8564 13.98 67.8314 13.865 67.8014 13.735C67.7914 13.715 67.7964 13.69 67.8164 13.66C67.8364 13.63 67.8714 13.615 67.9214 13.615C68.1614 13.625 68.4264 13.64 68.7164 13.66C69.0064 13.67 69.2964 13.67 69.5864 13.66C70.0264 13.64 70.4714 13.625 70.9214 13.615C71.3814 13.595 71.8414 13.565 72.3014 13.525C72.6714 13.505 73.0214 13.475 73.3514 13.435C73.6814 13.395 73.9764 13.35 74.2364 13.3C74.2664 13.29 74.3014 13.295 74.3414 13.315C74.3814 13.325 74.4064 13.355 74.4164 13.405C74.4364 13.475 74.4564 13.58 74.4764 13.72C74.4964 13.85 74.5114 13.975 74.5214 14.095C74.5214 14.205 74.4614 14.26 74.3414 14.26C74.2414 14.26 74.1414 14.26 74.0414 14.26C73.9414 14.26 73.8364 14.26 73.7264 14.26C73.5164 14.26 73.3014 14.26 73.0814 14.26C72.8614 14.25 72.6314 14.25 72.3914 14.26C72.2914 14.26 72.1914 14.265 72.0914 14.275C72.0014 14.275 71.9114 14.275 71.8214 14.275C71.7814 14.535 71.7114 14.835 71.6114 15.175C71.5214 15.515 71.3814 15.875 71.1914 16.255C71.5914 16.545 72.0014 16.865 72.4214 17.215C72.8514 17.565 73.2414 17.89 73.5914 18.19C73.9414 18.48 74.1864 18.7 74.3264 18.85C74.3764 18.89 74.4114 18.94 74.4314 19C74.4514 19.06 74.4364 19.125 74.3864 19.195C74.3664 19.225 74.3164 19.28 74.2364 19.36C74.1564 19.44 74.0764 19.52 73.9964 19.6C73.9164 19.67 73.8564 19.72 73.8164 19.75C73.7364 19.8 73.6714 19.795 73.6214 19.735C73.4314 19.465 73.1764 19.15 72.8564 18.79C72.5364 18.43 72.2014 18.075 71.8514 17.725C71.5014 17.375 71.1714 17.085 70.8614 16.855C70.5514 17.385 70.1664 17.925 69.7064 18.475C69.2464 19.025 68.6464 19.565 67.9064 20.095C67.9064 20.095 67.9014 20.1 67.8914 20.11C67.8314 20.14 67.7614 20.17 67.6814 20.2C67.6114 20.22 67.5314 20.19 67.4414 20.11ZM71.6114 25C71.7114 25.01 71.9314 25.015 72.2714 25.015C72.6214 25.025 73.0264 25.03 73.4864 25.03C73.9564 25.03 74.4214 25.025 74.8814 25.015C75.3414 25.015 75.7464 25.01 76.0964 25C76.4464 24.99 76.6714 24.98 76.7714 24.97V23.095C76.5014 23.095 76.1464 23.095 75.7064 23.095C75.2664 23.095 74.7914 23.1 74.2814 23.11C73.7814 23.11 73.2914 23.115 72.8114 23.125C72.3414 23.125 71.9414 23.13 71.6114 23.14V25ZM76.8164 19.675C76.7764 19.675 76.7564 19.65 76.7564 19.6V16.75C76.5764 16.76 76.4014 16.77 76.2314 16.78C76.0614 16.79 75.9014 16.8 75.7514 16.81C75.5114 16.82 75.2364 16.845 74.9264 16.885C74.6164 16.915 74.3414 16.945 74.1014 16.975C73.9914 16.995 73.9164 16.99 73.8764 16.96C73.8364 16.93 73.8064 16.885 73.7864 16.825C73.7464 16.695 73.7114 16.575 73.6814 16.465C73.6614 16.345 73.6414 16.235 73.6214 16.135C73.6214 16.055 73.6614 16.025 73.7414 16.045C73.9014 16.065 74.1514 16.08 74.4914 16.09C74.8414 16.09 75.2214 16.085 75.6314 16.075C76.0414 16.055 76.4164 16.035 76.7564 16.015V14.23C76.7564 13.85 76.7414 13.5 76.7114 13.18C76.6914 12.86 76.6564 12.65 76.6064 12.55C76.5864 12.5 76.5864 12.465 76.6064 12.445C76.6364 12.415 76.6714 12.4 76.7114 12.4C76.8014 12.4 76.9414 12.4 77.1314 12.4C77.3314 12.4 77.5164 12.405 77.6864 12.415C77.7364 12.415 77.7614 12.455 77.7614 12.535C77.7314 12.905 77.7114 13.23 77.7014 13.51C77.7014 13.78 77.7014 14.095 77.7014 14.455V19.3C77.7014 19.45 77.6914 19.54 77.6714 19.57C77.6614 19.6 77.6314 19.62 77.5814 19.63L76.8164 19.675ZM80.0696 21.52L79.6646 21.175C79.6246 21.135 79.6396 21.09 79.7096 21.04C79.7196 21.03 79.7246 21.025 79.7246 21.025C80.4146 20.515 81.0446 19.945 81.6146 19.315C82.1846 18.675 82.6696 18.015 83.0696 17.335C83.4796 16.655 83.7746 15.995 83.9546 15.355C84.0346 15.065 84.1096 14.74 84.1796 14.38C84.2496 14.02 84.2846 13.745 84.2846 13.555C84.2846 13.495 84.2996 13.455 84.3296 13.435C84.3596 13.405 84.3896 13.4 84.4196 13.42L85.4546 13.675C85.5046 13.685 85.5246 13.74 85.5146 13.84C85.4746 13.98 85.4146 14.165 85.3346 14.395C85.2546 14.625 85.1746 14.86 85.0946 15.1C85.0146 15.33 84.9446 15.53 84.8846 15.7C84.8046 15.9 84.7146 16.115 84.6146 16.345C84.5146 16.565 84.4046 16.795 84.2846 17.035C84.7646 17.395 85.2596 17.78 85.7696 18.19C86.2796 18.6 86.7446 18.985 87.1646 19.345C87.5846 19.705 87.8996 20 88.1096 20.23C88.1496 20.28 88.1796 20.34 88.1996 20.41C88.2296 20.47 88.2196 20.535 88.1696 20.605C88.0796 20.715 87.9796 20.815 87.8696 20.905C87.7696 20.995 87.6646 21.085 87.5546 21.175C87.4946 21.225 87.4446 21.215 87.4046 21.145C87.2446 20.905 87.0296 20.63 86.7596 20.32C86.4896 20.01 86.1896 19.69 85.8596 19.36C85.5396 19.03 85.2096 18.715 84.8696 18.415C84.5396 18.115 84.2296 17.855 83.9396 17.635C83.5696 18.255 83.1046 18.9 82.5446 19.57C81.9946 20.23 81.3246 20.875 80.5346 21.505C80.4846 21.545 80.4146 21.58 80.3246 21.61C80.2446 21.64 80.1596 21.61 80.0696 21.52ZM89.6396 25.15C89.5996 25.15 89.5796 25.125 89.5796 25.075V14.245C89.5796 13.865 89.5646 13.515 89.5346 13.195C89.5146 12.865 89.4796 12.65 89.4296 12.55C89.4096 12.5 89.4096 12.465 89.4296 12.445C89.4596 12.415 89.4946 12.4 89.5346 12.4C89.5946 12.4 89.6946 12.405 89.8346 12.415C89.9846 12.415 90.1296 12.42 90.2696 12.43C90.4096 12.43 90.4896 12.43 90.5096 12.43C90.5596 12.43 90.5846 12.47 90.5846 12.55C90.5546 12.92 90.5346 13.245 90.5246 13.525C90.5246 13.795 90.5246 14.11 90.5246 14.47V24.775C90.5246 24.925 90.5146 25.015 90.4946 25.045C90.4846 25.075 90.4546 25.095 90.4046 25.105L89.6396 25.15Z" fill="black"/>
<g clip-path="url(#clip0_15_139)">
<path d="M13.6939 66.2827C13.1325 66.1891 12.5918 65.5734 12.0453 65.3305C11.7828 65.2138 11.4326 64.2666 11.2431 64.0081C10.1684 62.5427 9.55133 60.9094 8.53652 59.3708C7.08251 57.1664 6.21132 54.384 6.08565 51.7449C6.0283 50.5407 6.05115 48.7331 7.27582 48.0333C7.98837 47.6262 9.24643 47.8746 10.0088 47.8746C10.9513 47.8746 12.1177 47.8049 12.9887 48.192C13.5174 48.427 14.118 48.3952 14.6461 48.6328C15.0761 48.8263 15.4311 49.1121 15.8803 49.2676C16.5323 49.4933 17.1987 50.1031 17.8199 50.4137" stroke="#FE4AA0" stroke-width="2" stroke-linecap="round"/>
<path d="M17.8199 51.5246C18.6719 49.9152 19.333 48.1687 20.2885 46.6052C20.8797 45.6377 21.3753 44.6034 21.9106 43.5901C22.231 42.9836 23.1594 41.5718 24.0089 41.5271C24.9679 41.4766 25.7751 41.051 26.7595 41.051C27.5163 41.051 28.407 40.9234 29.1575 41.0598C29.8022 41.1771 30.5216 41.6454 31.1235 41.9062C31.964 42.2704 32.5611 42.7089 33.301 43.2374C33.9223 43.6812 34.7399 44.4694 35.4345 44.7009" stroke="#FE4AA0" stroke-width="2" stroke-linecap="round"/>
<path d="M36.0693 44.3835C36.5341 44.3319 37.2542 43.4603 37.33 43.0435C37.4873 42.1787 38.6292 41.3108 39.296 40.8218C40.751 39.7548 42.5428 37.9706 44.4887 37.7273C47.0257 37.4102 49.2168 37.7662 51.4094 39.1467C52.8278 40.0398 54.176 41.075 55.1121 42.4792" stroke="#FE4AA0" stroke-width="2" stroke-linecap="round"/>
<path d="M10.9652 54.8142C10.9652 55.4869 10.8658 56.0965 10.6065 56.723C10.4059 57.2075 10.1784 57.6829 9.95667 58.158C9.88879 58.3035 9.78452 58.5679 9.84837 58.1919C10.0412 57.0566 10.3776 55.943 10.6606 54.8277C10.7033 54.6596 10.8354 54.167 10.8434 54.3404C10.8605 54.7112 10.8292 55.0812 10.7486 55.4437C10.4786 56.6589 10.0703 57.7699 9.91606 59.0042C9.88165 59.2795 9.79274 59.537 9.69945 59.7961C9.60911 60.0471 9.72241 59.263 9.74684 58.9974C9.88395 57.5063 9.67924 55.9376 9.02933 54.5773C8.77662 54.0483 8.56433 53.4898 8.36597 52.9392C8.08897 52.1702 7.77189 51.3516 7.68908 50.5362C7.66137 50.2633 7.67554 49.9843 7.67554 49.7104C7.67554 49.6846 7.67126 49.508 7.68908 49.6292C7.74778 50.0284 7.79408 50.4287 7.8583 50.8273C7.96675 51.5003 8.07709 52.1748 8.16291 52.8512C8.23276 53.4018 8.24092 53.93 8.37951 54.469C8.67466 55.6168 8.613 56.8358 8.73827 58.0024C8.74519 58.0668 8.90107 59.0699 8.80595 58.6657C8.53899 57.5311 8.0644 56.4637 7.87184 55.3083C7.65146 53.9861 7.26507 52.636 7.2491 51.2943C7.24568 51.0074 6.87409 49.6179 7.2491 49.4193C7.51149 49.2804 8.13001 49.385 8.39982 49.3923C8.88909 49.4055 9.47012 49.5472 9.9296 49.7104C10.0433 49.7508 10.3515 49.8554 10.417 49.9676C10.5923 50.2682 10.8286 50.5531 10.8569 50.9085C10.9245 51.7565 10.9043 52.6106 10.9043 53.4604C10.9043 53.7592 10.9774 54.1564 10.9043 54.4487C10.8589 54.6304 10.7043 54.1317 10.6133 53.9681C10.2765 53.363 9.94747 52.7569 9.65884 52.1269C9.39255 51.5457 8.97093 50.8509 8.84657 50.2113C8.81934 50.0713 9.32905 50.1168 9.41516 50.0962C10.2531 49.8961 10.8089 49.0369 11.7234 49.1012C12.55 49.1593 13.1493 49.3047 13.8759 49.6495C14.1668 49.7875 14.4005 49.976 14.7152 50.0962C14.9533 50.1872 15.2395 50.2959 15.4869 50.3535C16.2259 50.5253 15.7569 51.207 15.2838 51.45C14.2981 51.9564 13.2641 52.3561 12.2784 52.8647C11.6962 53.1651 11.1437 53.4918 10.6403 53.9139C10.6369 53.9168 10.2573 54.3584 10.2004 54.1847C10.1004 53.8794 10.1684 53.4427 10.1733 53.1287C10.18 52.6993 10.2491 52.3185 10.3831 51.9103C10.5486 51.4062 10.6893 50.8985 10.9517 50.4347C11.1146 50.1467 11.2214 50.1524 11.4052 50.4347C11.919 51.224 12.691 52.1387 12.8267 53.0949C12.9068 53.6591 12.9122 54.2958 12.6575 54.8142C12.6537 54.8219 12.4335 55.2673 12.38 55.2271C12.3147 55.1782 12.365 54.6997 12.3664 54.6517C12.3967 53.6105 12.725 52.5414 13.1448 51.5922C13.2113 51.442 13.3133 51.1563 13.4765 51.0845C13.7002 50.9861 13.933 50.8034 14.1263 51.0574C14.5084 51.5593 14.9053 52.0917 14.5325 52.682C14.3917 52.9049 14.2797 53.309 14.0722 52.973C13.6975 52.3664 13.2212 51.8202 12.8605 51.2063C12.8136 51.1265 12.0375 49.4835 12.7184 49.7104C12.8087 49.7405 12.8924 49.9004 12.9485 49.9609C13.1698 50.199 13.4166 50.4069 13.6796 50.5971C14.0114 50.8372 14.3471 51.0184 14.7152 51.1928C15.2442 51.4434 15.824 51.5665 16.3872 51.7072" stroke="#FF3D95" stroke-width="2" stroke-linecap="round"/>
<path d="M9.13757 58.8959C9.27178 58.9126 9.57948 59.4344 9.6554 59.5694C9.75362 59.744 9.78056 59.9529 9.89908 60.1109C10.1509 60.4466 10.2305 60.8853 10.444 61.2244C10.9673 62.0555 11.4531 62.8572 11.7572 63.7695" stroke="#FF3D95" stroke-width="2" stroke-linecap="round"/>
<path d="M19.9205 49.9406C19.9205 49.3713 20.2314 48.6105 20.462 48.0724C20.7675 47.3596 21.1573 46.5615 21.6128 45.9334C22.0009 45.398 22.2478 44.7574 22.6281 44.2141C23.0528 43.6073 23.8208 43.2172 24.4422 42.8603C24.9898 42.5457 25.6798 42.3875 26.3036 42.3391C27.0019 42.2849 27.7153 42.3255 28.4155 42.3255C28.9809 42.3255 29.5239 42.3247 30.0807 42.4338C31.1962 42.6526 32.1886 43.126 33.191 43.6658C33.3474 43.75 33.9724 44.2537 33.895 44.4239C33.7408 44.7631 32.9772 44.7722 32.6834 44.8233C32.2756 44.8942 31.96 45.006 31.5326 45.006C31.2993 45.006 31.0296 45.1173 30.7948 45.1617C30.5957 45.1994 30.3399 45.2234 30.1552 45.3106C29.7061 45.5227 29.1721 45.607 28.6931 45.7236C28.4134 45.7916 28.1291 45.8479 27.8537 45.9334C27.7183 45.9754 27.5231 45.9496 27.4137 46.0417C26.9839 46.4037 26.1802 46.3711 25.6606 46.4817C25.1831 46.5833 24.7226 46.8211 24.2831 47.0164C23.9386 47.1695 23.5582 47.3636 23.2102 47.5376C22.9493 47.6681 21.9506 47.796 21.8734 48.1434C21.8443 48.2741 21.6129 48.5811 21.6297 48.2788C21.6615 47.7062 22.0146 47.311 22.3777 46.9013C23.0285 46.167 23.7712 45.6448 24.6723 45.2193C25.2911 44.9271 25.6716 44.3475 26.3443 44.1329C27.3932 43.7981 28.502 43.7622 29.5933 43.7301C30.034 43.7171 30.4758 43.7267 30.9167 43.7267C31.0715 43.7267 31.0285 43.9943 30.9471 44.0685C30.681 44.3115 30.2498 44.4291 29.9115 44.5187C29.1817 44.712 28.434 44.8416 27.6913 44.9722C26.9404 45.1043 26.1853 45.2438 25.4237 45.2971C25.2699 45.3079 24.971 45.2481 24.8551 45.3851C24.486 45.8213 23.883 46.1237 23.4539 46.5087C23.1554 46.7766 22.8345 47.1642 22.4927 47.3684C22.1862 47.5515 21.4676 47.9245 21.4435 48.3567C21.4277 48.6419 21.0257 48.9975 21.166 48.3973C21.2448 48.0604 21.4927 47.7436 21.6534 47.4429C21.9745 46.8417 22.5011 46.3442 22.9666 45.8555C23.5052 45.29 24.0707 44.7512 24.608 44.187C24.7147 44.075 24.8369 43.9813 24.9498 43.8756C25.0509 43.7811 24.8076 44.1548 24.7908 44.1836C24.1151 45.3378 23.1356 46.4141 22.1949 47.3549C22.0289 47.5208 21.8319 47.6587 21.7211 47.8693C21.6653 47.9752 21.6366 48.1077 21.562 48.201C21.475 48.3097 21.3479 48.4368 21.3183 48.5699C21.3018 48.6444 21.0848 48.9466 21.0848 48.7391C21.0848 47.9213 22.0063 47.21 22.5401 46.7118" stroke="#FF3D95" stroke-width="2" stroke-linecap="round"/>
<path d="M34.7242 45.006C35.4613 45.006 36.2553 44.7023 36.9783 44.5322C37.3365 44.4479 37.6556 44.3026 37.9835 44.126C38.5192 43.8376 39.1397 43.6235 39.6994 43.3747C40.623 42.9642 41.599 42.5586 42.5762 42.2883C43.0781 42.1495 43.5395 41.9348 44.0518 41.8381C44.8424 41.689 45.6329 41.57 46.4277 41.4388C46.9111 41.359 47.3877 41.3781 47.8729 41.344C48.5008 41.3 49.1218 41.1362 49.7513 41.1105C50.7903 41.0681 51.8333 41.168 52.8548 41.168C52.9067 41.168 53.352 41.1642 53.2644 41.2289C53.0741 41.3696 52.8232 41.3596 52.6078 41.4388C51.6994 41.7729 50.7336 41.6874 49.819 41.9295C49.211 42.0905 48.4126 42.0625 47.7747 42.0818C47.058 42.1036 46.3174 42.1512 45.6087 42.2646C45.0224 42.3584 44.4267 42.3792 43.842 42.5083C43.1695 42.6567 42.4173 42.5692 41.7335 42.5692C40.8434 42.5692 39.944 42.6301 39.0631 42.6301C38.5767 42.6301 38.9535 42.1779 39.1511 41.9803C39.7937 41.3377 40.6011 40.9108 41.2427 40.2881C41.5921 39.949 42.1483 39.664 42.5796 39.4386C42.9672 39.236 43.3357 39.1234 43.7472 38.9749C44.0766 38.856 44.4726 38.6752 44.8303 38.6703C46.0132 38.6541 47.1975 38.6703 48.3806 38.6703C48.9836 38.6703 49.5356 38.6887 50.0762 38.9749C50.2495 39.0667 50.4001 39.1001 50.5872 39.1577C50.9964 39.2835 49.9117 39.5681 49.8663 39.5773C48.5646 39.8414 47.1912 39.7749 45.893 40.0376C44.8151 40.2557 43.8139 40.6157 42.786 40.9785C42.6812 41.0155 42.3014 41.1071 42.583 41.1071C42.9888 41.1071 43.3821 41.0167 43.7811 40.9514C45.9032 40.6042 48.039 40.1324 50.198 40.1324C50.6346 40.1324 51.0712 40.1324 51.5078 40.1324C52.9127 40.1324 48.6831 40.1378 47.3009 40.3896C46.0311 40.621 44.7483 40.9753 43.4629 41.1071C43.0379 41.1507 42.6227 41.2792 42.1971 41.3372C41.9402 41.3723 41.7322 41.3743 41.4864 41.4726" stroke="#FF3D95" stroke-width="2" stroke-linecap="round"/>
<path d="M57.2648 41.3508C57.6691 41.2834 58.1045 40.6823 58.4223 40.4234C58.7285 40.1739 59.0067 39.8733 59.3022 39.6315C59.5165 39.4562 59.7042 39.2545 59.9453 39.1306C60.2433 38.9773 60.6813 38.6983 61.008 38.6703C61.3842 38.638 61.8932 38.4105 62.2264 38.2438C62.5233 38.0954 62.824 37.9214 63.0996 37.7362C63.397 37.5363 63.7799 37.4656 64.1082 37.33C64.4621 37.1839 64.8077 37.0254 65.198 37.0254C65.8003 37.0254 66.4084 37.0003 67.0086 37.0559C67.4518 37.0969 68.0096 37.0364 68.4335 37.1777C68.6606 37.2534 68.9121 37.1821 69.1476 37.2116C69.4381 37.2479 69.797 37.5076 70.0581 37.6346C71.0602 38.1222 72.2254 38.8034 72.8942 39.7398C72.9654 39.8394 73.4791 40.3762 73.4628 40.3794C73.1349 40.445 72.8255 40.437 72.4847 40.437C71.2381 40.437 69.9915 40.437 68.7449 40.437C67.4335 40.437 66.1081 40.3769 64.802 40.5013C63.7555 40.6009 62.7111 40.7621 61.6646 40.877C61.3785 40.9084 61.108 40.9853 60.8185 40.9853C60.647 40.9853 60.4528 40.959 60.2837 40.9988C60.1119 41.0392 59.9265 41.1003 59.749 41.1003C59.6537 41.1003 60.1414 40.7221 60.1957 40.6874C60.9906 40.1796 61.9657 39.7754 62.8627 39.4893C63.5579 39.2676 64.2209 38.9817 64.9306 38.8226C65.894 38.6066 66.8262 38.5484 67.8142 38.5484C68.1159 38.5484 68.5481 38.4748 68.8396 38.5789C69.1772 38.6995 69.5691 38.6416 69.899 38.8192C70.1851 38.9733 70.5427 39.0552 70.85 39.1577" stroke="#FF3D95" stroke-width="2" stroke-linecap="round"/>
<path d="M7.62976 61.7546C7.62976 62.1298 8.11897 62.4937 8.30967 62.8116C8.51 63.1455 8.79947 63.3678 8.96795 63.7048C9.06316 63.8952 9.25245 64.0736 9.37899 64.2363C9.48148 64.3681 9.55396 64.6541 9.68804 64.7463C9.81299 64.8322 9.82007 64.9772 9.92292 65.08C10.047 65.2041 10.2162 65.3534 10.3031 65.5127C10.411 65.7106 10.6579 65.87 10.745 66.0659C10.8191 66.2326 11.1433 66.3614 11.1869 66.514C11.2203 66.6309 11.4407 66.8121 11.5485 66.9003C11.7141 67.0358 11.8774 67.22 12.0307 67.3732C12.7845 68.1271 13.6281 68.5644 14.5834 69.0421" stroke="#F3D054" stroke-linecap="round"/>
<path d="M9.57678 64.2579C9.59945 64.5073 9.94662 64.8908 10.1609 65.0337C10.3606 65.1668 10.4943 65.3656 10.6863 65.5096C10.8117 65.6037 10.9125 65.8344 11.0231 65.9515C11.2563 66.1984 11.4249 66.4942 11.7031 66.7056C12.0896 66.9994 12.4537 67.5226 12.9145 67.707C13.2321 67.834 13.5329 68.0607 13.8355 68.22C14.0328 68.3238 14.4281 68.4533 14.5278 68.6526" stroke="#F3D054" stroke-linecap="round"/>
<path d="M10.1331 65.0367C10.4422 65.2483 10.5646 65.6742 10.8562 65.9144C11.0325 66.0596 11.1836 66.2229 11.3538 66.3718C11.5635 66.5553 11.8342 66.6969 12.0739 66.8385C12.2277 66.9294 12.4679 67.0512 12.5931 67.163C12.719 67.2754 12.8747 67.2971 12.9702 67.4164C13.0648 67.5347 13.3534 67.698 13.4986 67.7626C13.7717 67.8839 14.0719 68.1077 14.3053 68.2632" stroke="#F3D054" stroke-linecap="round"/>
<path d="M6.54224 48.0111C6.81511 47.9838 7.00952 47.7077 7.23207 47.584C7.48285 47.4447 7.78414 47.4376 8.0533 47.303C8.31873 47.1703 8.68509 47.1971 8.97672 47.1241C9.37295 47.0251 9.72413 47.0256 10.152 47.0256C11.0916 47.0256 11.9963 46.9981 12.915 47.2081C13.1756 47.2677 13.4374 47.2847 13.7034 47.3541C13.9116 47.4084 14.2733 47.422 14.4589 47.522C14.8932 47.7558 15.3872 47.875 15.8349 48.0914C15.9762 48.1597 16.1653 48.2067 16.2875 48.3067C16.3761 48.3792 16.3661 48.4525 16.4955 48.5002C16.7375 48.5893 17.1775 48.7129 17.3314 48.9308C17.361 48.9728 17.7516 49.1895 17.7621 49.179C17.8123 49.1287 17.4116 48.8208 17.3423 48.7995C17.1528 48.7412 16.8614 48.6052 16.6963 48.5002C16.5144 48.3844 16.3315 48.3164 16.1488 48.2082C15.9634 48.0983 15.8638 47.9867 15.6415 47.9125C15.3206 47.8056 14.9598 47.6036 14.645 47.5366C14.3008 47.4633 13.9053 47.4456 13.5574 47.4198C13.2578 47.3976 12.9675 47.3021 12.6631 47.2847C12.0415 47.2492 11.4399 47.2227 10.8163 47.2227C10.2286 47.2227 9.64101 47.2227 9.05337 47.2227C8.68854 47.2227 8.31736 47.204 7.9657 47.3212C7.71787 47.4039 7.52495 47.4855 7.26492 47.4855" stroke="#FF3D95" stroke-linecap="round"/>
<path d="M7.13354 47.814C7.17545 47.4788 7.99594 47.3602 8.18472 47.1242C8.39396 46.8626 9.04853 46.8776 9.33809 46.8249C10.2766 46.6543 11.2754 46.6315 12.2434 46.6315C13.2285 46.6315 14.1866 46.8932 15.0903 47.2629C15.7289 47.5241 16.4225 47.7895 16.9883 48.1936C17.4674 48.5358 17.9838 48.8686 18.5651 49.0623" stroke="#FF3D95" stroke-linecap="round"/>
<path d="M19.4788 48.3612C18.7084 48.3612 18.0156 48.0768 17.2032 48.0768" stroke="#FF3D95" stroke-linecap="round"/>
<path d="M7.33582 47.5239C7.47752 47.5239 7.8362 47.4451 7.91055 47.3369C8.02338 47.1728 8.44222 47.1982 8.61684 47.1188C8.96047 46.9626 9.35206 46.7141 9.73169 46.6653C11.3624 46.4556 13.0658 46.5268 14.7138 46.5268C15.3232 46.5268 16.0288 46.7205 16.6215 46.8522C17.4103 47.0275 18.1946 47.2294 18.9586 47.4304C19.173 47.4869 19.3198 47.5646 19.5333 47.5897C19.6909 47.6082 20.1521 47.7003 19.9938 47.7109C19.8728 47.7189 19.7481 47.7109 19.6268 47.7109C19.0385 47.7109 18.4708 47.6385 17.8853 47.5897C17.459 47.5542 17.0478 47.3993 16.6215 47.3993" stroke="#FF3D95" stroke-linecap="round"/>
<path d="M33.6169 42.5264C33.7567 42.6605 33.885 42.7825 34.0623 42.8699C34.2335 42.9541 34.4305 42.9869 34.5964 43.0699C34.8592 43.2013 35.1126 43.376 35.4061 43.436C35.5415 43.4637 35.703 43.4436 35.8402 43.4436C36.0203 43.4436 36.2772 43.4926 36.4328 43.3926C36.6415 43.2584 36.8394 43.1619 37.031 43.0057C37.2902 42.7945 37.4872 42.5567 37.6935 42.2886" stroke="#FF3D95" stroke-linecap="round"/>
<path d="M31.8505 41.6432C32.0682 41.6214 32.1901 41.6771 32.3978 41.7621C32.4886 41.7992 32.6074 41.806 32.6714 41.8828C32.7281 41.9508 32.8683 42.0202 32.9526 42.0508C33.1917 42.1377 33.441 42.4184 33.617 42.5943" stroke="#FF3D95" stroke-linecap="round"/>
<path d="M37.0141 42.7641C36.761 42.8596 36.5969 43.026 36.4027 43.2057C36.3672 43.2385 35.9409 43.5318 35.9365 43.5209C35.8999 43.4293 36.4705 42.9605 36.5555 42.9113C36.6522 42.8553 36.6991 42.7092 36.7782 42.6301C36.8949 42.5135 37.0424 42.3914 37.1764 42.296C37.3742 42.1552 37.5494 41.9723 37.7596 41.8506C37.9696 41.7291 38.1214 41.548 38.339 41.4392" stroke="#FF3D95" stroke-linecap="round"/>
<path d="M36.4366 43.0359C36.3669 43.1753 36.3648 43.1351 36.4064 42.9925C36.4639 42.7954 36.5432 42.6221 36.6555 42.4509C36.7934 42.2408 36.9441 42.0142 37.1141 41.83C37.2974 41.6315 37.5043 41.435 37.6784 41.2279C37.861 41.0109 38.1255 40.8555 38.3579 40.6882C38.9517 40.2606 39.4616 39.7582 40.113 39.4086C40.9505 38.9592 41.8692 38.5163 42.8232 38.4159" stroke="#FF3D95" stroke-linecap="round"/>
<path d="M56.4729 41.3886C56.5124 41.1999 56.563 41.0164 56.6214 40.8328C56.6675 40.6882 56.7619 40.5854 56.8131 40.4447C56.9024 40.1991 57.1192 40.0075 57.2683 39.7906C57.5623 39.363 58.0126 39.1504 58.38 38.7915C58.5782 38.5979 58.8794 38.4896 59.1275 38.3699C59.5914 38.1459 60.0402 37.9402 60.474 37.6631C61.1102 37.2566 61.7198 36.9228 62.4242 36.688" stroke="#FF3D95" stroke-linecap="round"/>
<path d="M56.6023 40.828C56.6541 40.0515 57.3908 39.539 57.8433 38.9928C58.1395 38.6353 58.5536 38.3502 58.8879 38.0249C59.5159 37.4138 60.4468 37.2123 61.2383 36.8605C61.5713 36.7124 61.8544 36.505 62.2038 36.3885C62.707 36.2208 63.1672 36.2136 63.6916 36.2136C64.8093 36.2136 66.0723 36.0513 67.1249 36.4724" stroke="#FF3D95" stroke-linecap="round"/>
<path d="M53.9266 42.3733C53.9399 42.2536 54.2807 42.1217 54.3742 42.075C54.4232 42.0505 54.4867 42.0481 54.5302 42.0142C54.5554 41.9946 54.438 42.0186 54.4239 42.0252C54.3671 42.052 54.3054 42.0783 54.2526 42.1123C54.1704 42.1651 54.4478 42.1269 54.4626 42.1247C54.7205 42.0861 54.9942 42.0501 55.2554 42.0501C55.4741 42.0501 55.6 42.0871 55.7168 42.2794C55.7773 42.379 55.6784 42.5295 55.6145 42.604C55.4907 42.7485 55.2025 42.8506 55.0206 42.8844C54.8746 42.9115 54.6961 42.9075 54.5482 42.8927C54.4781 42.8857 54.2129 42.831 54.1808 42.7587C54.1588 42.7092 54.4723 42.7027 54.4847 42.7021C54.896 42.6824 55.3012 42.7298 55.7112 42.7435C55.9395 42.7511 56.168 42.7426 56.3964 42.7463C56.4796 42.7476 56.4805 42.809 56.4143 42.8582C56.1632 43.0445 55.6627 42.9813 55.377 42.9894C55.1385 42.9961 54.9 42.9949 54.6615 42.9949C54.3576 42.9949 54.0537 42.9949 53.7498 42.9949C53.4336 42.9949 53.1188 43.0198 52.8036 43.0198C52.6735 43.0198 52.5488 43.0664 52.4182 43.0695C52.3772 43.0705 52.1271 43.1064 52.2401 43.0709C52.9803 42.8378 53.7238 42.7055 54.4805 42.5474C54.6409 42.5139 54.8318 42.4479 54.9957 42.4479" stroke="#FD57AC" stroke-linecap="round"/>
<path d="M56.3859 38.9294C56.5479 38.5083 56.9362 38.1368 57.1752 37.751C57.4642 37.2847 57.8778 36.8401 58.3369 36.5282C58.7155 36.271 59.1044 36.0868 59.5153 35.8889C59.7488 35.7765 60.1502 35.6614 60.413 35.6305C60.8849 35.575 61.3798 35.6185 61.8554 35.5805C62.1057 35.5604 62.362 35.5276 62.6114 35.5276C63.1708 35.5276 63.7372 35.5777 64.29 35.5777C64.5385 35.5777 64.8159 35.7705 65.0404 35.8667C65.183 35.9278 65.4608 35.9311 65.5795 36.039C65.8462 36.2815 66.3508 36.3223 66.594 36.606C66.7036 36.7339 66.9828 36.8764 67.1387 36.9284C67.3494 36.9986 67.4947 37.217 67.6667 37.3508C67.8631 37.5036 68.3133 37.8424 68.3921 38.079" stroke="#F3D054" stroke-linecap="round"/>
<path d="M52.7953 41.8235C53.2206 41.6345 53.7276 41.5326 54.1826 41.4544C54.668 41.371 55.1635 41.3217 55.6526 41.2635C55.9003 41.234 56.1417 41.1418 56.3908 41.1362C56.422 41.1355 56.7193 41.1362 56.6103 41.1362C56.1554 41.1362 55.7656 41.2046 55.3217 41.3017C54.9952 41.3731 54.6628 41.3579 54.3353 41.4226C54.0489 41.4792 53.7734 41.5581 53.4826 41.5944" stroke="#FF3D95" stroke-linecap="round"/>
<path d="M37.1025 42.8545C37.1147 42.4271 37.3931 42.0446 37.5893 41.674C37.7375 41.3941 37.9063 41.1342 38.1334 40.9072C38.3887 40.6519 38.6886 40.4383 38.9225 40.1626C39.1538 39.89 39.5775 39.7102 39.8452 39.4499C40.1788 39.1256 40.6184 38.9524 40.9748 38.6735C41.3402 38.3875 41.7686 38.1955 42.203 38.0435C43.2773 37.6675 44.3734 37.6647 45.4898 37.754C45.8534 37.7831 46.2036 37.8279 46.5653 37.8844C47.3045 37.9999 48.044 37.9863 48.7798 38.1453C49.9755 38.4039 51.2725 38.6465 52.3689 39.2208C52.8496 39.4726 53.3046 39.8592 53.8135 40.0354C54.1489 40.1515 54.4492 40.3382 54.7426 40.4935C54.8879 40.5705 55.0509 40.6754 55.2008 40.7354" stroke="#FF3D95" stroke-linecap="round"/>
<path d="M55.8307 41.1363C56.0459 41.1124 56.3804 40.6653 56.5371 40.5317C56.8423 40.2715 57.1383 40.0342 57.4662 39.8063C57.918 39.4922 58.3207 38.8099 58.8662 38.6735" stroke="#FF3D95" stroke-linecap="round"/>
<path d="M55.7162 41.3653C55.7162 40.4341 56.8031 39.4679 57.5489 38.9853C58.9507 38.0783 60.4621 36.959 62.1849 36.7867C63.2845 36.6767 64.369 36.6689 65.4781 36.6689C66.1436 36.6689 66.83 36.8217 67.3999 37.1844C67.621 37.3251 67.8866 37.4134 68.0872 37.5853C68.2453 37.7208 68.4336 37.826 68.6026 37.948C68.7091 38.025 68.7499 38.1189 68.8444 38.1899C69.0171 38.3194 69.1977 38.5281 69.3344 38.7053C69.5094 38.9322 69.7599 39.0902 69.9199 39.3035" stroke="#FF3D95" stroke-linecap="round"/>
<path d="M62.5317 36.6117C62.574 36.2728 64.5135 36.4399 64.7367 36.4399C65.1623 36.4399 65.6145 36.3741 65.9967 36.5799C66.1754 36.6761 66.4167 36.7408 66.6108 36.8217C66.9109 36.9468 67.1829 37.1675 67.4699 37.2863C67.7903 37.4188 68.1248 37.6135 68.3608 37.859C68.641 38.1504 69.0527 38.3424 69.3122 38.6417C69.6932 39.0814 70.1397 39.4661 70.5499 39.8763" stroke="#FF3D95" stroke-linecap="round"/>
</g>
<g clip-path="url(#clip1_15_139)">
<path d="M125.696 66.463C126.259 66.3803 126.812 65.7752 127.363 65.543C127.627 65.4314 127.996 64.4911 128.19 64.2364C129.293 62.7921 129.942 61.171 130.986 59.6524C132.483 57.4765 133.408 54.7116 133.584 52.0754C133.665 50.8725 133.677 49.0648 132.466 48.3414C131.762 47.9205 130.499 48.1446 129.737 48.1298C128.795 48.1116 127.63 48.0193 126.752 48.3894C126.218 48.6141 125.618 48.5707 125.086 48.798C124.652 48.9832 124.292 49.262 123.84 49.4088C123.183 49.6218 122.505 50.2186 121.878 50.5171" stroke="#FE4AA0" stroke-width="2" stroke-linecap="round"/>
<path d="M121.857 51.6278C121.036 50.0022 120.409 48.2432 119.484 46.6615C118.911 45.6827 118.436 44.639 117.92 43.6155C117.612 43.003 116.711 41.5734 115.863 41.5123C114.905 41.4432 114.106 41.0021 113.122 40.983C112.365 40.9683 111.477 40.8235 110.724 40.9453C110.077 41.0501 109.349 41.5043 108.742 41.7534C107.894 42.1013 107.289 42.5281 106.539 43.0422C105.909 43.4739 105.076 44.2461 104.378 44.4641" stroke="#FE4AA0" stroke-width="2" stroke-linecap="round"/>
<path d="M103.749 44.1344C103.285 44.0738 102.582 43.1885 102.515 42.7702C102.374 41.9026 101.249 41.0127 100.592 40.5109C99.1579 39.4159 97.401 37.5973 95.4602 37.3164C92.9299 36.9502 90.7323 37.2637 88.5133 38.6015C87.0779 39.4669 85.7099 40.4757 84.7467 41.8616" stroke="#FE4AA0" stroke-width="2" stroke-linecap="round"/>
<path d="M128.646 55.0495C128.633 55.7221 128.721 56.3335 128.968 56.965C129.159 57.4532 129.377 57.9329 129.59 58.4123C129.655 58.559 129.754 58.8254 129.698 58.4482C129.527 57.3094 129.212 56.1896 128.951 55.069C128.911 54.9 128.789 54.405 128.777 54.5781C128.753 54.9486 128.777 55.3191 128.851 55.6831C129.097 56.9034 129.484 58.022 129.614 59.259C129.643 59.5349 129.727 59.7942 129.815 60.055C129.901 60.3077 129.803 59.5216 129.783 59.2555C129.675 57.7621 129.91 56.1976 130.586 54.8502C130.849 54.3262 131.072 53.7719 131.281 53.2252C131.573 52.4618 131.906 51.6495 132.005 50.8358C132.038 50.5635 132.029 50.2842 132.034 50.0104C132.035 49.9846 132.042 49.8081 132.022 49.929C131.956 50.3269 131.902 50.7263 131.83 51.1236C131.708 51.7943 131.585 52.4666 131.486 53.1412C131.406 53.6903 131.387 54.2183 131.238 54.7545C130.921 55.8963 130.959 57.1163 130.811 58.2802C130.803 58.3446 130.628 59.3445 130.731 58.9422C131.019 57.8129 131.515 56.7549 131.73 55.6035C131.975 54.2857 132.388 52.9435 132.43 51.6023C132.439 51.3155 132.837 49.9335 132.466 49.7277C132.207 49.5837 131.586 49.6763 131.316 49.6783C130.827 49.6821 130.243 49.8125 129.781 49.9668C129.666 50.005 129.356 50.1036 129.288 50.2145C129.107 50.5116 128.865 50.7919 128.83 51.1467C128.746 51.9932 128.75 52.8475 128.733 53.6972C128.728 53.9959 128.647 54.3917 128.714 54.6852C128.756 54.8678 128.92 54.3722 129.015 54.2104C129.363 53.6119 129.704 53.0123 130.005 52.3881C130.282 51.8121 130.717 51.1256 130.854 50.4886C130.884 50.3491 130.373 50.3847 130.287 50.3625C129.454 50.1462 128.915 49.2764 127.999 49.3229C127.171 49.365 126.569 49.4987 125.836 49.8294C125.543 49.9618 125.305 50.1457 124.988 50.2598C124.749 50.3461 124.46 50.4493 124.212 50.502C123.47 50.6596 123.925 51.3502 124.394 51.6023C125.369 52.1277 126.395 52.5474 127.371 53.075C127.947 53.3866 128.493 53.7239 128.989 54.1557C128.992 54.1587 129.363 54.6075 129.423 54.4349C129.529 54.1317 129.47 53.6937 129.471 53.3797C129.472 52.9502 129.411 52.5682 129.285 52.1575C129.129 51.6503 128.998 51.1399 128.745 50.6711C128.587 50.38 128.48 50.3836 128.291 50.6623C127.762 51.4415 126.973 52.3411 126.818 53.2945C126.728 53.857 126.71 54.4935 126.954 55.0167C126.958 55.0245 127.17 55.4741 127.224 55.4349C127.29 55.3873 127.249 54.9079 127.249 54.86C127.238 53.8184 126.931 52.7431 126.53 51.7859C126.466 51.6345 126.37 51.3469 126.208 51.2719C125.986 51.1691 125.757 50.982 125.559 51.2322C125.167 51.7266 124.76 52.2512 125.121 52.8486C125.257 53.0742 125.362 53.4804 125.576 53.1485C125.962 52.5493 126.449 52.0123 126.821 51.4056C126.87 51.3267 127.677 49.699 126.992 49.9127C126.901 49.9411 126.815 50.0994 126.757 50.1587C126.532 50.3925 126.281 50.5956 126.014 50.7807C125.678 51.0142 125.339 51.189 124.967 51.3562C124.433 51.5964 123.851 51.7083 123.286 51.8381" stroke="#FF3D95" stroke-width="2" stroke-linecap="round"/>
<path d="M130.395 59.1658C130.26 59.18 129.942 59.6957 129.864 59.8292C129.762 60.0019 129.731 60.2102 129.61 60.3659C129.351 60.6967 129.263 61.1337 129.043 61.4686C128.504 62.2894 128.003 63.0816 127.681 63.9878" stroke="#FF3D95" stroke-width="2" stroke-linecap="round"/>
<path d="M119.787 50.0034C119.798 49.4342 119.502 48.6675 119.282 48.125C118.99 47.4065 118.616 46.601 118.173 45.9641C117.795 45.4214 117.561 44.776 117.191 44.2255C116.778 43.6106 116.018 43.2057 115.403 42.8368C114.862 42.5117 114.175 42.3401 113.552 42.2796C112.855 42.2119 112.141 42.2387 111.441 42.2252C110.876 42.2142 110.333 42.2028 109.774 42.3012C108.655 42.4983 107.653 42.9524 106.641 43.4727C106.483 43.5538 105.848 44.0453 105.922 44.217C106.07 44.5591 106.833 44.583 107.126 44.6398C107.532 44.7186 107.845 44.8365 108.273 44.8448C108.506 44.8493 108.774 44.9658 109.007 45.0147C109.206 45.0563 109.461 45.0852 109.644 45.176C110.089 45.3967 110.621 45.4914 111.098 45.6172C111.376 45.6906 111.659 45.7524 111.933 45.8432C112.068 45.8879 112.263 45.8658 112.371 45.96C112.794 46.3303 113.598 46.3133 114.115 46.4339C114.591 46.5447 115.046 46.7914 115.482 46.9952C115.823 47.155 116.2 47.3564 116.545 47.5371C116.803 47.6726 117.799 47.8199 117.869 48.1687C117.896 48.2999 118.121 48.6114 118.11 48.3088C118.09 47.7356 117.744 47.3337 117.389 46.9171C116.753 46.1703 116.02 45.6338 115.128 45.1909C114.515 44.8868 114.145 44.2999 113.477 44.0723C112.435 43.7172 111.327 43.6599 110.236 43.6066C109.796 43.5852 109.354 43.5862 108.913 43.5776C108.759 43.5746 108.796 43.8429 108.876 43.9188C109.138 44.1669 109.567 44.2928 109.903 44.3889C110.629 44.5963 111.374 44.7404 112.114 44.8854C112.862 45.032 113.614 45.1861 114.375 45.2541C114.529 45.2679 114.828 45.2139 114.942 45.3531C115.302 45.7964 115.899 46.1105 116.321 46.5037C116.614 46.7773 116.928 47.1711 117.265 47.3818C117.568 47.5709 118.279 47.9577 118.295 48.3902C118.305 48.6757 118.7 49.039 118.572 48.4362C118.5 48.0978 118.258 47.7764 118.103 47.4725C117.794 46.8653 117.277 46.3577 116.821 45.8601C116.293 45.2842 115.738 44.7345 115.212 44.16C115.107 44.046 114.987 43.9499 114.876 43.8421C114.777 43.7456 115.013 44.124 115.029 44.1531C115.682 45.3202 116.641 46.4153 117.563 47.3741C117.726 47.5432 117.92 47.6849 118.027 47.8976C118.081 48.0045 118.107 48.1376 118.18 48.2323C118.265 48.3427 118.389 48.4722 118.416 48.6058C118.431 48.6807 118.642 48.987 118.646 48.7796C118.662 47.9619 117.755 47.2329 117.231 46.7244" stroke="#FF3D95" stroke-width="2" stroke-linecap="round"/>
<path d="M105.082 44.7829C104.345 44.7686 103.557 44.4496 102.837 44.2655C102.481 44.1743 102.165 44.0229 101.84 43.84C101.31 43.5412 100.694 43.3151 100.139 43.0555C99.2236 42.6272 98.2557 42.2027 97.2839 41.9136C96.7848 41.765 96.3276 41.5415 95.8173 41.4349C95.0298 41.2705 94.2417 41.1362 93.4496 40.9896C92.9679 40.9004 92.491 40.9103 92.0065 40.8669C91.3796 40.8106 90.7619 40.6349 90.133 40.597C89.095 40.5345 88.0503 40.6142 87.0289 40.5944C86.9771 40.5934 86.532 40.5809 86.6183 40.6474C86.8058 40.7917 87.0569 40.7865 87.2707 40.8699C88.1724 41.2215 89.1397 41.1548 90.0495 41.4146C90.6542 41.5872 91.453 41.5747 92.0904 41.6064C92.8066 41.642 93.5461 41.704 94.2525 41.8311C94.8369 41.9363 95.4321 41.9686 96.0141 42.109C96.6836 42.2705 97.4374 42.1975 98.1211 42.2107C99.011 42.228 99.909 42.3063 100.79 42.3234C101.276 42.3328 100.908 41.8734 100.714 41.672C100.084 41.0171 99.2853 40.5746 98.6559 39.9396C98.3132 39.5937 97.7626 39.2981 97.3358 39.0643C96.9522 38.8542 96.5859 38.7346 96.1773 38.5781C95.8504 38.4529 95.4578 38.2644 95.1004 38.2526C93.918 38.2135 92.7336 38.2067 91.5508 38.1838C90.9479 38.1721 90.3956 38.1798 89.8496 38.4555C89.6745 38.5439 89.5232 38.5744 89.3351 38.6283C88.9236 38.7463 90.0025 39.0518 90.0477 39.0619C91.344 39.3512 92.7185 39.3112 94.0114 39.5991C95.0848 39.838 96.0789 40.2173 97.0995 40.6C97.2036 40.639 97.5816 40.7379 97.3 40.7325C96.8943 40.7246 96.5028 40.6266 96.1052 40.5536C93.9902 40.1653 91.8639 39.6522 89.7053 39.6104C89.2688 39.6019 88.8323 39.5935 88.3958 39.585C86.9911 39.5578 91.2199 39.6451 92.5969 39.9237C93.862 40.1796 95.1376 40.5587 96.4202 40.7154C96.8444 40.7672 97.2569 40.9038 97.6813 40.97C97.9376 41.0101 98.1455 41.0161 98.3893 41.1192" stroke="#FF3D95" stroke-width="2" stroke-linecap="round"/>
<path d="M82.6163 40.6917C82.2133 40.6165 81.7896 40.0071 81.477 39.7421C81.1756 39.4867 80.9033 39.1807 80.6125 38.9333C80.4017 38.7538 80.2179 38.5486 79.9793 38.42C79.6843 38.2609 79.2518 37.9735 78.9257 37.9392C78.5502 37.8997 78.0457 37.6623 77.7158 37.4892C77.4218 37.3351 77.1245 37.1553 76.8526 36.9647C76.5591 36.7591 76.1777 36.6811 75.8521 36.5391C75.5011 36.3861 75.1586 36.221 74.7684 36.2135C74.1661 36.2018 73.5587 36.1649 72.9574 36.2089C72.5135 36.2413 71.957 36.17 71.5305 36.3031C71.302 36.3743 71.0519 36.2982 70.8158 36.3231C70.5248 36.3537 70.1609 36.6065 69.8974 36.7284C68.886 37.1965 67.7078 37.855 67.021 38.7782C66.9479 38.8764 66.4239 39.4032 66.4401 39.4067C66.7667 39.4787 67.0762 39.4766 67.4169 39.4832C68.6633 39.5074 69.9097 39.5315 71.156 39.5557C72.4672 39.5811 73.7935 39.5467 75.097 39.6963C76.1413 39.8163 77.1824 39.9976 78.2265 40.1327C78.5119 40.1697 78.7808 40.2518 79.0703 40.2574C79.2418 40.2607 79.4364 40.2382 79.6047 40.2813C79.7757 40.325 79.9599 40.3897 80.1374 40.3932C80.2327 40.395 79.7524 40.0075 79.6987 39.9717C78.9139 39.4486 77.9467 39.0256 77.0555 38.7222C76.3647 38.487 75.7073 38.1883 75.0009 38.0155C74.0418 37.7809 73.1109 37.7047 72.1232 37.6855C71.8215 37.6797 71.3908 37.5977 71.0973 37.6961C70.7574 37.8101 70.3668 37.7446 70.0335 37.9158C69.7444 38.0643 69.3854 38.1393 69.0761 38.2358" stroke="#FF3D95" stroke-width="2" stroke-linecap="round"/>
<path d="M131.847 62.0533C131.839 62.4284 131.343 62.7828 131.146 63.0969C130.94 63.4268 130.646 63.6435 130.471 63.9771C130.372 64.1656 130.179 64.3404 130.05 64.5006C129.945 64.6304 129.867 64.9149 129.731 65.0045C129.604 65.0879 129.594 65.2328 129.49 65.3336C129.363 65.4553 129.191 65.6012 129.101 65.7589C128.989 65.9546 128.739 66.1092 128.649 66.3034C128.571 66.4686 128.245 66.5911 128.198 66.7429C128.162 66.859 127.938 67.036 127.829 67.1221C127.661 67.2543 127.494 67.4353 127.338 67.5855C126.569 68.3247 125.718 68.7456 124.753 69.2046" stroke="#F3D054" stroke-linecap="round"/>
<path d="M129.852 64.5184C129.824 64.7673 129.47 65.144 129.253 65.2827C129.05 65.412 128.913 65.6081 128.718 65.7484C128.591 65.84 128.486 66.0687 128.373 66.1837C128.135 66.426 127.96 66.7185 127.678 66.9245C127.286 67.2107 126.912 67.7268 126.448 67.9021C126.128 68.023 125.823 68.2439 125.517 68.3972C125.318 68.4972 124.92 68.619 124.816 68.8164" stroke="#F3D054" stroke-linecap="round"/>
<path d="M129.28 65.2863C128.967 65.4918 128.837 65.9153 128.54 66.1498C128.361 66.2915 128.207 66.4519 128.034 66.5975C127.821 66.7769 127.547 66.9132 127.305 67.0501C127.149 67.1381 126.907 67.2552 126.779 67.3645C126.651 67.4745 126.495 67.4931 126.398 67.6106C126.301 67.727 126.009 67.8847 125.863 67.9464C125.587 68.0625 125.283 68.2804 125.046 68.4314" stroke="#F3D054" stroke-linecap="round"/>
<path d="M133.2 48.3334C132.928 48.3008 132.739 48.021 132.519 47.8931C132.271 47.7489 131.97 47.7359 131.703 47.5962C131.44 47.4583 131.074 47.478 130.783 47.3995C130.389 47.2928 130.038 47.2865 129.61 47.2782C128.671 47.26 127.767 47.215 126.844 47.4071C126.583 47.4616 126.32 47.4736 126.053 47.5378C125.844 47.5881 125.482 47.5947 125.295 47.691C124.856 47.9164 124.36 48.026 123.908 48.2337C123.765 48.2992 123.575 48.3426 123.451 48.4402C123.361 48.511 123.37 48.5844 123.239 48.6296C122.996 48.714 122.553 48.829 122.395 49.044C122.365 49.0854 121.97 49.2944 121.96 49.2838C121.911 49.2325 122.317 48.9324 122.387 48.9124C122.577 48.8578 122.872 48.7275 123.039 48.6257C123.223 48.5135 123.407 48.4491 123.592 48.3443C123.779 48.2381 123.881 48.1284 124.105 48.0586C124.428 47.9579 124.792 47.7629 125.108 47.702C125.454 47.6355 125.85 47.6253 126.198 47.6063C126.498 47.5899 126.79 47.5001 127.095 47.4886C127.717 47.4651 128.319 47.4503 128.942 47.4624C129.53 47.4737 130.117 47.4851 130.705 47.4965C131.07 47.5036 131.441 47.4921 131.79 47.6161C132.037 47.7035 132.228 47.7889 132.488 47.7939" stroke="#FF3D95" stroke-linecap="round"/>
<path d="M132.613 48.1249C132.577 47.7889 131.759 47.6544 131.575 47.4148C131.371 47.1493 130.716 47.1515 130.428 47.0933C129.493 46.9045 128.495 46.8623 127.527 46.8436C126.542 46.8245 125.579 47.0676 124.668 47.4197C124.025 47.6685 123.326 47.9204 122.753 48.3135C122.267 48.6464 121.744 48.969 121.159 49.1515" stroke="#FF3D95" stroke-linecap="round"/>
<path d="M120.259 48.4329C121.03 48.4478 121.728 48.1768 122.54 48.1926" stroke="#FF3D95" stroke-linecap="round"/>
<path d="M132.416 47.8309C132.275 47.8282 131.918 47.7424 131.845 47.6328C131.736 47.4666 131.316 47.4838 131.143 47.4011C130.803 47.2383 130.416 46.9822 130.038 46.926C128.411 46.6848 126.707 46.723 125.059 46.691C124.45 46.6792 123.741 46.8592 123.145 46.9795C122.353 47.1394 121.565 47.3261 120.798 47.5123C120.582 47.5645 120.434 47.6394 120.22 47.6604C120.062 47.6759 119.599 47.759 119.757 47.7726C119.878 47.783 120.003 47.7774 120.124 47.7797C120.712 47.7911 121.281 47.7297 121.868 47.6923C122.294 47.665 122.709 47.5181 123.135 47.5264" stroke="#FF3D95" stroke-linecap="round"/>
<path d="M106.237 42.3252C106.095 42.4566 105.964 42.5761 105.785 42.66C105.612 42.741 105.415 42.7699 105.247 42.8497C104.982 42.9759 104.725 43.1457 104.43 43.2C104.295 43.2251 104.133 43.2018 103.996 43.1992C103.816 43.1957 103.558 43.2398 103.405 43.1368C103.199 42.9985 103.003 42.8982 102.814 42.7384C102.559 42.5222 102.367 42.2805 102.166 42.0085" stroke="#FF3D95" stroke-linecap="round"/>
<path d="M108.02 41.4764C107.803 41.4504 107.68 41.5037 107.471 41.5846C107.379 41.62 107.26 41.6245 107.195 41.7001C107.137 41.767 106.995 41.8336 106.91 41.8626C106.67 41.9449 106.415 42.2206 106.236 42.3931" stroke="#FF3D95" stroke-linecap="round"/>
<path d="M102.836 42.497C103.087 42.5974 103.248 42.767 103.439 42.9504C103.473 42.9839 103.894 43.2854 103.899 43.2745C103.937 43.1837 103.375 42.7039 103.291 42.6531C103.196 42.5952 103.152 42.4483 103.074 42.3676C102.96 42.2487 102.815 42.1239 102.683 42.0259C102.488 41.8813 102.316 41.695 102.108 41.5693C101.901 41.4437 101.752 41.2597 101.537 41.1467" stroke="#FF3D95" stroke-linecap="round"/>
<path d="M103.408 42.7801C103.475 42.9207 103.478 42.8806 103.439 42.7372C103.385 42.5391 103.309 42.3642 103.2 42.1909C103.067 41.9781 102.92 41.7487 102.754 41.5612C102.575 41.3592 102.371 41.1587 102.201 40.9483C102.023 40.7278 101.762 40.5673 101.533 40.3955C100.947 39.9565 100.447 39.4443 99.8025 39.0822C98.9739 38.6167 98.0639 38.156 97.1121 38.0371" stroke="#FF3D95" stroke-linecap="round"/>
<path d="M83.4073 40.7449C83.3714 40.5554 83.3244 40.371 83.2695 40.1863C83.2263 40.0408 83.1339 39.9362 83.0854 39.7945C83.0009 39.5473 82.7878 39.3514 82.643 39.1317C82.3573 38.6985 81.9112 38.4772 81.5509 38.1113C81.3564 37.9139 81.0574 37.7998 80.8117 37.6752C80.3522 37.4423 79.9075 37.228 79.4791 36.9425C78.8509 36.5238 78.2479 36.1782 77.5482 35.9298" stroke="#FF3D95" stroke-linecap="round"/>
<path d="M83.2888 40.1819C83.2521 39.4045 82.5254 38.8778 82.0835 38.323C81.7943 37.9598 81.3859 37.6667 81.0579 37.335C80.4418 36.7119 79.5151 36.4923 78.7306 36.1253C78.4004 35.9708 78.1214 35.7579 77.7744 35.6347C77.2745 35.4572 76.8145 35.4412 76.2902 35.431C75.1727 35.4093 73.9131 35.2226 72.8526 35.6232" stroke="#FF3D95" stroke-linecap="round"/>
<path d="M77.9825 32.9558C77.8716 33.0778 77.7849 33.213 77.6893 33.3469" stroke="#F3D054" stroke-linecap="round"/>
<path d="M66.4912 35.6777C66.5196 35.4508 67.1478 36.0159 67.1888 36.0473C67.3782 36.1926 67.535 36.3645 67.7168 36.5059C67.8517 36.6108 67.949 36.5485 68.0892 36.4503C68.3068 36.298 68.4985 36.1906 68.7312 36.0668C68.8743 35.9907 69.0547 36.0157 69.1676 35.9028C69.2417 35.8287 69.2845 35.7777 69.3927 35.7777" stroke="#F3D054" stroke-linecap="round"/>
<path d="M66.8502 36.4314C66.64 36.4577 67.1259 37.0021 67.1367 37.0507C67.1558 37.1368 67.3249 37.217 67.4039 37.2443C67.5173 37.2836 67.6132 37.437 67.7271 37.4972C67.8683 37.5717 67.9687 37.691 68.1176 37.7548C68.2644 37.8177 68.3995 37.89 68.5496 37.9436C68.6566 37.9818 68.7372 38.0653 68.8377 38.1244C68.8655 38.1408 68.9282 38.1496 68.9465 38.1661C69.0065 38.2201 68.9735 38.2559 69.0681 38.2749" stroke="#F3D054" stroke-linecap="round"/>
<path d="M69.2121 38.4477C69.3682 38.1354 69.5345 37.8389 69.7754 37.582C70.0985 37.2372 70.4365 36.8823 70.7963 36.5738C71.0026 36.397 71.1981 36.212 71.4236 36.057C71.5098 35.9977 71.6098 35.881 71.7052 35.8538C71.8469 35.8133 71.9305 35.6758 72.0636 35.6249C72.4665 35.4711 72.8499 35.2704 73.283 35.1993C73.559 35.154 73.8278 35.0849 74.1007 35.0233C74.2842 34.9818 74.4822 34.9744 74.6559 34.9048" stroke="#F3D054" stroke-linecap="round"/>
<path d="M67.0806 36.5466C67.3196 36.5466 67.4649 36.7793 67.6743 36.8795C67.8925 36.9838 68.1344 37.114 68.284 37.2955C68.4101 37.4487 68.5334 37.6877 68.6792 37.8012C68.7246 37.8365 68.7387 37.8844 68.7576 37.9356C68.78 37.9959 68.8371 38.0096 68.8648 38.0604C68.8983 38.1217 68.9689 38.167 68.9832 38.2316C69.0031 38.321 69.1686 38.4443 69.2185 38.5341C69.2287 38.5525 69.3789 38.6757 69.2777 38.6141C69.1434 38.5324 69.0378 38.4154 68.9368 38.3052C68.7995 38.1554 68.6246 38.0562 68.5208 37.8716C68.4957 37.827 68.4161 37.7125 68.3704 37.6924C68.2861 37.6553 68.2136 37.5068 68.1463 37.4395" stroke="#F3D054" stroke-linecap="round"/>
<path d="M69.7306 38.7933C69.7306 38.4023 69.9027 38.0589 70.0474 37.7052C70.1139 37.5425 70.2292 37.3422 70.3451 37.2155C70.5201 37.0242 70.6073 36.7841 70.8123 36.6106C71.2284 36.2585 71.6346 35.8759 72.0861 35.5673C72.5863 35.2254 73.1748 35.0422 73.7343 34.8184" stroke="#F3D054" stroke-linecap="round"/>
<path d="M70.0186 38.6205C70.0186 38.3292 70.2443 38.1363 70.393 37.9132C70.6216 37.5704 70.9014 37.1956 71.1963 36.9099C71.3722 36.7396 71.5018 36.5465 71.6908 36.3851C71.9342 36.1771 72.1666 35.9755 72.4316 35.793C72.7837 35.5506 73.1466 35.3352 73.5406 35.1673C73.8511 35.035 74.1534 34.8341 74.4831 34.7609" stroke="#F3D054" stroke-linecap="round"/>
<path d="M70.0551 38.3845C70.2318 38.3649 70.3857 37.877 70.4489 37.7349C70.5671 37.469 70.816 37.2413 71.0023 37.024C71.133 36.8715 71.3262 36.7185 71.4813 36.5909C71.625 36.4727 71.7693 36.3455 71.9232 36.2409C72.1031 36.1187 72.2265 35.9552 72.3956 35.8253C72.7303 35.5683 73.0889 35.3623 73.4543 35.156C73.8774 34.9171 74.3554 34.7684 74.8193 34.6047" stroke="#F3D054" stroke-linecap="round"/>
<path d="M70.1733 38.5814C70.476 38.2787 70.7686 37.9686 71.0701 37.6671C71.1698 37.5674 71.2378 37.4382 71.3369 37.339C71.4748 37.2012 71.6473 37.0784 71.7679 36.93C71.986 36.6615 72.3254 36.4562 72.575 36.2191C72.755 36.0481 72.9687 35.9707 73.1656 35.8275C73.3582 35.6875 73.6487 35.5542 73.8765 35.4929C74.3137 35.3752 74.7142 35.2322 75.1714 35.156C75.6987 35.0681 76.1689 34.9985 76.7092 34.9985C77.297 34.9985 77.8912 34.9591 78.4831 34.9591C78.6097 34.9591 79.0335 34.9352 79.1415 35.0073C79.2566 35.0839 79.4802 35.1322 79.6228 35.156" stroke="#F3D054" stroke-linecap="round"/>
<path d="M70.448 38.5941C70.4748 38.2993 70.8936 37.9107 71.1276 37.7937C71.433 37.641 71.7115 37.3337 71.996 37.1367C72.3574 36.8865 72.9704 36.6883 73.2343 36.3363C73.5115 35.9668 74.1141 35.8842 74.4954 35.6416C74.6439 35.5471 75.0269 35.4509 75.2052 35.4C75.4316 35.3353 75.6953 35.3811 75.9112 35.2981C76.4728 35.0821 77.1143 35.1282 77.7159 35.1282C78.6346 35.1282 79.5391 35.2589 80.3701 35.5359" stroke="#F3D054" stroke-linecap="round"/>
<path d="M69.6325 38.7301C69.6613 38.5 70.3101 38.9007 70.0403 38.8622C69.9083 38.8433 69.7141 38.477 69.7307 38.6092C69.7449 38.7234 69.9385 38.866 70.0403 38.866" stroke="#F3D054" stroke-linecap="round"/>
<path d="M69.3607 37.8466C69.3607 38.1771 69.379 38.529 69.7684 38.647C69.9767 38.7101 70.1766 39.0509 70.414 38.9981C70.6007 38.9566 70.9237 38.6282 71.0294 38.4922C71.066 38.4452 71.2531 38.308 71.2598 38.2846C71.3049 38.1265 71.3532 38.0053 71.4674 37.8843C71.6955 37.6429 71.914 37.4 72.147 37.167C72.3311 36.9829 72.5938 36.8414 72.7549 36.6535C73.0232 36.3405 73.4211 36.2412 73.7138 35.9777C74.0639 35.6627 74.8217 35.3321 75.2731 35.3321" stroke="#F3D054" stroke-linecap="round"/>
<path d="M83.3342 39.6812C83.4367 39.6926 83.5439 39.8684 83.6001 39.9471C83.6573 40.0272 83.7599 40.0746 83.7878 40.1583C83.7978 40.1883 83.924 40.3148 83.9536 40.3444C84.0254 40.4162 84.0995 40.5293 84.1788 40.5822" stroke="#FF3D95" stroke-linecap="round"/>
<path d="M84.4041 40.6103C84.4502 40.5694 84.5198 40.6041 84.5449 40.554" stroke="#FF3D95" stroke-linecap="round"/>
<path d="M84.7701 40.5822C85.0462 40.391 85.2929 40.1221 85.5177 39.8768C85.6777 39.7022 85.9799 39.6717 86.1903 39.5952C86.6332 39.4342 87.0153 39.1935 87.4166 38.9492" stroke="#FF3D95" stroke-linecap="round"/>
<path d="M85.3332 40.3851C85.4364 39.9464 85.8528 39.5958 86.1622 39.3027C86.409 39.0689 86.633 38.8478 86.9193 38.6614C87.2085 38.4731 87.4942 38.2709 87.8108 38.1108C88.3682 37.8291 89.0121 37.7479 89.6127 37.5978" stroke="#FF3D95" stroke-linecap="round"/>
<path d="M69.92 40.1053C70.0176 39.78 70.6181 39.3097 70.8618 39.0776C71.2452 38.7125 71.6032 38.3326 72.0072 37.9862C72.5726 37.5016 73.1869 37.1137 73.8845 36.8408C74.2158 36.7111 74.5463 36.6445 74.8773 36.5226C75.0721 36.4508 75.2556 36.3902 75.4627 36.3826C75.6918 36.3741 75.8992 36.2108 76.1341 36.2108C76.9494 36.2108 77.8064 36.1535 78.6382 36.1535C79.082 36.1535 79.5657 36.2558 79.9714 36.443C80.295 36.5924 80.8345 36.7621 81.0818 37.0094C81.5266 37.4542 82.1271 37.7974 82.5773 38.2726C83.2946 39.0297 83.9451 39.8628 84.41 40.7926" stroke="#FF3D95" stroke-linecap="round"/>
<path d="M84.5246 40.1626C84.9451 40.0224 85.3462 39.734 85.7019 39.4753C86.0117 39.25 86.2274 38.9086 86.5323 38.699C87.4967 38.036 88.596 37.5938 89.7237 37.2862C91.268 36.8651 92.9733 36.6117 94.5792 36.6117C95.6725 36.6117 96.6185 36.9595 97.6369 37.2989C98.131 37.4636 98.6061 37.766 99.0719 37.999C99.2762 38.1011 99.5071 38.2715 99.6447 38.4571C99.8096 38.6797 100.249 38.9427 100.332 39.1921C100.447 39.5364 100.873 39.6381 101.022 39.9367C101.085 40.0614 101.249 40.0644 101.306 40.1912C101.386 40.3731 101.606 40.4498 101.707 40.6208C101.909 40.965 102.227 41.2881 102.464 41.6199C102.666 41.9024 102.934 42.22 103.094 42.5108C103.208 42.7178 103.445 42.8946 103.539 43.0835" stroke="#FF3D95" stroke-linecap="round"/>
</g>
<path d="M65.7908 35.6277C65.9142 35.6277 65.9834 35.6856 66.0853 35.75C66.3215 35.8991 66.5968 36.0428 66.8524 36.1557C67.1141 36.2713 67.338 36.4558 67.5917 36.5893C67.7748 36.6857 67.9189 36.8163 68.0808 36.9283C68.1876 37.0023 68.2951 37.0882 68.4032 37.1562C68.4819 37.2058 68.5704 37.1711 68.6533 37.2285C68.8838 37.3881 68.9749 37.5409 69.2203 37.3397C69.4079 37.1859 69.5021 36.9778 69.7039 36.8283C69.9242 36.6651 70.0954 36.4019 70.3431 36.278C70.733 36.0831 71.1134 35.884 71.527 35.7444C71.8954 35.6201 72.2628 35.4867 72.6165 35.3275C72.8677 35.2145 73.1437 35.1893 73.3947 35.0774C73.5558 35.0055 73.7148 34.9637 73.8894 34.9384C73.9398 34.9311 74.0699 34.9245 74.0339 34.8884C73.9582 34.8127 73.6499 34.9566 73.5725 34.9773C73.2254 35.0702 72.8985 35.2308 72.5498 35.3164C71.9672 35.4595 71.3443 35.4578 70.7822 35.6777C70.2114 35.901 69.7914 36.1265 69.3426 36.5281C69.0478 36.7919 68.6979 37.1559 68.292 37.1785C68.1026 37.189 67.9441 37.2538 67.7418 37.2174C67.37 37.1505 67.7453 37.1482 67.8918 37.2785C68.1604 37.5172 68.4742 37.2497 68.7089 37.0895C69.0831 36.8341 69.4674 36.6032 69.8039 36.2891C70.2536 35.8695 70.9906 35.6215 71.5437 35.3887C71.6448 35.3461 71.7732 35.3689 71.8828 35.3275C72.0954 35.2472 72.3152 35.1815 72.5442 35.1774C72.9531 35.1701 73.3455 35.0823 73.7504 35.0774C74.3601 35.07 74.9351 34.8909 75.5347 34.8773C76.038 34.8659 76.5431 34.8773 77.0465 34.8773C77.4283 34.8773 77.8155 34.8582 78.1971 34.8773C78.3257 34.8837 78.4204 34.9727 78.5584 34.9773C78.7388 34.9835 78.8856 35.0509 79.0587 35.0885C79.6347 35.2137 80.1593 35.5075 80.7207 35.6777C81.4676 35.9042 82.1923 36.1887 82.9496 36.3781" stroke="#F3D054" stroke-linecap="round"/>
<path d="M65.4526 36.6117C65.9179 36.6117 66.2438 36.9175 66.6585 37.0731C66.8703 37.1525 67.0628 37.3032 67.2599 37.4135C67.5276 37.5634 67.7607 37.6227 67.9599 37.8717C68.2889 38.283 68.6637 38.7283 69.0353 39.0999C69.3213 39.3858 69.6795 39.7963 69.8626 40.1626" stroke="#FF3D95" stroke-linecap="round"/>
<path d="M65.0517 36.3826C65.641 36.3826 66.2302 36.3687 66.7699 36.6244C67.1903 36.8235 67.5763 37.2264 67.9599 37.5026C68.8318 38.1303 69.6216 38.9629 70.2636 39.8189" stroke="#FF3D95" stroke-linecap="round"/>
<defs>
<radialGradient id="paint0_radial_15_139" cx="0" cy="0" r="1" gradientUnits="userSpaceOnUse" gradientTransform="translate(69.5 59.5) scale(61.5 19.5)">
<stop offset="0.23" stop-color="#FF95DA"/>
<stop offset="0.45" stop-color="#FD93D8"/>
<stop offset="0.695" stop-color="#FC93D7"/>
<stop offset="0.881" stop-color="#FD63B6"/>
<stop offset="1" stop-color="#FF3B93"/>
</radialGradient>
<clipPath id="clip0_15_139">
<rect width="70" height="53" fill="white" transform="translate(4 31)"/>
</clipPath>
<clipPath id="clip1_15_139">
<rect width="70" height="53" fill="white" transform="matrix(-0.999812 -0.0193732 -0.0193732 0.999812 136.072 31.3748)"/>
</clipPath>
</defs>
</svg>
